<?xml version="1.0" encoding="UTF-8"?>
<svg width="360px" height="114px" viewBox="0 0 360 114" version="1.1" xmlns="http://www.w3.org/2000/svg" xmlns:xlink="http://www.w3.org/1999/xlink">
  <title>Page 1</title>
  <defs>
    <filter id="filter-1">
      <feColorMatrix in="SourceGraphic" type="matrix" values="0 0 0 0 0.552941 0 0 0 0 0.560784 0 0 0 0 0.600000 0 0 0 1.000000 0"></feColorMatrix>
    </filter>
    <linearGradient x1="80.26323%" y1="88.4201335%" x2="6.4557421%" y2="0%" id="linearGradient-2">
      <stop stop-color="#456563" offset="0%"></stop>
      <stop stop-color="#5A877E" offset="20.7110431%"></stop>
      <stop stop-color="#FDC343" offset="44.0403294%"></stop>
      <stop stop-color="#E99877" offset="70.0960726%"></stop>
      <stop stop-color="#A4574E" offset="100%"></stop>
    </linearGradient>
    <linearGradient x1="100%" y1="68.1004799%" x2="6.4557421%" y2="41.6098127%" id="linearGradient-3">
      <stop stop-color="#456563" offset="0%"></stop>
      <stop stop-color="#5A877E" offset="20.7110431%"></stop>
      <stop stop-color="#FDC343" offset="44.0403294%"></stop>
      <stop stop-color="#E99877" offset="70.0960726%"></stop>
      <stop stop-color="#A4574E" offset="100%"></stop>
    </linearGradient>
    <path d="M1105.0336,1527.62208 C1111.39264,1527.62208 1115.50528,1523.85504 1115.50528,1522.05792 C1115.50528,1520.88288 1114.3648,1519.84608 1113.18976,1519.84608 C1112.56768,1519.84608 1111.98016,1520.088 1111.49632,1520.74464 C1110.07936,1522.64544 1107.48736,1523.64768 1104.8608,1523.64768 C1097.56864,1523.64768 1095.8752,1517.1504 1095.8752,1514.24736 C1095.8752,1509.58176 1098.9856,1504.60512 1104.82624,1504.60512 C1107.00352,1504.60512 1109.1808,1505.4 1110.52864,1507.05888 C1111.04704,1507.71552 1111.66912,1507.992 1112.2912,1507.992 C1113.39712,1507.992 1114.39936,1507.02432 1114.39936,1505.84928 C1114.39936,1503.98304 1110.66688,1500.80352 1105.17184,1500.80352 C1096.7392,1500.80352 1091.79712,1507.4736 1091.79712,1514.48928 C1091.79712,1521.22848 1096.42816,1527.62208 1105.0336,1527.62208 Z M1121.2768,1527.38016 C1122.6592,1527.38016 1123.07392,1526.34336 1123.03936,1525.6176 C1122.97024,1523.16384 1122.93568,1521.43584 1122.93568,1520.088 C1122.93568,1519.15488 1122.93568,1518.42912 1122.97024,1517.80704 C1123.07392,1515.62976 1125.35488,1513.93632 1127.39392,1513.72896 C1128.74176,1513.59072 1129.36384,1512.69216 1129.36384,1511.82816 C1129.36384,1510.96416 1128.74176,1510.16928 1127.6704,1510.16928 C1126.49536,1510.16928 1124.62912,1510.7568 1123.24672,1512.27744 C1123.1776,1512.38112 1123.10848,1512.41568 1123.10848,1512.41568 C1123.07392,1512.41568 1123.07392,1512.38112 1123.07392,1512.312 L1123.07392,1512.17376 L1123.07392,1512.17376 C1123.07392,1512.07008 1123.10848,1511.9664 1123.10848,1511.82816 C1123.10848,1510.72224 1122.20992,1510.20384 1121.34592,1510.20384 C1120.48192,1510.20384 1119.47968,1510.72224 1119.47968,1511.75904 L1119.47968,1511.82816 L1119.47968,1511.82816 C1119.5488,1514.14368 1119.58336,1515.9408 1119.58336,1518.0144 C1119.58336,1520.05344 1119.5488,1522.3344 1119.44512,1525.6176 L1119.44512,1525.68672 L1119.44512,1525.68672 C1119.44512,1526.79264 1120.34368,1527.38016 1121.2768,1527.38016 Z M1139.7664,1527.58752 C1143.25696,1527.58752 1145.1232,1526.44704 1146.78208,1524.71904 C1147.16224,1524.33888 1147.30048,1523.92416 1147.30048,1523.50944 C1147.30048,1522.54176 1146.40192,1521.71232 1145.4688,1521.71232 C1145.05408,1521.71232 1144.63936,1521.88512 1144.29376,1522.26528 C1143.29152,1523.33664 1141.97824,1524.37344 1139.80096,1524.37344 C1137.3472,1524.37344 1135.13536,1522.64544 1135.1008,1519.77696 C1135.1008,1519.3968 1135.16992,1519.12032 1135.37728,1519.12032 L1138.78374,1519.12003 C1142.39194,1519.11889 1143.02592,1519.11328 1143.87904,1519.08576 C1146.09088,1519.01664 1147.16224,1517.70336 1147.16224,1516.07904 C1147.16224,1513.45248 1144.46656,1509.96192 1139.69728,1509.96192 C1135.23904,1509.96192 1131.50656,1513.59072 1131.50656,1518.8784 C1131.50656,1524.02784 1135.03168,1527.58752 1139.7664,1527.58752 Z M1139.688,1516.28624 L1138.186,1516.28619 C1135.69914,1516.28398 1135.41184,1516.25896 1135.41184,1515.97536 C1135.41184,1515.38784 1136.93248,1512.96864 1139.73184,1512.96864 C1142.84224,1512.96864 1143.568,1515.00768 1143.568,1515.49152 C1143.568,1515.90624 1143.29152,1516.21728 1142.8768,1516.25184 C1142.0992,1516.28064 1140.8896,1516.28544 1139.688,1516.28624 Z M1156.38976,1527.58752 C1158.4288,1527.58752 1160.60608,1526.86176 1161.78112,1525.51392 C1161.85024,1525.4448 1161.91936,1525.41024 1161.98848,1525.41024 C1162.02304,1525.41024 1162.09216,1525.4448 1162.12672,1525.51392 C1162.43776,1526.03232 1162.7488,1526.41248 1163.05984,1526.6544 C1163.47456,1527 1163.92384,1527.1728 1164.304,1527.1728 C1165.30624,1527.1728 1166.06656,1526.06688 1166.06656,1525.0992 C1166.06656,1524.61536 1165.89376,1524.16608 1165.5136,1523.8896 C1165.23712,1523.68224 1163.9584,1523.57856 1163.64736,1520.81376 C1163.6128,1520.6064 1163.6128,1520.32992 1163.6128,1520.01888 C1163.6128,1518.98208 1163.71648,1517.6688 1163.7856,1517.1504 C1163.82016,1516.66656 1163.85472,1516.25184 1163.85472,1515.80256 C1163.85472,1511.82816 1161.78112,1509.96192 1157.97952,1509.96192 C1154.48896,1509.96192 1151.44768,1511.7936 1151.44768,1513.45248 C1151.44768,1514.35104 1152.208,1515.04224 1153.10656,1515.04224 C1153.52128,1515.04224 1154.00512,1514.86944 1154.38528,1514.42016 C1155.04192,1513.6944 1156.21696,1512.96864 1157.77216,1512.96864 C1160.12224,1512.96864 1160.22592,1514.7312 1160.22592,1515.14592 C1160.22592,1515.87168 1159.94944,1516.2864 1159.60384,1516.32096 C1159.05088,1516.35552 1156.07872,1517.01216 1153.69408,1517.8416 C1151.37856,1518.63648 1150.34176,1520.39904 1150.34176,1522.1616 C1150.34176,1524.82272 1152.58816,1527.58752 1156.38976,1527.58752 Z M1156.38976,1524.37344 C1154.6272,1524.37344 1153.69408,1523.30208 1153.69408,1522.23072 C1153.69408,1521.40128 1154.03968,1519.94976 1159.88032,1519.224 L1159.91488,1519.224 C1160.3296,1519.224 1160.39872,1519.98432 1160.39872,1520.50272 C1160.39872,1522.95648 1159.18912,1524.37344 1156.38976,1524.37344 Z M1175.60512,1527.5184 C1177.40224,1527.5184 1178.54272,1526.93088 1178.54272,1525.68672 C1178.54272,1524.9264 1177.98976,1524.16608 1177.05664,1524.16608 C1176.95296,1524.16608 1176.88384,1524.20064 1176.78016,1524.20064 C1176.50368,1524.2352 1176.2272,1524.26976 1175.98528,1524.26976 C1174.10857,1524.26976 1173.95421,1523.22985 1173.94657,1520.70886 L1173.94624,1520.46816 C1173.94624,1518.1872 1174.04992,1515.2496 1174.04992,1513.97088 C1174.04992,1513.76352 1174.04992,1513.59072 1174.56832,1513.59072 L1176.84928,1513.59072 C1177.88608,1513.59072 1178.36992,1512.76128 1178.36992,1511.9664 C1178.36992,1511.13696 1177.88608,1510.34208 1176.84928,1510.34208 L1174.53376,1510.34208 C1174.18816,1510.34208 1174.04992,1510.30752 1174.04992,1509.75456 C1174.04992,1509.75456 1174.11904,1508.44128 1174.11904,1507.50816 C1174.11904,1507.05888 1174.11904,1505.4 1172.28736,1505.4 C1171.3888,1505.4 1170.55936,1505.9184 1170.55936,1506.9552 L1170.55936,1507.05888 L1170.55936,1507.05888 C1170.58528,1507.344 1170.59176,1507.64856 1170.59338,1507.95798 L1170.59392,1508.26848 C1170.59392,1509.06336 1170.55936,1509.75456 1170.55936,1509.75456 C1170.55936,1510.2384 1170.5248,1510.34208 1169.97184,1510.34208 L1168.9696,1510.34208 C1167.9328,1510.34208 1167.4144,1511.13696 1167.4144,1511.93184 C1167.4144,1512.76128 1167.96736,1513.59072 1168.9696,1513.59072 L1170.0064,1513.59072 C1170.352,1513.59072 1170.55936,1513.62528 1170.55936,1514.07456 L1170.55936,1514.59296 L1170.55936,1514.59296 C1170.55936,1516.03357 1170.49733,1519.21117 1170.4908,1521.24601 L1170.4905,1521.74393 C1170.49726,1523.32019 1170.67968,1527.5184 1175.60512,1527.5184 Z M1184.31424,1505.7456 C1185.80032,1505.7456 1186.73344,1504.536 1186.73344,1503.29184 C1186.73344,1501.97856 1185.5584,1500.94176 1184.31424,1500.94176 C1183.34656,1500.94176 1181.89504,1501.5984 1181.89504,1503.29184 C1181.89504,1504.8816 1182.9664,1505.7456 1184.31424,1505.7456 Z M1184.31424,1527.48384 C1185.24736,1527.48384 1186.18048,1526.89632 1186.18048,1525.72128 L1186.18048,1525.65216 L1186.18048,1525.65216 C1186.14592,1523.75136 1186.11136,1521.2976 1186.11136,1518.91296 C1186.11136,1516.00992 1186.14592,1513.27968 1186.18048,1511.86272 L1186.18048,1511.7936 L1186.18048,1511.7936 C1186.18048,1510.68768 1185.24736,1510.13472 1184.3488,1510.13472 C1183.312,1510.13472 1182.448,1510.7568 1182.48256,1511.89728 C1182.51712,1512.8304 1182.51712,1514.2128 1182.51712,1515.768 C1182.51712,1518.91296 1182.48256,1522.8528 1182.48256,1525.72128 C1182.48256,1526.89632 1183.38112,1527.48384 1184.31424,1527.48384 Z M1204.84288,1527.38016 C1205.74144,1527.38016 1206.60544,1526.79264 1206.64,1525.54848 C1206.66688,1524.984 1206.67286,1524.27317 1206.67418,1523.48104 L1206.67456,1522.78368 C1206.67456,1520.22624 1206.60544,1517.1504 1206.57088,1515.90624 C1206.43264,1512.03552 1203.63328,1510.13472 1200.73024,1510.13472 C1198.93312,1510.13472 1197.10144,1510.82592 1195.82272,1512.20832 C1195.7536,1512.27744 1195.68448,1512.34656 1195.64992,1512.34656 C1195.624,1512.34656 1195.61752,1512.32712 1195.6159,1512.30282 L1195.61536,1512.17376 L1195.61536,1512.17376 C1195.61536,1512.07008 1195.64992,1511.9664 1195.64992,1511.82816 C1195.64992,1510.72224 1194.75136,1510.20384 1193.88736,1510.20384 C1193.02336,1510.20384 1192.02112,1510.72224 1192.02112,1511.75904 L1192.02112,1511.82816 L1192.02112,1511.82816 C1192.09024,1514.14368 1192.1248,1515.9408 1192.1248,1518.0144 C1192.1248,1520.05344 1192.09024,1522.3344 1191.98656,1525.6176 L1191.98656,1525.68672 L1191.98656,1525.68672 C1191.98656,1526.79264 1192.88512,1527.38016 1193.81824,1527.38016 C1195.20064,1527.38016 1195.61536,1526.34336 1195.5808,1525.6176 C1195.51629,1523.32742 1195.48188,1521.57915 1195.47758,1520.20418 L1195.47766,1519.22184 C1195.47928,1518.56088 1195.48576,1517.99712 1195.51168,1517.53056 C1195.61536,1515.21504 1198.13824,1513.3488 1200.2464,1513.3488 C1201.69792,1513.3488 1202.90752,1514.2128 1203.04576,1516.35552 C1203.07802,1516.87162 1203.11027,1517.92961 1203.11443,1519.19233 L1203.11488,1519.46592 C1203.11488,1521.57408 1203.08032,1524.20064 1203.04576,1525.6176 L1203.04576,1525.65216 C1203.04576,1526.75808 1203.94432,1527.38016 1204.84288,1527.38016 Z M1218.736,1536.22752 C1223.36704,1536.22752 1227.8944,1534.29216 1227.8944,1529.66112 C1227.8944,1526.8272 1225.57888,1524.30432 1220.39488,1524.30432 C1215.17632,1524.30432 1214.7616,1524.16608 1214.7616,1523.544 C1214.7616,1522.1616 1217.11168,1521.88512 1218.5632,1521.85056 C1222.81408,1521.67776 1225.09504,1519.36224 1225.09504,1516.04448 C1225.09504,1515.00768 1225.02592,1514.66208 1224.784,1514.00544 C1224.74944,1513.90176 1224.74944,1513.83264 1224.74944,1513.79808 C1224.74944,1513.65984 1224.81856,1513.65984 1224.88768,1513.62528 C1225.09504,1513.5216 1225.23328,1513.41792 1225.61344,1513.41792 C1225.71712,1513.41792 1225.88992,1513.41792 1226.06272,1513.45248 C1226.20096,1513.48704 1226.30464,1513.48704 1226.44288,1513.48704 C1227.41056,1513.48704 1227.8944,1512.69216 1227.8944,1511.89728 C1227.8944,1510.20384 1226.44288,1510.10016 1225.44064,1510.10016 C1224.71488,1510.10016 1224.12736,1510.30752 1223.12512,1510.82592 C1222.95232,1510.9296 1222.77952,1510.99872 1222.57216,1510.99872 C1222.43392,1510.99872 1222.22656,1510.96416 1221.98464,1510.82592 C1220.8096,1510.27296 1219.46176,1509.99648 1218.14848,1509.99648 L1218.07936,1509.99648 L1218.07936,1509.99648 C1214.69248,1509.99648 1211.23648,1512.03552 1211.23648,1516.04448 C1211.23648,1517.496 1211.96224,1519.29312 1213.31008,1520.32992 C1213.58656,1520.53728 1213.69024,1520.64096 1213.69024,1520.74464 C1213.69024,1520.84832 1213.48288,1520.91744 1213.24096,1521.05568 C1211.89312,1521.78144 1211.27104,1522.8528 1211.27104,1524.13152 C1211.27104,1525.03008 1211.824,1526.17056 1213.17184,1526.58528 C1213.41376,1526.6544 1213.48288,1526.72352 1213.48288,1526.79264 C1213.48288,1526.8272 1213.41376,1526.89632 1213.31008,1526.93088 C1211.6512,1527.62208 1210.2688,1528.9008 1210.2688,1530.8016 C1210.2688,1533.048 1212.48064,1536.22752 1218.736,1536.22752 Z M1218.11392,1518.98208 C1215.03808,1518.98208 1214.62336,1516.90848 1214.62336,1516.00992 C1214.62336,1514.24736 1216.21312,1512.96864 1218.25216,1512.96864 C1220.84416,1512.96864 1221.88096,1514.42016 1221.88096,1515.97536 C1221.88096,1517.97984 1220.15296,1518.98208 1218.11392,1518.98208 Z M1218.80512,1533.15168 C1213.82848,1533.15168 1213.7248,1530.76704 1213.7248,1530.456 C1213.7248,1530.04128 1214.20864,1527.24192 1218.77056,1527.24192 C1221.39712,1527.24192 1224.2656,1527.24192 1224.2656,1529.86848 C1224.2656,1533.01344 1219.7728,1533.15168 1218.80512,1533.15168 Z M1245.90016,1527.03456 C1248.00832,1527.03456 1250.32384,1525.9632 1251.36064,1524.20064 C1251.3952,1524.13152 1251.46432,1524.09696 1251.46432,1524.09696 C1251.53344,1524.09696 1251.53344,1524.13152 1251.568,1524.2352 C1252.05184,1526.136 1253.77984,1526.61984 1253.9872,1526.61984 C1254.60928,1526.61984 1255.024,1526.03232 1255.024,1525.54848 C1255.024,1525.272 1254.92032,1524.99552 1254.64384,1524.85728 C1253.26144,1524.13152 1252.70848,1523.44032 1252.70848,1520.57184 C1252.70848,1519.43136 1252.7776,1517.87616 1252.88128,1516.73568 C1252.91584,1516.39008 1252.91584,1516.07904 1252.91584,1515.768 C1252.91584,1511.89728 1250.73856,1510.48032 1247.52448,1510.48032 C1244.55232,1510.48032 1241.64928,1511.9664 1241.64928,1513.27968 C1241.64928,1513.83264 1242.09856,1514.2128 1242.61696,1514.2128 C1242.85888,1514.2128 1243.13536,1514.10912 1243.34272,1513.8672 C1244.1376,1513.0032 1245.52,1512.20832 1247.38624,1512.20832 C1250.1856,1512.20832 1250.98048,1513.6944 1250.98048,1515.5952 C1250.98048,1515.768 1250.94592,1515.97536 1250.94592,1516.14816 C1250.94592,1516.39008 1250.80768,1516.49376 1250.39296,1516.56288 C1248.94144,1516.8048 1246.14208,1517.3232 1243.99936,1517.97984 C1241.44192,1518.77472 1240.30144,1520.53728 1240.30144,1522.26528 C1240.30144,1524.64992 1242.4096,1527.03456 1245.90016,1527.03456 Z M1245.8656,1525.20288 C1243.55008,1525.20288 1242.16768,1523.75136 1242.16768,1522.29984 C1242.16768,1519.88064 1245.03616,1519.18944 1250.46208,1518.32544 L1250.56576,1518.32544 C1250.80768,1518.32544 1250.91136,1518.42912 1250.91136,1518.7056 C1250.91136,1519.12032 1250.8768,1519.50048 1250.8768,1519.88064 C1250.8768,1522.81824 1249.04512,1525.20288 1245.8656,1525.20288 Z M1101.4048,1561.31104 C1102.47616,1561.31104 1103.54752,1560.72352 1103.4784,1559.51392 C1103.37904,1557.06304 1103.31142,1553.08864 1103.30596,1549.11159 L1103.3056,1548.59296 C1103.3056,1545.20608 1103.34016,1541.85376 1103.40928,1539.50368 L1103.40978,1539.40019 C1103.41801,1538.86146 1103.56205,1538.81656 1106.08267,1538.81282 L1106.83072,1538.81248 C1107.66016,1538.81248 1108.6624,1538.81248 1109.83744,1538.8816 L1109.97568,1538.8816 L1109.97568,1538.8816 C1111.0816,1538.8816 1111.63456,1537.98304 1111.63456,1537.04992 C1111.63456,1536.2896 1111.18528,1535.14912 1109.83744,1535.18368 C1107.9834,1535.21621 1105.27217,1535.24873 1102.51052,1535.25245 L1101.05422,1535.25204 C1097.77299,1535.24679 1094.55441,1535.21523 1092.66112,1535.18368 L1092.592,1535.18368 L1092.592,1535.18368 C1091.31328,1535.18368 1090.6912,1536.08224 1090.6912,1537.01536 C1090.6912,1537.94848 1091.34784,1538.8816 1092.66112,1538.8816 C1094.28544,1538.8816 1095.90976,1538.81248 1097.22304,1538.81248 L1097.63102,1538.81273 C1099.27636,1538.81601 1099.36576,1538.86185 1099.36576,1539.50368 C1099.41952,1540.92832 1099.43147,1542.98016 1099.43412,1545.25268 L1099.43435,1548.22854 C1099.42977,1552.51111 1099.39538,1557.01079 1099.3312,1559.51392 L1099.3312,1559.54848 C1099.3312,1560.72352 1100.368,1561.31104 1101.4048,1561.31104 Z M1118.82304,1561.58752 C1122.3136,1561.58752 1124.17984,1560.44704 1125.83872,1558.71904 C1126.21888,1558.33888 1126.35712,1557.92416 1126.35712,1557.50944 C1126.35712,1556.54176 1125.45856,1555.71232 1124.52544,1555.71232 C1124.11072,1555.71232 1123.696,1555.88512 1123.3504,1556.26528 C1122.34816,1557.33664 1121.03488,1558.37344 1118.8576,1558.37344 C1116.40384,1558.37344 1114.192,1556.64544 1114.15744,1553.77696 C1114.15744,1553.3968 1114.22656,1553.12032 1114.43392,1553.12032 L1117.84038,1553.12003 C1121.44858,1553.11889 1122.08256,1553.11328 1122.93568,1553.08576 C1125.14752,1553.01664 1126.21888,1551.70336 1126.21888,1550.07904 C1126.21888,1547.45248 1123.5232,1543.96192 1118.75392,1543.96192 C1114.29568,1543.96192 1110.5632,1547.59072 1110.5632,1552.8784 C1110.5632,1558.02784 1114.08832,1561.58752 1118.82304,1561.58752 Z M1118.74464,1550.28624 L1117.24264,1550.28619 C1114.75578,1550.28398 1114.46848,1550.25896 1114.46848,1549.97536 C1114.46848,1549.38784 1115.98912,1546.96864 1118.78848,1546.96864 C1121.89888,1546.96864 1122.62464,1549.00768 1122.62464,1549.49152 C1122.62464,1549.90624 1122.34816,1550.21728 1121.93344,1550.25184 C1121.15584,1550.28064 1119.94624,1550.28544 1118.74464,1550.28624 Z M1137.8656,1561.5184 C1141.90912,1561.5184 1144.84672,1559.06464 1144.84672,1557.57856 C1144.84672,1556.61088 1143.9136,1555.74688 1142.91136,1555.74688 C1142.42752,1555.74688 1141.90912,1555.95424 1141.4944,1556.5072 C1140.73408,1557.544 1139.28256,1558.09696 1137.83104,1558.09696 C1133.06176,1558.09696 1132.71616,1553.50048 1132.71616,1552.74016 C1132.71616,1549.5952 1134.82432,1547.31424 1137.76192,1547.31424 C1138.97152,1547.31424 1140.18112,1547.72896 1140.90688,1548.62752 C1141.35616,1549.18048 1141.87456,1549.38784 1142.3584,1549.38784 C1143.32608,1549.38784 1144.19008,1548.5584 1144.19008,1547.59072 C1144.19008,1546.17376 1141.6672,1543.99648 1137.96928,1543.99648 C1132.54336,1543.99648 1129.2256,1548.24736 1129.2256,1552.91296 C1129.2256,1556.61088 1131.57568,1561.5184 1137.8656,1561.5184 Z M1161.50464,1561.38016 C1162.4032,1561.38016 1163.2672,1560.79264 1163.30176,1559.54848 C1163.33632,1558.82272 1163.33632,1557.85504 1163.33632,1556.78368 C1163.33632,1554.22624 1163.2672,1551.1504 1163.23264,1549.90624 C1163.0944,1545.51712 1160.08768,1543.96192 1157.15008,1543.96192 C1155.35296,1543.96192 1153.5904,1544.54944 1152.48448,1545.41344 C1152.3808,1545.48256 1152.34624,1545.51712 1152.31168,1545.51712 C1152.24256,1545.51712 1152.24256,1545.448 1152.24256,1545.30976 C1152.27712,1544.13472 1152.31168,1539.98752 1152.34624,1536.70432 C1152.34624,1535.5984 1151.48224,1535.08 1150.58368,1535.08 C1149.68512,1535.08 1148.752,1535.63296 1148.752,1536.66976 L1148.75258,1537.23529 C1148.75692,1539.51989 1148.78415,1543.11512 1148.78641,1546.92047 L1148.78656,1547.41792 C1148.78656,1551.77248 1148.752,1556.3344 1148.64832,1559.6176 L1148.64832,1559.68672 L1148.64832,1559.68672 C1148.64832,1560.79264 1149.54688,1561.38016 1150.48,1561.38016 C1151.8624,1561.38016 1152.27712,1560.34336 1152.24256,1559.6176 C1152.17344,1557.16384 1152.13888,1555.1248 1152.13888,1553.53504 C1152.13888,1552.39456 1152.13888,1551.496 1152.17344,1550.87392 C1152.27712,1548.69664 1154.48896,1547.176 1156.49344,1547.176 C1158.0832,1547.176 1159.56928,1548.14368 1159.70752,1550.49376 C1159.73961,1551.00722 1159.7717,1552.02727 1159.77612,1553.24953 L1159.77664,1553.53504 C1159.77664,1555.6432 1159.74208,1558.20064 1159.70752,1559.6176 L1159.70752,1559.65216 C1159.70752,1560.75808 1160.60608,1561.38016 1161.50464,1561.38016 Z M1181.37664,1561.38016 C1182.2752,1561.38016 1183.1392,1560.79264 1183.17376,1559.54848 C1183.20832,1558.82272 1183.20832,1557.85504 1183.20832,1556.78368 C1183.20832,1554.22624 1183.1392,1551.1504 1183.10464,1549.90624 C1182.9664,1546.03552 1180.16704,1544.13472 1177.264,1544.13472 C1175.46688,1544.13472 1173.6352,1544.82592 1172.35648,1546.20832 C1172.28736,1546.27744 1172.21824,1546.34656 1172.18368,1546.34656 C1172.15776,1546.34656 1172.15128,1546.32712 1172.14966,1546.30282 L1172.14912,1546.17376 L1172.14912,1546.17376 C1172.14912,1546.07008 1172.18368,1545.9664 1172.18368,1545.82816 C1172.18368,1544.72224 1171.28512,1544.20384 1170.42112,1544.20384 C1169.55712,1544.20384 1168.55488,1544.72224 1168.55488,1545.75904 L1168.55488,1545.82816 L1168.55488,1545.82816 C1168.624,1548.14368 1168.65856,1549.9408 1168.65856,1552.0144 C1168.65856,1554.05344 1168.624,1556.3344 1168.52032,1559.6176 L1168.52032,1559.68672 L1168.52032,1559.68672 C1168.52032,1560.79264 1169.41888,1561.38016 1170.352,1561.38016 C1171.7344,1561.38016 1172.14912,1560.34336 1172.11456,1559.6176 C1172.04544,1557.16384 1172.01088,1555.33216 1172.01088,1553.9152 C1172.01088,1552.94752 1172.01088,1552.15264 1172.04544,1551.53056 C1172.14912,1549.21504 1174.672,1547.3488 1176.78016,1547.3488 C1178.23168,1547.3488 1179.44128,1548.2128 1179.57952,1550.35552 C1179.61178,1550.87162 1179.64403,1551.92961 1179.64819,1553.19233 L1179.64864,1553.46592 C1179.64864,1555.57408 1179.61408,1558.20064 1179.57952,1559.6176 L1179.57952,1559.65216 C1179.57952,1560.75808 1180.47808,1561.38016 1181.37664,1561.38016 Z M1195.82272,1561.5184 C1200.7648,1561.5184 1204.49728,1557.99328 1204.49728,1552.77472 C1204.49728,1547.72896 1200.7648,1544.03104 1195.82272,1544.03104 C1190.88064,1544.03104 1187.1136,1547.72896 1187.1136,1552.77472 C1187.1136,1557.99328 1190.88064,1561.5184 1195.82272,1561.5184 Z M1195.82272,1558.26976 C1192.95424,1558.26976 1190.60416,1556.1616 1190.60416,1552.77472 C1190.60416,1549.35328 1192.9888,1547.21056 1195.82272,1547.21056 C1198.65664,1547.21056 1201.00672,1549.35328 1201.00672,1552.77472 C1201.00672,1556.1616 1198.6912,1558.26976 1195.82272,1558.26976 Z M1210.89088,1561.27648 C1211.824,1561.27648 1212.75712,1560.68896 1212.75712,1559.47936 L1212.75712,1559.41024 L1212.75712,1559.41024 C1212.69207,1556.93818 1212.65763,1553.5171 1212.6538,1550.06901 L1212.65397,1548.59399 C1212.66044,1543.49471 1212.72433,1538.62196 1212.75712,1537.01536 L1212.75712,1536.94624 L1212.75712,1536.94624 C1212.75712,1535.73664 1211.824,1535.11456 1210.89088,1535.11456 C1209.88864,1535.11456 1208.95552,1535.80576 1208.99008,1537.04992 C1209.05107,1538.26968 1209.05825,1541.83032 1209.05909,1545.83254 L1209.05902,1549.3773 C1209.05789,1553.38998 1209.04967,1557.32472 1208.99008,1559.41024 L1208.99008,1559.4448 C1208.99008,1560.6544 1209.9232,1561.27648 1210.89088,1561.27648 Z M1225.95904,1561.5184 C1230.90112,1561.5184 1234.6336,1557.99328 1234.6336,1552.77472 C1234.6336,1547.72896 1230.90112,1544.03104 1225.95904,1544.03104 C1221.01696,1544.03104 1217.24992,1547.72896 1217.24992,1552.77472 C1217.24992,1557.99328 1221.01696,1561.5184 1225.95904,1561.5184 Z M1225.95904,1558.26976 C1223.09056,1558.26976 1220.74048,1556.1616 1220.74048,1552.77472 C1220.74048,1549.35328 1223.12512,1547.21056 1225.95904,1547.21056 C1228.79296,1547.21056 1231.14304,1549.35328 1231.14304,1552.77472 C1231.14304,1556.1616 1228.82752,1558.26976 1225.95904,1558.26976 Z M1245.83104,1570.22752 C1250.46208,1570.22752 1254.98944,1568.29216 1254.98944,1563.66112 C1254.98944,1560.8272 1252.67392,1558.30432 1247.48992,1558.30432 C1242.27136,1558.30432 1241.85664,1558.16608 1241.85664,1557.544 C1241.85664,1556.1616 1244.20672,1555.88512 1245.65824,1555.85056 C1249.90912,1555.67776 1252.19008,1553.36224 1252.19008,1550.04448 C1252.19008,1549.00768 1252.12096,1548.66208 1251.87904,1548.00544 C1251.84448,1547.90176 1251.84448,1547.83264 1251.84448,1547.79808 C1251.84448,1547.65984 1251.9136,1547.65984 1251.98272,1547.62528 C1252.19008,1547.5216 1252.32832,1547.41792 1252.70848,1547.41792 C1252.81216,1547.41792 1252.98496,1547.41792 1253.15776,1547.45248 C1253.296,1547.48704 1253.39968,1547.48704 1253.53792,1547.48704 C1254.5056,1547.48704 1254.98944,1546.69216 1254.98944,1545.89728 C1254.98944,1544.20384 1253.53792,1544.10016 1252.53568,1544.10016 C1251.80992,1544.10016 1251.2224,1544.30752 1250.22016,1544.82592 C1250.04736,1544.9296 1249.87456,1544.99872 1249.6672,1544.99872 C1249.52896,1544.99872 1249.3216,1544.96416 1249.07968,1544.82592 C1247.90464,1544.27296 1246.5568,1543.99648 1245.24352,1543.99648 L1245.1744,1543.99648 L1245.1744,1543.99648 C1241.78752,1543.99648 1238.33152,1546.03552 1238.33152,1550.04448 C1238.33152,1551.496 1239.05728,1553.29312 1240.40512,1554.32992 C1240.6816,1554.53728 1240.78528,1554.64096 1240.78528,1554.74464 C1240.78528,1554.84832 1240.57792,1554.91744 1240.336,1555.05568 C1238.98816,1555.78144 1238.36608,1556.8528 1238.36608,1558.13152 C1238.36608,1559.03008 1238.91904,1560.17056 1240.26688,1560.58528 C1240.5088,1560.6544 1240.57792,1560.72352 1240.57792,1560.79264 C1240.57792,1560.8272 1240.5088,1560.89632 1240.40512,1560.93088 C1238.74624,1561.62208 1237.36384,1562.9008 1237.36384,1564.8016 C1237.36384,1567.048 1239.57568,1570.22752 1245.83104,1570.22752 Z M1245.20896,1552.98208 C1242.13312,1552.98208 1241.7184,1550.90848 1241.7184,1550.00992 C1241.7184,1548.24736 1243.30816,1546.96864 1245.3472,1546.96864 C1247.9392,1546.96864 1248.976,1548.42016 1248.976,1549.97536 C1248.976,1551.97984 1247.248,1552.98208 1245.20896,1552.98208 Z M1245.90016,1567.15168 C1240.92352,1567.15168 1240.81984,1564.76704 1240.81984,1564.456 C1240.81984,1564.04128 1241.30368,1561.24192 1245.8656,1561.24192 C1248.49216,1561.24192 1251.36064,1561.24192 1251.36064,1563.86848 C1251.36064,1567.01344 1246.86784,1567.15168 1245.90016,1567.15168 Z M1260.41536,1539.7456 C1261.90144,1539.7456 1262.83456,1538.536 1262.83456,1537.29184 C1262.83456,1535.97856 1261.65952,1534.94176 1260.41536,1534.94176 C1259.44768,1534.94176 1257.99616,1535.5984 1257.99616,1537.29184 C1257.99616,1538.8816 1259.06752,1539.7456 1260.41536,1539.7456 Z M1260.41536,1561.48384 C1261.34848,1561.48384 1262.2816,1560.89632 1262.2816,1559.72128 L1262.2816,1559.65216 L1262.2816,1559.65216 C1262.24704,1557.75136 1262.21248,1555.2976 1262.21248,1552.91296 C1262.21248,1550.00992 1262.24704,1547.27968 1262.2816,1545.86272 L1262.2816,1545.7936 L1262.2816,1545.7936 C1262.2816,1544.68768 1261.34848,1544.13472 1260.44992,1544.13472 C1259.41312,1544.13472 1258.54912,1544.7568 1258.58368,1545.89728 C1258.61824,1546.8304 1258.61824,1548.2128 1258.61824,1549.768 C1258.61824,1552.91296 1258.58368,1556.8528 1258.58368,1559.72128 C1258.58368,1560.89632 1259.48224,1561.48384 1260.41536,1561.48384 Z M1275.4144,1561.5184 C1279.45792,1561.5184 1282.39552,1559.06464 1282.39552,1557.57856 C1282.39552,1556.61088 1281.4624,1555.74688 1280.46016,1555.74688 C1279.97632,1555.74688 1279.45792,1555.95424 1279.0432,1556.5072 C1278.28288,1557.544 1276.83136,1558.09696 1275.37984,1558.09696 C1270.61056,1558.09696 1270.26496,1553.50048 1270.26496,1552.74016 C1270.26496,1549.5952 1272.37312,1547.31424 1275.31072,1547.31424 C1276.52032,1547.31424 1277.72992,1547.72896 1278.45568,1548.62752 C1278.90496,1549.18048 1279.42336,1549.38784 1279.9072,1549.38784 C1280.87488,1549.38784 1281.73888,1548.5584 1281.73888,1547.59072 C1281.73888,1546.17376 1279.216,1543.99648 1275.51808,1543.99648 C1270.09216,1543.99648 1266.7744,1548.24736 1266.7744,1552.91296 C1266.7744,1556.61088 1269.12448,1561.5184 1275.4144,1561.5184 Z M1291.10464,1561.58752 C1293.14368,1561.58752 1295.32096,1560.86176 1296.496,1559.51392 C1296.56512,1559.4448 1296.63424,1559.41024 1296.70336,1559.41024 C1296.73792,1559.41024 1296.80704,1559.4448 1296.8416,1559.51392 C1297.15264,1560.03232 1297.46368,1560.41248 1297.77472,1560.6544 C1298.18944,1561 1298.63872,1561.1728 1299.01888,1561.1728 C1300.02112,1561.1728 1300.78144,1560.06688 1300.78144,1559.0992 C1300.78144,1558.61536 1300.60864,1558.16608 1300.22848,1557.8896 C1299.952,1557.68224 1298.67328,1557.57856 1298.36224,1554.81376 C1298.32768,1554.6064 1298.32768,1554.32992 1298.32768,1554.01888 C1298.32768,1552.98208 1298.43136,1551.6688 1298.50048,1551.1504 C1298.53504,1550.66656 1298.5696,1550.25184 1298.5696,1549.80256 C1298.5696,1545.82816 1296.496,1543.96192 1292.6944,1543.96192 C1289.20384,1543.96192 1286.16256,1545.7936 1286.16256,1547.45248 C1286.16256,1548.35104 1286.92288,1549.04224 1287.82144,1549.04224 C1288.23616,1549.04224 1288.72,1548.86944 1289.10016,1548.42016 C1289.7568,1547.6944 1290.93184,1546.96864 1292.48704,1546.96864 C1294.83712,1546.96864 1294.9408,1548.7312 1294.9408,1549.14592 C1294.9408,1549.87168 1294.66432,1550.2864 1294.31872,1550.32096 C1293.76576,1550.35552 1290.7936,1551.01216 1288.40896,1551.8416 C1286.09344,1552.63648 1285.05664,1554.39904 1285.05664,1556.1616 C1285.05664,1558.82272 1287.30304,1561.58752 1291.10464,1561.58752 Z M1291.10464,1558.37344 C1289.34208,1558.37344 1288.40896,1557.30208 1288.40896,1556.23072 C1288.40896,1555.40128 1288.75456,1553.94976 1294.5952,1553.224 L1294.62976,1553.224 C1295.04448,1553.224 1295.1136,1553.98432 1295.1136,1554.50272 C1295.1136,1556.95648 1293.904,1558.37344 1291.10464,1558.37344 Z M1306.27648,1561.27648 C1307.2096,1561.27648 1308.14272,1560.68896 1308.14272,1559.47936 L1308.14272,1559.41024 L1308.14272,1559.41024 C1308.07767,1556.93818 1308.04323,1553.5171 1308.0394,1550.06901 L1308.03957,1548.59399 C1308.04604,1543.49471 1308.10994,1538.62196 1308.14272,1537.01536 L1308.14272,1536.94624 L1308.14272,1536.94624 C1308.14272,1535.73664 1307.2096,1535.11456 1306.27648,1535.11456 C1305.27424,1535.11456 1304.34112,1535.80576 1304.37568,1537.04992 C1304.43057,1538.14771 1304.44187,1541.1416 1304.4442,1544.64702 L1304.44419,1550.33794 C1304.44184,1554.0077 1304.4305,1557.49156 1304.37568,1559.41024 L1304.37568,1559.4448 C1304.37568,1560.6544 1305.3088,1561.27648 1306.27648,1561.27648 Z M1113.5008,1595.31104 C1115.12512,1595.31104 1116.784,1594.06688 1117.33696,1591.78592 C1120.24,1579.75904 1122.07168,1571.53376 1122.07168,1570.87712 C1122.07168,1569.7712 1120.96576,1569.08 1119.8944,1569.08 C1119.0304,1569.08 1118.1664,1569.56384 1117.95904,1570.56608 C1114.05376,1590.40352 1113.8464,1590.40352 1113.36256,1590.40352 C1113.18976,1590.40352 1113.01696,1590.19616 1112.91328,1589.60864 C1112.18752,1585.59968 1110.45952,1575.6464 1109.6992,1571.70656 C1109.38816,1570.08224 1107.86752,1569.14912 1106.34688,1569.14912 C1104.92992,1569.14912 1103.51296,1569.97856 1103.16736,1571.8448 C1102.2688,1576.44128 1100.40256,1586.91296 1099.74592,1589.78144 C1099.64224,1590.29984 1099.40032,1590.68 1099.12384,1590.68 L1099.09528,1590.6796 C1098.63588,1590.66384 1098.50176,1590.0752 1095.11488,1570.60064 C1094.94208,1569.5984 1094.00896,1569.08 1093.04128,1569.08 C1092.00448,1569.08 1090.93312,1569.70208 1090.93312,1570.91168 L1090.93372,1570.95151 C1090.95376,1571.64477 1091.49092,1574.51007 1095.11488,1591.64768 C1095.63328,1594.10144 1097.2576,1595.31104 1098.95104,1595.31104 C1100.60992,1595.31104 1102.30336,1594.10144 1102.92544,1591.61312 C1104.03136,1587.36224 1105.69024,1577.5472 1106.13952,1574.40224 C1106.20864,1574.02208 1106.31232,1573.78016 1106.416,1573.78016 C1106.51968,1573.78016 1106.62336,1573.95296 1106.69248,1574.40224 C1107.07264,1577.30528 1108.86976,1587.98432 1109.76832,1591.64768 C1110.3904,1594.17056 1111.9456,1595.31104 1113.5008,1595.31104 Z M1131.85216,1595.5184 C1136.79424,1595.5184 1140.52672,1591.99328 1140.52672,1586.77472 C1140.52672,1581.72896 1136.79424,1578.03104 1131.85216,1578.03104 C1126.91008,1578.03104 1123.14304,1581.72896 1123.14304,1586.77472 C1123.14304,1591.99328 1126.91008,1595.5184 1131.85216,1595.5184 Z M1131.85216,1592.26976 C1128.98368,1592.26976 1126.6336,1590.1616 1126.6336,1586.77472 C1126.6336,1583.35328 1129.01824,1581.21056 1131.85216,1581.21056 C1134.68608,1581.21056 1137.03616,1583.35328 1137.03616,1586.77472 C1137.03616,1590.1616 1134.72064,1592.26976 1131.85216,1592.26976 Z M1146.74752,1595.38016 C1148.12992,1595.38016 1148.54464,1594.34336 1148.51008,1593.6176 C1148.44528,1591.3172 1148.41086,1589.65467 1148.40681,1588.34526 L1148.40694,1587.42542 C1148.40856,1586.79848 1148.41504,1586.2736 1148.44096,1585.80704 C1148.54464,1583.62976 1150.8256,1581.93632 1152.86464,1581.72896 C1154.21248,1581.59072 1154.83456,1580.69216 1154.83456,1579.82816 C1154.83456,1578.96416 1154.21248,1578.16928 1153.14112,1578.16928 C1151.96608,1578.16928 1150.09984,1578.7568 1148.71744,1580.27744 C1148.64832,1580.38112 1148.5792,1580.41568 1148.5792,1580.41568 C1148.54464,1580.41568 1148.54464,1580.38112 1148.54464,1580.312 L1148.54464,1580.17376 L1148.54464,1580.17376 C1148.54464,1580.07008 1148.5792,1579.9664 1148.5792,1579.82816 C1148.5792,1578.72224 1147.68064,1578.20384 1146.81664,1578.20384 C1145.95264,1578.20384 1144.9504,1578.72224 1144.9504,1579.75904 L1144.9504,1579.82816 L1144.9504,1579.82816 C1145.01952,1582.14368 1145.05408,1583.9408 1145.05408,1586.0144 C1145.05408,1588.05344 1145.01952,1590.3344 1144.91584,1593.6176 L1144.91584,1593.68672 L1144.91584,1593.68672 C1144.91584,1594.79264 1145.8144,1595.38016 1146.74752,1595.38016 Z M1160.29504,1595.27648 C1161.22816,1595.27648 1162.16128,1594.68896 1162.16128,1593.47936 L1162.16128,1593.41024 L1162.16128,1593.41024 C1162.09623,1590.93818 1162.06179,1587.5171 1162.05796,1584.06901 L1162.0576,1583.4224 C1162.0576,1578.03104 1162.12672,1572.7088 1162.16128,1571.01536 L1162.16128,1570.94624 L1162.16128,1570.94624 C1162.16128,1569.73664 1161.22816,1569.11456 1160.29504,1569.11456 C1159.2928,1569.11456 1158.35968,1569.80576 1158.39424,1571.04992 C1158.4532,1572.22903 1158.46187,1575.59555 1158.46314,1579.43386 L1158.46301,1583.85833 C1158.46131,1587.7018 1158.45144,1591.40814 1158.39424,1593.41024 L1158.39424,1593.4448 C1158.39424,1594.6544 1159.32736,1595.27648 1160.29504,1595.27648 Z M1175.05216,1595.44928 C1177.29856,1595.44928 1179.1648,1594.4816 1180.51264,1593.03008 C1180.58176,1592.96096 1180.65088,1592.89184 1180.68544,1592.89184 C1180.75456,1592.89184 1180.78912,1592.96096 1180.82368,1593.0992 C1181.30752,1595 1181.96416,1595.27648 1182.75904,1595.27648 C1183.76128,1595.27648 1184.76352,1594.4816 1184.76352,1593.37568 C1184.76352,1593.06464 1184.6944,1592.7536 1184.5216,1592.44256 C1183.55432,1590.57471 1183.48839,1590.41298 1183.48497,1578.87776 L1183.4848,1577.58176 C1183.4848,1574.67872 1183.51936,1572.22496 1183.58848,1571.04992 L1183.58848,1570.87712 L1183.58848,1570.87712 C1183.58848,1569.66752 1182.68992,1569.08 1181.79136,1569.08 C1180.78912,1569.08 1179.99424,1569.80576 1180.0288,1570.87712 C1180.06336,1572.32864 1180.13248,1575.85376 1180.13248,1579.86272 C1180.13248,1579.9664 1180.09792,1580.00096 1180.0288,1580.00096 C1179.99424,1580.00096 1179.92512,1580.00096 1179.89056,1579.9664 C1178.61184,1578.82592 1176.98752,1578.10016 1175.05216,1578.10016 C1170.28288,1578.10016 1166.65408,1581.72896 1166.65408,1586.77472 C1166.65408,1591.99328 1170.28288,1595.44928 1175.05216,1595.44928 Z M1175.12128,1592.2352 C1172.35648,1592.2352 1170.14464,1590.1616 1170.14464,1586.77472 C1170.14464,1583.35328 1172.35648,1581.24512 1175.12128,1581.24512 C1177.88608,1581.24512 1180.09792,1583.35328 1180.09792,1586.77472 C1180.09792,1590.1616 1177.88608,1592.2352 1175.12128,1592.2352 Z" id="path-4"></path>
  </defs>
  <g id="Page-1" stroke="none" stroke-width="1" fill="none" fill-rule="evenodd">
    <g id="Ctw-UX-2020-STACK-Copy" transform="translate(-949.000000, -1491.000000)">
      <g filter="url(#filter-1)" id="Group-4-Copy">
        <g transform="translate(951.000000, 1493.000000)">
          <circle id="Oval" stroke="url(#linearGradient-2)" stroke-width="4" fill-rule="nonzero" cx="55" cy="55" r="55"></circle>
          <text id="CTW" fill="url(#linearGradient-3)" fill-rule="nonzero" transform="translate(55.500000, 55.000000) rotate(-5.000000) translate(-55.500000, -55.000000) " font-family="TsukuARdGothic-Bold, Tsukushi A Round Gothic" font-size="34.5600005" font-weight="bold">
            <tspan x="14" y="68">CTW</tspan>
          </text>
        </g>
      </g>
      <g id="CreatingaTechnologicalWorld" fill-rule="nonzero">
        <use fill-opacity="0.87" fill="#000000" xlink:href="#path-4"></use>
        <use fill="#8D8F99" xlink:href="#path-4"></use>
      </g>
    </g>
  </g>
</svg>
