<svg width="301" height="213" viewBox="0 0 301 213" fill="none" xmlns="http://www.w3.org/2000/svg">
  <path d="M26.7684 183.871C25.8377 183.871 25.113 183.627 24.5942 183.139C24.0755 182.635 23.8161 181.948 23.8161 181.079V170.597C23.8161 169.743 24.0679 169.071 24.5714 168.583C25.0901 168.095 25.8072 167.851 26.7226 167.851H29.9266C31.5134 167.851 32.8941 168.186 34.0689 168.858C35.259 169.514 36.1744 170.445 36.8152 171.65C37.456 172.855 37.7764 174.266 37.7764 175.884C37.7764 177.501 37.456 178.912 36.8152 180.118C36.1744 181.308 35.259 182.231 34.0689 182.887C32.8941 183.543 31.5134 183.871 29.9266 183.871H26.7684ZM29.6978 182.452C31.7117 182.452 33.2679 181.88 34.3665 180.736C35.4802 179.591 36.0371 177.974 36.0371 175.884C36.0371 173.793 35.4802 172.169 34.3665 171.009C33.2527 169.85 31.6965 169.27 29.6978 169.27H26.7455C26.3793 169.27 26.0818 169.392 25.853 169.636C25.6394 169.88 25.5326 170.2 25.5326 170.597V181.125C25.5326 181.521 25.6394 181.842 25.853 182.086C26.0818 182.33 26.3793 182.452 26.7455 182.452H29.6978ZM41.898 170.002C41.5624 170.002 41.2725 169.895 41.0284 169.682C40.7995 169.453 40.6851 169.178 40.6851 168.858C40.6851 168.537 40.7995 168.263 41.0284 168.034C41.2725 167.805 41.5624 167.691 41.898 167.691C42.2337 167.691 42.5236 167.813 42.7677 168.057C43.0271 168.286 43.1567 168.553 43.1567 168.858C43.1567 169.163 43.0271 169.43 42.7677 169.659C42.5236 169.888 42.2337 170.002 41.898 170.002ZM41.898 184.1C41.6386 184.1 41.4327 184.023 41.2801 183.871C41.1428 183.703 41.0741 183.474 41.0741 183.184V173.343C41.0741 173.054 41.1428 172.832 41.2801 172.68C41.4327 172.512 41.6386 172.428 41.898 172.428C42.1726 172.428 42.3786 172.512 42.5159 172.68C42.6685 172.832 42.7448 173.054 42.7448 173.343V183.184C42.7448 183.474 42.6685 183.703 42.5159 183.871C42.3786 184.023 42.1726 184.1 41.898 184.1ZM52.311 189.615C51.2125 189.615 50.2208 189.455 49.3359 189.135C48.451 188.814 47.7339 188.349 47.1846 187.739C47.0626 187.616 47.0015 187.464 47.0015 187.281C47.0015 187.052 47.1236 186.854 47.3677 186.686C47.5203 186.579 47.6652 186.526 47.8025 186.526C48.0314 186.526 48.2603 186.648 48.4891 186.892C48.8553 187.288 49.3435 187.609 49.9538 187.853C50.5641 188.097 51.2964 188.219 52.1508 188.219C53.646 188.219 54.7903 187.861 55.5837 187.144C56.3771 186.426 56.7738 185.389 56.7738 184.031V181.88C56.255 182.566 55.5761 183.131 54.7369 183.573C53.8978 184.001 52.9213 184.214 51.8076 184.214C49.8699 184.214 48.3747 183.695 47.3219 182.658C46.2692 181.62 45.7428 180.232 45.7428 178.493C45.7428 177.318 45.9717 176.28 46.4294 175.38C46.9024 174.465 47.6042 173.748 48.5349 173.229C49.4656 172.695 50.6099 172.428 51.9678 172.428C52.9747 172.428 53.8825 172.634 54.6912 173.046C55.4998 173.458 56.194 174.045 56.7738 174.808V173.298C56.7738 173.054 56.85 172.848 57.0026 172.68C57.1704 172.512 57.3764 172.428 57.6205 172.428C57.8647 172.428 58.063 172.512 58.2156 172.68C58.3681 172.832 58.4444 173.038 58.4444 173.298V184.031C58.4444 185.175 58.1851 186.167 57.6663 187.006C57.1628 187.845 56.4457 188.486 55.515 188.929C54.5844 189.386 53.5164 189.615 52.311 189.615ZM51.9678 182.727C52.7916 182.727 53.5621 182.566 54.2792 182.246C55.0116 181.926 55.6066 181.437 56.0643 180.781C56.522 180.11 56.7509 179.294 56.7509 178.332C56.7509 177.478 56.5678 176.715 56.2016 176.044C55.8354 175.373 55.3014 174.846 54.5996 174.465C53.8978 174.068 53.0586 173.87 52.0822 173.87C50.6022 173.87 49.4579 174.274 48.6493 175.083C47.8407 175.876 47.4364 177.013 47.4364 178.493C47.4364 179.805 47.8178 180.842 48.5807 181.605C49.3588 182.353 50.4878 182.727 51.9678 182.727ZM62.7723 170.002C62.4367 170.002 62.1468 169.895 61.9027 169.682C61.6738 169.453 61.5594 169.178 61.5594 168.858C61.5594 168.537 61.6738 168.263 61.9027 168.034C62.1468 167.805 62.4367 167.691 62.7723 167.691C63.108 167.691 63.3979 167.813 63.642 168.057C63.9014 168.286 64.0311 168.553 64.0311 168.858C64.0311 169.163 63.9014 169.43 63.642 169.659C63.3979 169.888 63.108 170.002 62.7723 170.002ZM62.7723 184.1C62.513 184.1 62.307 184.023 62.1544 183.871C62.0171 183.703 61.9484 183.474 61.9484 183.184V173.343C61.9484 173.054 62.0171 172.832 62.1544 172.68C62.307 172.512 62.513 172.428 62.7723 172.428C63.047 172.428 63.2529 172.512 63.3902 172.68C63.5428 172.832 63.6191 173.054 63.6191 173.343V183.184C63.6191 183.474 63.5428 183.703 63.3902 183.871C63.2529 184.023 63.047 184.1 62.7723 184.1ZM74.9018 181.605C75.0696 181.742 75.1535 181.903 75.1535 182.086C75.1535 182.238 75.0849 182.421 74.9476 182.635C74.6272 183.077 74.1847 183.436 73.6202 183.711C73.0557 183.97 72.4759 184.1 71.8809 184.1C70.8739 184.1 70.0805 183.802 69.5007 183.207C68.921 182.612 68.6311 181.796 68.6311 180.758V174.053H67.3953C66.785 174.053 66.4798 173.816 66.4798 173.343C66.4798 173.13 66.5561 172.962 66.7087 172.84C66.8765 172.718 67.1054 172.657 67.3953 172.657H68.6311V168.743C68.6311 168.453 68.6997 168.232 68.8371 168.08C68.9896 167.912 69.2032 167.828 69.4779 167.828C69.7372 167.828 69.9356 167.912 70.0729 168.08C70.2255 168.232 70.3017 168.453 70.3017 168.743V172.657H73.4142C73.6888 172.657 73.9024 172.718 74.055 172.84C74.2228 172.947 74.3068 173.115 74.3068 173.343C74.3068 173.816 74.0092 174.053 73.4142 174.053H70.3017V180.896C70.3017 182.071 70.851 182.658 71.9495 182.658C72.3004 182.658 72.6208 182.589 72.9107 182.452C73.2006 182.315 73.4905 182.093 73.7804 181.788C74.0092 181.544 74.2305 181.422 74.4441 181.422C74.5814 181.422 74.734 181.483 74.9018 181.605ZM81.7938 184.1C80.2986 184.1 79.1238 183.772 78.2694 183.116C77.4302 182.46 77.0107 181.552 77.0107 180.392C77.0107 179.248 77.4531 178.34 78.338 177.669C79.2382 176.997 80.4588 176.662 81.9998 176.662C82.8999 176.662 83.6933 176.784 84.3799 177.028C85.0817 177.272 85.6233 177.6 86.0048 178.012V176.547C86.0048 175.678 85.7149 175.014 85.1351 174.556C84.5706 174.099 83.7391 173.87 82.6406 173.87C81.2217 173.87 79.9934 174.205 78.956 174.877C78.6966 175.029 78.483 175.106 78.3152 175.106C78.1626 175.106 78.01 175.045 77.8574 174.923C77.6896 174.785 77.6057 174.61 77.6057 174.396C77.6057 174.167 77.7049 173.977 77.9032 173.824C78.4525 173.397 79.1467 173.061 79.9858 172.817C80.8402 172.558 81.7099 172.428 82.5948 172.428C84.2121 172.428 85.4631 172.794 86.3481 173.526C87.2482 174.259 87.6983 175.289 87.6983 176.616V183.207C87.6983 183.802 87.4237 184.1 86.8744 184.1C86.6303 184.1 86.432 184.023 86.2794 183.871C86.1268 183.703 86.0505 183.489 86.0505 183.23V182.406C85.1046 183.535 83.6857 184.1 81.7938 184.1ZM81.9998 182.704C83.1898 182.704 84.1587 182.482 84.9063 182.04C85.6539 181.582 86.0277 180.995 86.0277 180.278C86.0277 179.561 85.6767 179.011 84.9749 178.63C84.2883 178.233 83.3119 178.035 82.0455 178.035C80.9775 178.035 80.1536 178.241 79.5739 178.653C78.9941 179.05 78.7042 179.629 78.7042 180.392C78.7042 181.14 78.9865 181.712 79.551 182.109C80.1155 182.505 80.9318 182.704 81.9998 182.704ZM92.0963 184.1C91.8369 184.1 91.631 184.023 91.4784 183.871C91.3411 183.703 91.2724 183.474 91.2724 183.184V167.416C91.2724 167.126 91.3411 166.905 91.4784 166.752C91.631 166.584 91.8369 166.501 92.0963 166.501C92.3557 166.501 92.5617 166.584 92.7142 166.752C92.8668 166.905 92.9431 167.126 92.9431 167.416V183.184C92.9431 183.459 92.8668 183.68 92.7142 183.848C92.5769 184.016 92.3709 184.1 92.0963 184.1ZM110.393 184.1C108.775 184.1 107.364 183.764 106.159 183.093C104.953 182.421 104.023 181.468 103.367 180.232C102.711 178.981 102.383 177.531 102.383 175.884C102.383 174.236 102.711 172.787 103.367 171.535C104.023 170.284 104.953 169.323 106.159 168.652C107.379 167.965 108.791 167.622 110.393 167.622C111.689 167.622 112.895 167.843 114.009 168.286C115.138 168.728 116 169.338 116.595 170.117C116.732 170.269 116.801 170.452 116.801 170.666C116.801 170.91 116.694 171.101 116.48 171.238C116.343 171.329 116.19 171.375 116.022 171.375C115.885 171.375 115.748 171.345 115.611 171.284C115.473 171.207 115.359 171.116 115.267 171.009C114.794 170.414 114.138 169.949 113.299 169.613C112.46 169.262 111.491 169.087 110.393 169.087C109.111 169.087 107.997 169.361 107.051 169.911C106.105 170.46 105.381 171.246 104.877 172.268C104.374 173.29 104.122 174.495 104.122 175.884C104.122 177.989 104.679 179.645 105.793 180.85C106.906 182.04 108.44 182.635 110.393 182.635C111.415 182.635 112.323 182.475 113.116 182.154C113.909 181.819 114.527 181.361 114.97 180.781C115.427 180.186 115.656 179.515 115.656 178.767V177.989C115.656 177.577 115.572 177.28 115.405 177.097C115.252 176.914 114.954 176.822 114.512 176.822H111.033C110.454 176.822 110.164 176.593 110.164 176.135C110.164 175.647 110.454 175.403 111.033 175.403H114.81C115.679 175.403 116.328 175.594 116.755 175.975C117.182 176.357 117.396 176.944 117.396 177.737V178.607C117.396 179.629 117.09 180.56 116.48 181.399C115.87 182.238 115.031 182.902 113.963 183.39C112.895 183.863 111.705 184.1 110.393 184.1ZM123.922 184.1C122.427 184.1 121.252 183.772 120.398 183.116C119.559 182.46 119.139 181.552 119.139 180.392C119.139 179.248 119.582 178.34 120.467 177.669C121.367 176.997 122.587 176.662 124.128 176.662C125.029 176.662 125.822 176.784 126.508 177.028C127.21 177.272 127.752 177.6 128.133 178.012V176.547C128.133 175.678 127.843 175.014 127.264 174.556C126.699 174.099 125.868 173.87 124.769 173.87C123.35 173.87 122.122 174.205 121.085 174.877C120.825 175.029 120.612 175.106 120.444 175.106C120.291 175.106 120.139 175.045 119.986 174.923C119.818 174.785 119.734 174.61 119.734 174.396C119.734 174.167 119.833 173.977 120.032 173.824C120.581 173.397 121.275 173.061 122.114 172.817C122.969 172.558 123.838 172.428 124.723 172.428C126.341 172.428 127.592 172.794 128.477 173.526C129.377 174.259 129.827 175.289 129.827 176.616V183.207C129.827 183.802 129.552 184.1 129.003 184.1C128.759 184.1 128.561 184.023 128.408 183.871C128.255 183.703 128.179 183.489 128.179 183.23V182.406C127.233 183.535 125.814 184.1 123.922 184.1ZM124.128 182.704C125.318 182.704 126.287 182.482 127.035 182.04C127.782 181.582 128.156 180.995 128.156 180.278C128.156 179.561 127.805 179.011 127.103 178.63C126.417 178.233 125.44 178.035 124.174 178.035C123.106 178.035 122.282 178.241 121.702 178.653C121.123 179.05 120.833 179.629 120.833 180.392C120.833 181.14 121.115 181.712 121.68 182.109C122.244 182.505 123.06 182.704 124.128 182.704ZM133.767 184.1C133.508 184.1 133.302 184.023 133.149 183.871C133.012 183.703 132.943 183.474 132.943 183.184V173.343C132.943 173.054 133.012 172.832 133.149 172.68C133.287 172.512 133.493 172.428 133.767 172.428C134.027 172.428 134.225 172.512 134.362 172.68C134.515 172.832 134.591 173.054 134.591 173.343V174.717C135.629 173.343 137.063 172.657 138.894 172.657H139.466C139.756 172.657 139.984 172.725 140.152 172.863C140.32 172.985 140.404 173.16 140.404 173.389C140.404 173.618 140.32 173.793 140.152 173.916C139.984 174.038 139.756 174.099 139.466 174.099H138.825C137.528 174.099 136.498 174.472 135.735 175.22C134.988 175.952 134.614 176.952 134.614 178.218V183.184C134.614 183.459 134.538 183.68 134.385 183.848C134.248 184.016 134.042 184.1 133.767 184.1ZM147.085 184.1C145.193 184.1 143.697 183.589 142.599 182.566C141.516 181.529 140.974 180.118 140.974 178.332C140.974 177.203 141.211 176.196 141.683 175.312C142.172 174.411 142.874 173.71 143.789 173.206C144.72 172.687 145.833 172.428 147.13 172.428C148.229 172.428 149.16 172.634 149.922 173.046C150.7 173.458 151.387 174.03 151.982 174.762L152.005 167.416C152.005 167.126 152.074 166.905 152.211 166.752C152.364 166.584 152.577 166.501 152.852 166.501C153.111 166.501 153.309 166.584 153.447 166.752C153.599 166.905 153.676 167.126 153.676 167.416V183.184C153.676 183.474 153.599 183.703 153.447 183.871C153.309 184.023 153.111 184.1 152.852 184.1C152.592 184.1 152.386 184.023 152.234 183.871C152.081 183.703 152.005 183.474 152.005 183.184V181.72C151.471 182.498 150.784 183.093 149.945 183.505C149.121 183.901 148.168 184.1 147.085 184.1ZM147.222 182.658C148.702 182.658 149.869 182.269 150.723 181.491C151.578 180.697 152.005 179.622 152.005 178.264C152.005 177.364 151.784 176.586 151.341 175.929C150.914 175.258 150.334 174.747 149.602 174.396C148.885 174.045 148.099 173.87 147.245 173.87C145.811 173.87 144.689 174.282 143.881 175.106C143.072 175.914 142.668 176.99 142.668 178.332C142.668 179.767 143.064 180.85 143.858 181.582C144.651 182.299 145.772 182.658 147.222 182.658ZM162.464 184.1C160.48 184.1 158.947 183.589 157.864 182.566C156.78 181.544 156.239 180.095 156.239 178.218C156.239 176.418 156.788 175.006 157.886 173.984C158.985 172.947 160.488 172.428 162.395 172.428C163.57 172.428 164.615 172.619 165.53 173C166.446 173.366 167.155 173.893 167.659 174.579C168.177 175.251 168.437 176.021 168.437 176.891C168.437 177.531 168.254 178.027 167.888 178.378C167.537 178.729 167.048 178.905 166.423 178.905H157.955C157.955 180.079 158.352 181.003 159.145 181.674C159.939 182.33 161.045 182.658 162.464 182.658C163.333 182.658 164.081 182.566 164.706 182.383C165.332 182.185 165.919 181.872 166.469 181.445C166.758 181.201 166.995 181.079 167.178 181.079C167.315 181.079 167.445 181.14 167.567 181.262C167.781 181.445 167.888 181.636 167.888 181.834C167.888 181.987 167.796 182.154 167.613 182.338C166.987 182.933 166.255 183.375 165.416 183.665C164.577 183.955 163.593 184.1 162.464 184.1ZM165.919 177.554C166.194 177.554 166.4 177.501 166.537 177.394C166.675 177.272 166.743 177.059 166.743 176.753C166.743 176.204 166.56 175.708 166.194 175.266C165.828 174.823 165.309 174.48 164.638 174.236C163.982 173.992 163.234 173.87 162.395 173.87C161.037 173.87 159.961 174.205 159.168 174.877C158.39 175.533 158.001 176.425 158.001 177.554H165.919ZM171.873 184.1C171.613 184.1 171.408 184.023 171.255 183.871C171.118 183.703 171.049 183.474 171.049 183.184V173.343C171.049 173.054 171.118 172.832 171.255 172.68C171.392 172.512 171.598 172.428 171.873 172.428C172.132 172.428 172.331 172.512 172.468 172.68C172.62 172.832 172.697 173.054 172.697 173.343V174.694C173.261 173.946 173.94 173.382 174.734 173C175.542 172.619 176.427 172.428 177.388 172.428C178.838 172.428 179.952 172.832 180.73 173.641C181.523 174.45 181.92 175.609 181.92 177.12V183.184C181.92 183.474 181.843 183.703 181.691 183.871C181.538 184.023 181.332 184.1 181.073 184.1C180.798 184.1 180.592 184.023 180.455 183.871C180.318 183.703 180.249 183.474 180.249 183.184V177.12C180.249 174.953 179.227 173.87 177.182 173.87C175.84 173.87 174.756 174.266 173.933 175.06C173.124 175.853 172.72 176.906 172.72 178.218V183.184C172.72 183.459 172.643 183.68 172.491 183.848C172.353 184.016 172.147 184.1 171.873 184.1Z" fill="black" fill-opacity="0.87"/>
  <path d="M26.7684 183.871C25.8377 183.871 25.113 183.627 24.5942 183.139C24.0755 182.635 23.8161 181.948 23.8161 181.079V170.597C23.8161 169.743 24.0679 169.071 24.5714 168.583C25.0901 168.095 25.8072 167.851 26.7226 167.851H29.9266C31.5134 167.851 32.8941 168.186 34.0689 168.858C35.259 169.514 36.1744 170.445 36.8152 171.65C37.456 172.855 37.7764 174.266 37.7764 175.884C37.7764 177.501 37.456 178.912 36.8152 180.118C36.1744 181.308 35.259 182.231 34.0689 182.887C32.8941 183.543 31.5134 183.871 29.9266 183.871H26.7684ZM29.6978 182.452C31.7117 182.452 33.2679 181.88 34.3665 180.736C35.4802 179.591 36.0371 177.974 36.0371 175.884C36.0371 173.793 35.4802 172.169 34.3665 171.009C33.2527 169.85 31.6965 169.27 29.6978 169.27H26.7455C26.3793 169.27 26.0818 169.392 25.853 169.636C25.6394 169.88 25.5326 170.2 25.5326 170.597V181.125C25.5326 181.521 25.6394 181.842 25.853 182.086C26.0818 182.33 26.3793 182.452 26.7455 182.452H29.6978ZM41.898 170.002C41.5624 170.002 41.2725 169.895 41.0284 169.682C40.7995 169.453 40.6851 169.178 40.6851 168.858C40.6851 168.537 40.7995 168.263 41.0284 168.034C41.2725 167.805 41.5624 167.691 41.898 167.691C42.2337 167.691 42.5236 167.813 42.7677 168.057C43.0271 168.286 43.1567 168.553 43.1567 168.858C43.1567 169.163 43.0271 169.43 42.7677 169.659C42.5236 169.888 42.2337 170.002 41.898 170.002ZM41.898 184.1C41.6386 184.1 41.4327 184.023 41.2801 183.871C41.1428 183.703 41.0741 183.474 41.0741 183.184V173.343C41.0741 173.054 41.1428 172.832 41.2801 172.68C41.4327 172.512 41.6386 172.428 41.898 172.428C42.1726 172.428 42.3786 172.512 42.5159 172.68C42.6685 172.832 42.7448 173.054 42.7448 173.343V183.184C42.7448 183.474 42.6685 183.703 42.5159 183.871C42.3786 184.023 42.1726 184.1 41.898 184.1ZM52.311 189.615C51.2125 189.615 50.2208 189.455 49.3359 189.135C48.451 188.814 47.7339 188.349 47.1846 187.739C47.0626 187.616 47.0015 187.464 47.0015 187.281C47.0015 187.052 47.1236 186.854 47.3677 186.686C47.5203 186.579 47.6652 186.526 47.8025 186.526C48.0314 186.526 48.2603 186.648 48.4891 186.892C48.8553 187.288 49.3435 187.609 49.9538 187.853C50.5641 188.097 51.2964 188.219 52.1508 188.219C53.646 188.219 54.7903 187.861 55.5837 187.144C56.3771 186.426 56.7738 185.389 56.7738 184.031V181.88C56.255 182.566 55.5761 183.131 54.7369 183.573C53.8978 184.001 52.9213 184.214 51.8076 184.214C49.8699 184.214 48.3747 183.695 47.3219 182.658C46.2692 181.62 45.7428 180.232 45.7428 178.493C45.7428 177.318 45.9717 176.28 46.4294 175.38C46.9024 174.465 47.6042 173.748 48.5349 173.229C49.4656 172.695 50.6099 172.428 51.9678 172.428C52.9747 172.428 53.8825 172.634 54.6912 173.046C55.4998 173.458 56.194 174.045 56.7738 174.808V173.298C56.7738 173.054 56.85 172.848 57.0026 172.68C57.1704 172.512 57.3764 172.428 57.6205 172.428C57.8647 172.428 58.063 172.512 58.2156 172.68C58.3681 172.832 58.4444 173.038 58.4444 173.298V184.031C58.4444 185.175 58.1851 186.167 57.6663 187.006C57.1628 187.845 56.4457 188.486 55.515 188.929C54.5844 189.386 53.5164 189.615 52.311 189.615ZM51.9678 182.727C52.7916 182.727 53.5621 182.566 54.2792 182.246C55.0116 181.926 55.6066 181.437 56.0643 180.781C56.522 180.11 56.7509 179.294 56.7509 178.332C56.7509 177.478 56.5678 176.715 56.2016 176.044C55.8354 175.373 55.3014 174.846 54.5996 174.465C53.8978 174.068 53.0586 173.87 52.0822 173.87C50.6022 173.87 49.4579 174.274 48.6493 175.083C47.8407 175.876 47.4364 177.013 47.4364 178.493C47.4364 179.805 47.8178 180.842 48.5807 181.605C49.3588 182.353 50.4878 182.727 51.9678 182.727ZM62.7723 170.002C62.4367 170.002 62.1468 169.895 61.9027 169.682C61.6738 169.453 61.5594 169.178 61.5594 168.858C61.5594 168.537 61.6738 168.263 61.9027 168.034C62.1468 167.805 62.4367 167.691 62.7723 167.691C63.108 167.691 63.3979 167.813 63.642 168.057C63.9014 168.286 64.0311 168.553 64.0311 168.858C64.0311 169.163 63.9014 169.43 63.642 169.659C63.3979 169.888 63.108 170.002 62.7723 170.002ZM62.7723 184.1C62.513 184.1 62.307 184.023 62.1544 183.871C62.0171 183.703 61.9484 183.474 61.9484 183.184V173.343C61.9484 173.054 62.0171 172.832 62.1544 172.68C62.307 172.512 62.513 172.428 62.7723 172.428C63.047 172.428 63.2529 172.512 63.3902 172.68C63.5428 172.832 63.6191 173.054 63.6191 173.343V183.184C63.6191 183.474 63.5428 183.703 63.3902 183.871C63.2529 184.023 63.047 184.1 62.7723 184.1ZM74.9018 181.605C75.0696 181.742 75.1535 181.903 75.1535 182.086C75.1535 182.238 75.0849 182.421 74.9476 182.635C74.6272 183.077 74.1847 183.436 73.6202 183.711C73.0557 183.97 72.4759 184.1 71.8809 184.1C70.8739 184.1 70.0805 183.802 69.5007 183.207C68.921 182.612 68.6311 181.796 68.6311 180.758V174.053H67.3953C66.785 174.053 66.4798 173.816 66.4798 173.343C66.4798 173.13 66.5561 172.962 66.7087 172.84C66.8765 172.718 67.1054 172.657 67.3953 172.657H68.6311V168.743C68.6311 168.453 68.6997 168.232 68.8371 168.08C68.9896 167.912 69.2032 167.828 69.4779 167.828C69.7372 167.828 69.9356 167.912 70.0729 168.08C70.2255 168.232 70.3017 168.453 70.3017 168.743V172.657H73.4142C73.6888 172.657 73.9024 172.718 74.055 172.84C74.2228 172.947 74.3068 173.115 74.3068 173.343C74.3068 173.816 74.0092 174.053 73.4142 174.053H70.3017V180.896C70.3017 182.071 70.851 182.658 71.9495 182.658C72.3004 182.658 72.6208 182.589 72.9107 182.452C73.2006 182.315 73.4905 182.093 73.7804 181.788C74.0092 181.544 74.2305 181.422 74.4441 181.422C74.5814 181.422 74.734 181.483 74.9018 181.605ZM81.7938 184.1C80.2986 184.1 79.1238 183.772 78.2694 183.116C77.4302 182.46 77.0107 181.552 77.0107 180.392C77.0107 179.248 77.4531 178.34 78.338 177.669C79.2382 176.997 80.4588 176.662 81.9998 176.662C82.8999 176.662 83.6933 176.784 84.3799 177.028C85.0817 177.272 85.6233 177.6 86.0048 178.012V176.547C86.0048 175.678 85.7149 175.014 85.1351 174.556C84.5706 174.099 83.7391 173.87 82.6406 173.87C81.2217 173.87 79.9934 174.205 78.956 174.877C78.6966 175.029 78.483 175.106 78.3152 175.106C78.1626 175.106 78.01 175.045 77.8574 174.923C77.6896 174.785 77.6057 174.61 77.6057 174.396C77.6057 174.167 77.7049 173.977 77.9032 173.824C78.4525 173.397 79.1467 173.061 79.9858 172.817C80.8402 172.558 81.7099 172.428 82.5948 172.428C84.2121 172.428 85.4631 172.794 86.3481 173.526C87.2482 174.259 87.6983 175.289 87.6983 176.616V183.207C87.6983 183.802 87.4237 184.1 86.8744 184.1C86.6303 184.1 86.432 184.023 86.2794 183.871C86.1268 183.703 86.0505 183.489 86.0505 183.23V182.406C85.1046 183.535 83.6857 184.1 81.7938 184.1ZM81.9998 182.704C83.1898 182.704 84.1587 182.482 84.9063 182.04C85.6539 181.582 86.0277 180.995 86.0277 180.278C86.0277 179.561 85.6767 179.011 84.9749 178.63C84.2883 178.233 83.3119 178.035 82.0455 178.035C80.9775 178.035 80.1536 178.241 79.5739 178.653C78.9941 179.05 78.7042 179.629 78.7042 180.392C78.7042 181.14 78.9865 181.712 79.551 182.109C80.1155 182.505 80.9318 182.704 81.9998 182.704ZM92.0963 184.1C91.8369 184.1 91.631 184.023 91.4784 183.871C91.3411 183.703 91.2724 183.474 91.2724 183.184V167.416C91.2724 167.126 91.3411 166.905 91.4784 166.752C91.631 166.584 91.8369 166.501 92.0963 166.501C92.3557 166.501 92.5617 166.584 92.7142 166.752C92.8668 166.905 92.9431 167.126 92.9431 167.416V183.184C92.9431 183.459 92.8668 183.68 92.7142 183.848C92.5769 184.016 92.3709 184.1 92.0963 184.1ZM110.393 184.1C108.775 184.1 107.364 183.764 106.159 183.093C104.953 182.421 104.023 181.468 103.367 180.232C102.711 178.981 102.383 177.531 102.383 175.884C102.383 174.236 102.711 172.787 103.367 171.535C104.023 170.284 104.953 169.323 106.159 168.652C107.379 167.965 108.791 167.622 110.393 167.622C111.689 167.622 112.895 167.843 114.009 168.286C115.138 168.728 116 169.338 116.595 170.117C116.732 170.269 116.801 170.452 116.801 170.666C116.801 170.91 116.694 171.101 116.48 171.238C116.343 171.329 116.19 171.375 116.022 171.375C115.885 171.375 115.748 171.345 115.611 171.284C115.473 171.207 115.359 171.116 115.267 171.009C114.794 170.414 114.138 169.949 113.299 169.613C112.46 169.262 111.491 169.087 110.393 169.087C109.111 169.087 107.997 169.361 107.051 169.911C106.105 170.46 105.381 171.246 104.877 172.268C104.374 173.29 104.122 174.495 104.122 175.884C104.122 177.989 104.679 179.645 105.793 180.85C106.906 182.04 108.44 182.635 110.393 182.635C111.415 182.635 112.323 182.475 113.116 182.154C113.909 181.819 114.527 181.361 114.97 180.781C115.427 180.186 115.656 179.515 115.656 178.767V177.989C115.656 177.577 115.572 177.28 115.405 177.097C115.252 176.914 114.954 176.822 114.512 176.822H111.033C110.454 176.822 110.164 176.593 110.164 176.135C110.164 175.647 110.454 175.403 111.033 175.403H114.81C115.679 175.403 116.328 175.594 116.755 175.975C117.182 176.357 117.396 176.944 117.396 177.737V178.607C117.396 179.629 117.09 180.56 116.48 181.399C115.87 182.238 115.031 182.902 113.963 183.39C112.895 183.863 111.705 184.1 110.393 184.1ZM123.922 184.1C122.427 184.1 121.252 183.772 120.398 183.116C119.559 182.46 119.139 181.552 119.139 180.392C119.139 179.248 119.582 178.34 120.467 177.669C121.367 176.997 122.587 176.662 124.128 176.662C125.029 176.662 125.822 176.784 126.508 177.028C127.21 177.272 127.752 177.6 128.133 178.012V176.547C128.133 175.678 127.843 175.014 127.264 174.556C126.699 174.099 125.868 173.87 124.769 173.87C123.35 173.87 122.122 174.205 121.085 174.877C120.825 175.029 120.612 175.106 120.444 175.106C120.291 175.106 120.139 175.045 119.986 174.923C119.818 174.785 119.734 174.61 119.734 174.396C119.734 174.167 119.833 173.977 120.032 173.824C120.581 173.397 121.275 173.061 122.114 172.817C122.969 172.558 123.838 172.428 124.723 172.428C126.341 172.428 127.592 172.794 128.477 173.526C129.377 174.259 129.827 175.289 129.827 176.616V183.207C129.827 183.802 129.552 184.1 129.003 184.1C128.759 184.1 128.561 184.023 128.408 183.871C128.255 183.703 128.179 183.489 128.179 183.23V182.406C127.233 183.535 125.814 184.1 123.922 184.1ZM124.128 182.704C125.318 182.704 126.287 182.482 127.035 182.04C127.782 181.582 128.156 180.995 128.156 180.278C128.156 179.561 127.805 179.011 127.103 178.63C126.417 178.233 125.44 178.035 124.174 178.035C123.106 178.035 122.282 178.241 121.702 178.653C121.123 179.05 120.833 179.629 120.833 180.392C120.833 181.14 121.115 181.712 121.68 182.109C122.244 182.505 123.06 182.704 124.128 182.704ZM133.767 184.1C133.508 184.1 133.302 184.023 133.149 183.871C133.012 183.703 132.943 183.474 132.943 183.184V173.343C132.943 173.054 133.012 172.832 133.149 172.68C133.287 172.512 133.493 172.428 133.767 172.428C134.027 172.428 134.225 172.512 134.362 172.68C134.515 172.832 134.591 173.054 134.591 173.343V174.717C135.629 173.343 137.063 172.657 138.894 172.657H139.466C139.756 172.657 139.984 172.725 140.152 172.863C140.32 172.985 140.404 173.16 140.404 173.389C140.404 173.618 140.32 173.793 140.152 173.916C139.984 174.038 139.756 174.099 139.466 174.099H138.825C137.528 174.099 136.498 174.472 135.735 175.22C134.988 175.952 134.614 176.952 134.614 178.218V183.184C134.614 183.459 134.538 183.68 134.385 183.848C134.248 184.016 134.042 184.1 133.767 184.1ZM147.085 184.1C145.193 184.1 143.697 183.589 142.599 182.566C141.516 181.529 140.974 180.118 140.974 178.332C140.974 177.203 141.211 176.196 141.683 175.312C142.172 174.411 142.874 173.71 143.789 173.206C144.72 172.687 145.833 172.428 147.13 172.428C148.229 172.428 149.16 172.634 149.922 173.046C150.7 173.458 151.387 174.03 151.982 174.762L152.005 167.416C152.005 167.126 152.074 166.905 152.211 166.752C152.364 166.584 152.577 166.501 152.852 166.501C153.111 166.501 153.309 166.584 153.447 166.752C153.599 166.905 153.676 167.126 153.676 167.416V183.184C153.676 183.474 153.599 183.703 153.447 183.871C153.309 184.023 153.111 184.1 152.852 184.1C152.592 184.1 152.386 184.023 152.234 183.871C152.081 183.703 152.005 183.474 152.005 183.184V181.72C151.471 182.498 150.784 183.093 149.945 183.505C149.121 183.901 148.168 184.1 147.085 184.1ZM147.222 182.658C148.702 182.658 149.869 182.269 150.723 181.491C151.578 180.697 152.005 179.622 152.005 178.264C152.005 177.364 151.784 176.586 151.341 175.929C150.914 175.258 150.334 174.747 149.602 174.396C148.885 174.045 148.099 173.87 147.245 173.87C145.811 173.87 144.689 174.282 143.881 175.106C143.072 175.914 142.668 176.99 142.668 178.332C142.668 179.767 143.064 180.85 143.858 181.582C144.651 182.299 145.772 182.658 147.222 182.658ZM162.464 184.1C160.48 184.1 158.947 183.589 157.864 182.566C156.78 181.544 156.239 180.095 156.239 178.218C156.239 176.418 156.788 175.006 157.886 173.984C158.985 172.947 160.488 172.428 162.395 172.428C163.57 172.428 164.615 172.619 165.53 173C166.446 173.366 167.155 173.893 167.659 174.579C168.177 175.251 168.437 176.021 168.437 176.891C168.437 177.531 168.254 178.027 167.888 178.378C167.537 178.729 167.048 178.905 166.423 178.905H157.955C157.955 180.079 158.352 181.003 159.145 181.674C159.939 182.33 161.045 182.658 162.464 182.658C163.333 182.658 164.081 182.566 164.706 182.383C165.332 182.185 165.919 181.872 166.469 181.445C166.758 181.201 166.995 181.079 167.178 181.079C167.315 181.079 167.445 181.14 167.567 181.262C167.781 181.445 167.888 181.636 167.888 181.834C167.888 181.987 167.796 182.154 167.613 182.338C166.987 182.933 166.255 183.375 165.416 183.665C164.577 183.955 163.593 184.1 162.464 184.1ZM165.919 177.554C166.194 177.554 166.4 177.501 166.537 177.394C166.675 177.272 166.743 177.059 166.743 176.753C166.743 176.204 166.56 175.708 166.194 175.266C165.828 174.823 165.309 174.48 164.638 174.236C163.982 173.992 163.234 173.87 162.395 173.87C161.037 173.87 159.961 174.205 159.168 174.877C158.39 175.533 158.001 176.425 158.001 177.554H165.919ZM171.873 184.1C171.613 184.1 171.408 184.023 171.255 183.871C171.118 183.703 171.049 183.474 171.049 183.184V173.343C171.049 173.054 171.118 172.832 171.255 172.68C171.392 172.512 171.598 172.428 171.873 172.428C172.132 172.428 172.331 172.512 172.468 172.68C172.62 172.832 172.697 173.054 172.697 173.343V174.694C173.261 173.946 173.94 173.382 174.734 173C175.542 172.619 176.427 172.428 177.388 172.428C178.838 172.428 179.952 172.832 180.73 173.641C181.523 174.45 181.92 175.609 181.92 177.12V183.184C181.92 183.474 181.843 183.703 181.691 183.871C181.538 184.023 181.332 184.1 181.073 184.1C180.798 184.1 180.592 184.023 180.455 183.871C180.318 183.703 180.249 183.474 180.249 183.184V177.12C180.249 174.953 179.227 173.87 177.182 173.87C175.84 173.87 174.756 174.266 173.933 175.06C173.124 175.853 172.72 176.906 172.72 178.218V183.184C172.72 183.459 172.643 183.68 172.491 183.848C172.353 184.016 172.147 184.1 171.873 184.1Z" fill="url(#paint0_linear)"/>
  <path fill-rule="evenodd" clip-rule="evenodd" d="M62.7275 67.3745H2.6455C1.61667 67.3745 0.782636 68.0133 0.782636 68.8012V210.449C0.782636 211.237 1.61667 211.876 2.6455 211.876H296.046C297.075 211.876 297.909 211.237 297.909 210.449V68.8012C297.909 68.0133 297.075 67.3745 296.046 67.3745H102.43V68.1896H296.046C296.487 68.1896 296.845 68.4634 296.845 68.8011V210.449C296.845 210.787 296.487 211.061 296.046 211.061H2.64552C2.20459 211.061 1.84715 210.787 1.84715 210.449V68.8011C1.84715 68.4634 2.20459 68.1896 2.64552 68.1896H62.009L62.7275 67.3745Z" fill="url(#paint1_linear)"/>
  <path d="M63.3761 127.022C63.3998 127.534 63.4278 127.911 63.4605 128.012C63.4605 127.703 63.4306 127.372 63.3761 127.022Z" fill="url(#paint2_linear)"/>
  <path d="M87.4341 68.265C79.773 72.0955 76.0982 78.1173 72.0135 85.3192C68.2264 91.9964 65.1232 98.7982 64.0327 106.431C63.2503 111.908 63.2061 117.227 63.2731 122.726C63.281 123.371 63.338 127.636 63.4605 128.012C63.4605 125.412 61.3339 121.142 60.2765 118.793C56.5014 110.404 51.431 104.833 43.6073 99.7302M67.2063 93.7368C61.5895 87.8525 59.3999 78.6464 61.5979 70.6787C63.6842 63.1157 71.2204 60.3978 77.9826 57.959L78.0277 57.9427C85.0377 55.4146 91.9008 51.0628 97.4439 46.1848C98.9612 44.8496 100.533 43.0925 101.367 41.2319C101.97 39.8861 102.253 40.4723 102.407 41.7834C103.047 47.223 102.979 52.616 102.979 58.1092C102.979 66.3728 103.266 74.5441 99.7955 82.3534C97.0845 88.4531 92.5007 93.7023 86.6225 97.0248C84.364 98.3014 82.0765 98.4191 79.5469 98.4191C78.0288 98.4191 75.2773 98.0954 73.9489 98.981M56.7178 100.854C56.2439 97.2991 56.1342 95.845 53.5651 93.6536C52.3821 92.6446 51.1806 92.0581 49.7047 91.531C46.6537 90.4413 42.3257 91.0664 39.1122 90.9379C35.5109 90.7938 31.1874 89.922 28.3636 87.4625C27.7965 86.9686 27.2722 86.3766 26.834 85.7665C26.7339 85.6271 26.276 84.3882 26.1889 84.4138C25.3269 84.6673 25.4166 86.8629 25.4813 87.4937C26.2427 94.9174 31.0086 105.348 36.875 110.115C41.6677 114.009 47.7909 114.186 53.3465 111.717M101.107 134.005C97.4116 135.793 93.2199 137.778 89.0574 138.001C80.9301 138.435 76.1799 130.39 68.5799 129.926C64.8961 129.701 62.0713 132.565 58.3203 131.476C56.8826 131.059 56.1359 129.527 54.7617 128.99C49.055 126.757 42.0554 135.646 39.8614 139.624" stroke="url(#paint3_linear)" stroke-width="1.5" stroke-linecap="round" stroke-linejoin="round"/>
  <defs>
    <linearGradient id="paint0_linear" x1="160.497" y1="222.261" x2="-12.442" y2="2.29967" gradientUnits="userSpaceOnUse">
      <stop stop-color="#456563"/>
      <stop offset="0.20711" stop-color="#5A877E"/>
      <stop offset="0.440403" stop-color="#FDC343"/>
      <stop offset="0.700961" stop-color="#E99877"/>
      <stop offset="1" stop-color="#A4574E"/>
    </linearGradient>
    <linearGradient id="paint1_linear" x1="370.626" y1="141.816" x2="295.068" y2="-44.3058" gradientUnits="userSpaceOnUse">
      <stop stop-color="#456563"/>
      <stop offset="0.20711" stop-color="#5A877E"/>
      <stop offset="0.440403" stop-color="#FDC343"/>
      <stop offset="0.700961" stop-color="#E99877"/>
      <stop offset="1" stop-color="#A4574E"/>
    </linearGradient>
    <linearGradient id="paint2_linear" x1="164.192" y1="150.625" x2="62.3869" y2="16.2668" gradientUnits="userSpaceOnUse">
      <stop stop-color="#456563"/>
      <stop offset="0.20711" stop-color="#5A877E"/>
      <stop offset="0.440403" stop-color="#FDC343"/>
      <stop offset="0.700961" stop-color="#E99877"/>
      <stop offset="1" stop-color="#A4574E"/>
    </linearGradient>
    <linearGradient id="paint3_linear" x1="164.192" y1="150.625" x2="62.3869" y2="16.2668" gradientUnits="userSpaceOnUse">
      <stop stop-color="#456563"/>
      <stop offset="0.20711" stop-color="#5A877E"/>
      <stop offset="0.440403" stop-color="#FDC343"/>
      <stop offset="0.700961" stop-color="#E99877"/>
      <stop offset="1" stop-color="#A4574E"/>
    </linearGradient>
  </defs>
</svg>
