<svg width="115" height="115" viewBox="0 0 115 115" fill="none" xmlns="http://www.w3.org/2000/svg">
  <circle cx="57.3604" cy="57.874" r="55" stroke="url(#paint0_linear)" stroke-width="4"/>
  <path d="M41.7369 66.5794C41.6345 65.4088 40.408 64.4754 39.2374 64.5778C38.6177 64.632 38.0535 64.9242 37.6288 65.6205C36.3829 67.6376 33.8881 68.8619 31.2715 69.0908C24.0071 69.7264 21.7538 63.4014 21.5008 60.5094C21.0942 55.8616 23.759 50.6328 29.5774 50.1238C31.7464 49.934 33.9847 50.5361 35.472 52.0712C36.0456 52.6801 36.6894 52.9014 37.3091 52.8471C38.4109 52.7508 39.3249 51.6994 39.2225 50.5288C39.0599 48.6697 35.0645 45.8276 29.5904 46.3065C21.1898 47.0415 16.8479 54.1169 17.4593 61.1059C18.0467 67.8194 23.2173 73.7851 31.79 73.0351C38.1249 72.4808 41.8936 68.3697 41.7369 66.5794ZM52.3888 69.1514C52.4912 70.322 53.5753 70.8169 54.6081 70.7265C55.6754 70.6331 56.6915 69.9545 56.5172 68.7555C56.191 66.2168 55.7547 62.0226 55.3932 57.8912C55.098 54.5172 54.8403 51.1746 54.7043 48.8274C54.6441 48.1389 54.6441 48.1389 58.0525 47.8407C58.8788 47.7684 59.8772 47.681 61.0538 47.6475C61.0882 47.6445 61.1227 47.6414 61.1915 47.6354C62.2932 47.539 62.7658 46.5957 62.6845 45.6661C62.6182 44.9087 62.0712 43.8117 60.7315 43.9636C58.7721 44.1697 55.8487 44.4602 52.9223 44.7162C49.3417 45.0295 45.6893 45.3143 43.6206 45.4606C43.5861 45.4636 43.5861 45.4636 43.5517 45.4667C42.2778 45.5781 41.7364 46.5275 41.8178 47.457C41.8991 48.3866 42.6346 49.2589 43.9429 49.1445C45.561 49.0029 47.1731 48.7925 48.4814 48.678C50.5127 48.5003 50.616 48.4913 50.6762 49.1798C50.9047 50.9985 51.1547 53.8561 51.4198 56.8858C51.8174 61.4304 52.2197 66.4255 52.3858 69.117L52.3888 69.1514ZM92.5644 63.8672C94.4082 51.6331 95.516 43.2794 95.4588 42.6253C95.3624 41.5236 94.2004 40.9314 93.1331 41.0248C92.2724 41.1001 91.4539 41.6574 91.3347 42.6739C89.1732 62.7762 88.9666 62.7943 88.4846 62.8364C88.3125 62.8515 88.1223 62.66 87.9678 62.0837C86.8954 58.1533 84.3065 48.3885 83.2057 44.5299C82.7542 42.9389 81.158 42.1418 79.6432 42.2744C78.2316 42.3979 76.8923 43.3476 76.7107 45.2369C76.2162 49.8942 75.2697 60.4887 74.8656 63.4035C74.8075 63.929 74.5996 64.3288 74.3242 64.3529C73.8422 64.395 73.7552 64.1945 68.5804 44.6993C68.3209 43.7159 67.3462 43.2808 66.3822 43.3652C65.3493 43.4555 64.3363 44.1686 64.4417 45.3736C64.4959 45.9933 65.2068 48.5677 70.4148 65.6663C71.1451 68.0655 72.8687 69.1289 74.5557 68.9813C76.2082 68.8367 77.7898 67.4842 78.1926 64.9511C78.9239 60.62 79.721 50.6977 79.8945 47.5256C79.9302 47.1408 80.0124 46.8908 80.1157 46.8818C80.219 46.8727 80.3373 47.0358 80.4453 47.4774C81.077 50.3362 83.7981 60.818 85.0125 64.3891C85.8521 66.8482 87.5008 67.8488 89.0501 67.7132C90.6682 67.5717 92.2123 66.1877 92.5644 63.8672Z" fill="url(#paint1_linear)"/>
  <defs>
    <linearGradient id="paint0_linear" x1="139.281" y1="59.5421" x2="58.0927" y2="-37.7201" gradientUnits="userSpaceOnUse">
      <stop stop-color="#456563"/>
      <stop offset="0.20711" stop-color="#5A877E"/>
      <stop offset="0.440403" stop-color="#FDC343"/>
      <stop offset="0.700961" stop-color="#E99877"/>
      <stop offset="1" stop-color="#A4574E"/>
    </linearGradient>
    <linearGradient id="paint1_linear" x1="166.345" y1="79.4796" x2="121.799" y2="-14.4754" gradientUnits="userSpaceOnUse">
      <stop stop-color="#456563"/>
      <stop offset="0.20711" stop-color="#5A877E"/>
      <stop offset="0.440403" stop-color="#FDC343"/>
      <stop offset="0.700961" stop-color="#E99877"/>
      <stop offset="1" stop-color="#A4574E"/>
    </linearGradient>
  </defs>
</svg>
