<svg width="304" height="194" viewBox="0 0 304 194" fill="none" xmlns="http://www.w3.org/2000/svg">
  <path d="M51.8846 45.0395C51.8846 44.7881 51.9499 44.541 52.0741 44.322C52.4724 43.6203 53.3672 43.3726 54.0727 43.7688L74.5751 55.2847C75.0359 55.5434 75.3208 56.029 75.3208 56.5553V80.9378C75.3208 81.4659 75.6077 81.9528 76.0708 82.2109L97.8006 94.319C98.2462 94.5673 98.7895 94.5672 99.235 94.3187L120.938 82.211C121.401 81.9528 121.687 81.4661 121.687 80.9383V56.0954C121.687 55.5606 121.981 55.0687 122.454 54.8133L142.984 43.7118C143.199 43.5956 143.44 43.5347 143.684 43.5347C144.494 43.5347 145.151 44.188 145.151 44.9939V93.8667C145.151 94.3931 144.866 94.8788 144.405 95.1375L98.987 120.639C98.5374 120.891 97.9874 120.89 97.539 120.636L52.6244 95.1387C52.167 94.879 51.8846 94.3953 51.8846 93.8713V45.0395Z" stroke="url(#paint0_linear)" stroke-width="1.26231"/>
  <path d="M166.414 116.507C166.191 116.637 165.938 116.705 165.68 116.705C164.872 116.705 164.217 116.05 164.217 115.242V92.1854C164.217 91.6532 164.506 91.163 164.971 90.9051L183.508 80.6287C183.743 80.4985 183.937 80.3061 184.07 80.0726C184.47 79.3701 184.225 78.4764 183.523 78.0765L164.956 67.5004C164.499 67.2401 164.217 66.7545 164.217 66.2284V43.4526C164.217 43.2009 164.282 42.9533 164.405 42.734C164.802 42.0298 165.694 41.7807 166.398 42.1776L207.298 65.2453C207.744 65.4968 208.288 65.4968 208.734 65.2453L249.634 42.1776C249.854 42.054 250.101 41.989 250.353 41.989C251.16 41.989 251.815 42.6443 251.815 43.4526V66.2193C251.815 66.7502 251.528 67.2396 251.064 67.4979L232.388 77.9073C232.146 78.0422 231.947 78.2431 231.815 78.4866C231.429 79.1967 231.691 80.0855 232.401 80.4717L249.73 89.903C250.201 90.1592 250.494 90.6525 250.494 91.1887V113.54C250.494 113.786 250.432 114.028 250.314 114.243C249.926 114.952 249.038 115.212 248.329 114.824L208.374 92.9406C207.925 92.6946 207.38 92.7015 206.938 92.9588L166.414 116.507Z" stroke="url(#paint1_linear)" stroke-width="1.26231"/>
  <path fill-rule="evenodd" clip-rule="evenodd" d="M2.47365 0.934082H301.226C302.274 0.934082 303.123 1.78333 303.123 2.83092V191.16C303.123 192.208 302.274 193.057 301.226 193.057H2.47365C1.42606 193.057 0.576813 192.208 0.576813 191.16V2.83092C0.576813 1.78333 1.42606 0.934082 2.47365 0.934082ZM301.226 2.01791H2.47368C2.02471 2.01791 1.66075 2.38187 1.66075 2.83084V191.16C1.66075 191.609 2.02471 191.973 2.47368 191.973H301.226C301.675 191.973 302.039 191.609 302.039 191.16V2.83084C302.039 2.38187 301.675 2.01791 301.226 2.01791Z" fill="url(#paint2_linear)"/>
  <path d="M23.86 171.563C23.52 171.563 23.25 171.463 23.05 171.263C22.85 171.043 22.75 170.743 22.75 170.363V153.863C22.75 152.743 23.08 151.863 23.74 151.223C24.42 150.583 25.36 150.263 26.56 150.263H31.66C37.36 150.263 40.21 152.653 40.21 157.433C40.21 159.633 39.48 161.333 38.02 162.533C36.58 163.713 34.5 164.303 31.78 164.303H25V170.363C25 170.743 24.9 171.043 24.7 171.263C24.5 171.463 24.22 171.563 23.86 171.563ZM31.78 162.413C33.72 162.413 35.22 162.033 36.28 161.273C37.36 160.513 37.9 159.233 37.9 157.433C37.9 155.553 37.38 154.203 36.34 153.383C35.3 152.543 33.79 152.123 31.81 152.123H26.59C26.11 152.123 25.72 152.283 25.42 152.603C25.14 152.923 25 153.343 25 153.863V162.413H31.78ZM45.0639 171.563C44.7239 171.563 44.4539 171.463 44.2539 171.263C44.0739 171.043 43.9839 170.743 43.9839 170.363V157.463C43.9839 157.083 44.0739 156.793 44.2539 156.593C44.4339 156.373 44.7039 156.263 45.0639 156.263C45.4039 156.263 45.6639 156.373 45.8439 156.593C46.0439 156.793 46.1439 157.083 46.1439 157.463V159.263C47.5039 157.463 49.3839 156.563 51.7839 156.563H52.5339C52.9139 156.563 53.2139 156.653 53.4339 156.833C53.6539 156.993 53.7639 157.223 53.7639 157.523C53.7639 157.823 53.6539 158.053 53.4339 158.213C53.2139 158.373 52.9139 158.453 52.5339 158.453H51.6939C49.9939 158.453 48.6439 158.943 47.6439 159.923C46.6639 160.883 46.1739 162.193 46.1739 163.853V170.363C46.1739 170.723 46.0739 171.013 45.8739 171.233C45.6939 171.453 45.4239 171.563 45.0639 171.563ZM63.0254 171.563C61.2854 171.563 59.7954 171.213 58.5554 170.513C57.3154 169.813 56.3754 168.883 55.7354 167.723C55.1154 166.543 54.8054 165.273 54.8054 163.913C54.8054 162.553 55.1154 161.293 55.7354 160.133C56.3754 158.953 57.3154 158.013 58.5554 157.313C59.7954 156.613 61.2854 156.263 63.0254 156.263C64.7654 156.263 66.2454 156.613 67.4654 157.313C68.7054 158.013 69.6354 158.953 70.2554 160.133C70.8954 161.293 71.2154 162.553 71.2154 163.913C71.2154 165.273 70.8954 166.543 70.2554 167.723C69.6354 168.883 68.7054 169.813 67.4654 170.513C66.2454 171.213 64.7654 171.563 63.0254 171.563ZM63.0254 169.673C64.8254 169.673 66.2654 169.163 67.3454 168.143C68.4454 167.123 68.9954 165.713 68.9954 163.913C68.9954 162.113 68.4454 160.703 67.3454 159.683C66.2654 158.663 64.8254 158.153 63.0254 158.153C61.2054 158.153 59.7454 158.663 58.6454 159.683C57.5654 160.703 57.0254 162.113 57.0254 163.913C57.0254 165.713 57.5654 167.123 58.6454 168.143C59.7454 169.163 61.2054 169.673 63.0254 169.673ZM81.857 171.563C79.377 171.563 77.417 170.893 75.977 169.553C74.557 168.193 73.847 166.343 73.847 164.003C73.847 162.523 74.157 161.203 74.777 160.043C75.417 158.863 76.337 157.943 77.537 157.283C78.757 156.603 80.217 156.263 81.917 156.263C83.357 156.263 84.577 156.533 85.577 157.073C86.597 157.613 87.497 158.363 88.277 159.323L88.307 149.693C88.307 149.313 88.397 149.023 88.577 148.823C88.777 148.603 89.057 148.493 89.417 148.493C89.757 148.493 90.017 148.603 90.197 148.823C90.397 149.023 90.497 149.313 90.497 149.693V170.363C90.497 170.743 90.397 171.043 90.197 171.263C90.017 171.463 89.757 171.563 89.417 171.563C89.077 171.563 88.807 171.463 88.607 171.263C88.407 171.043 88.307 170.743 88.307 170.363V168.443C87.607 169.463 86.707 170.243 85.607 170.783C84.527 171.303 83.277 171.563 81.857 171.563ZM82.037 169.673C83.977 169.673 85.507 169.163 86.627 168.143C87.747 167.103 88.307 165.693 88.307 163.913C88.307 162.733 88.017 161.713 87.437 160.853C86.877 159.973 86.117 159.303 85.157 158.843C84.217 158.383 83.187 158.153 82.067 158.153C80.187 158.153 78.717 158.693 77.657 159.773C76.597 160.833 76.067 162.243 76.067 164.003C76.067 165.883 76.587 167.303 77.627 168.263C78.667 169.203 80.137 169.673 82.037 169.673ZM100.817 171.563C98.8568 171.563 97.3168 171.003 96.1968 169.883C95.0968 168.763 94.5468 167.203 94.5468 165.203V157.463C94.5468 157.083 94.6468 156.793 94.8468 156.593C95.0468 156.373 95.3168 156.263 95.6568 156.263C95.9968 156.263 96.2568 156.373 96.4368 156.593C96.6368 156.793 96.7368 157.083 96.7368 157.463V165.203C96.7368 166.623 97.1168 167.723 97.8768 168.503C98.6368 169.283 99.6968 169.673 101.057 169.673C102.137 169.673 103.097 169.433 103.937 168.953C104.777 168.473 105.427 167.803 105.887 166.943C106.367 166.083 106.607 165.093 106.607 163.973V157.463C106.607 157.083 106.697 156.793 106.877 156.593C107.077 156.373 107.357 156.263 107.717 156.263C108.057 156.263 108.317 156.373 108.497 156.593C108.697 156.793 108.797 157.083 108.797 157.463V170.363C108.797 170.743 108.697 171.043 108.497 171.263C108.317 171.463 108.057 171.563 107.717 171.563C107.357 171.563 107.077 171.453 106.877 171.233C106.697 171.013 106.607 170.723 106.607 170.363V168.593C105.867 169.553 105.007 170.293 104.027 170.813C103.047 171.313 101.977 171.563 100.817 171.563ZM120.297 171.563C118.697 171.563 117.287 171.253 116.067 170.633C114.847 169.993 113.907 169.093 113.247 167.933C112.587 166.773 112.257 165.423 112.257 163.883C112.257 162.363 112.587 161.033 113.247 159.893C113.907 158.733 114.847 157.843 116.067 157.223C117.287 156.583 118.697 156.263 120.297 156.263C121.797 156.263 123.097 156.473 124.197 156.893C125.297 157.313 126.167 157.933 126.807 158.753C126.967 158.973 127.047 159.183 127.047 159.383C127.047 159.683 126.897 159.953 126.597 160.193C126.457 160.313 126.277 160.373 126.057 160.373C125.717 160.373 125.397 160.223 125.097 159.923C124.037 158.743 122.437 158.153 120.297 158.153C118.437 158.153 116.997 158.653 115.977 159.653C114.977 160.633 114.477 162.043 114.477 163.883C114.477 165.703 114.987 167.123 116.007 168.143C117.027 169.163 118.457 169.673 120.297 169.673C121.317 169.673 122.257 169.523 123.117 169.223C123.977 168.903 124.687 168.453 125.247 167.873C125.587 167.533 125.907 167.363 126.207 167.363C126.387 167.363 126.587 167.443 126.807 167.603C127.087 167.843 127.227 168.103 127.227 168.383C127.227 168.643 127.117 168.863 126.897 169.043C125.917 169.923 124.897 170.563 123.837 170.963C122.777 171.363 121.597 171.563 120.297 171.563ZM139.902 168.293C140.122 168.473 140.232 168.683 140.232 168.923C140.232 169.123 140.142 169.363 139.962 169.643C139.542 170.223 138.962 170.693 138.222 171.053C137.482 171.393 136.722 171.563 135.942 171.563C134.622 171.563 133.582 171.173 132.822 170.393C132.062 169.613 131.682 168.543 131.682 167.183V158.393H130.062C129.262 158.393 128.862 158.083 128.862 157.463C128.862 157.183 128.962 156.963 129.162 156.803C129.382 156.643 129.682 156.563 130.062 156.563H131.682V151.433C131.682 151.053 131.772 150.763 131.952 150.563C132.152 150.343 132.432 150.233 132.792 150.233C133.132 150.233 133.392 150.343 133.572 150.563C133.772 150.763 133.872 151.053 133.872 151.433V156.563H137.952C138.312 156.563 138.592 156.643 138.792 156.803C139.012 156.943 139.122 157.163 139.122 157.463C139.122 158.083 138.732 158.393 137.952 158.393H133.872V167.363C133.872 168.903 134.592 169.673 136.032 169.673C136.492 169.673 136.912 169.583 137.292 169.403C137.672 169.223 138.052 168.933 138.432 168.533C138.732 168.213 139.022 168.053 139.302 168.053C139.482 168.053 139.682 168.133 139.902 168.293ZM155.643 171.263C154.423 171.263 153.473 170.943 152.793 170.303C152.113 169.643 151.773 168.743 151.773 167.603V153.863C151.773 152.743 152.103 151.863 152.763 151.223C153.443 150.583 154.383 150.263 155.583 150.263H159.783C161.863 150.263 163.673 150.703 165.213 151.583C166.773 152.443 167.973 153.663 168.813 155.243C169.653 156.823 170.073 158.673 170.073 160.793C170.073 162.913 169.653 164.763 168.813 166.343C167.973 167.903 166.773 169.113 165.213 169.973C163.673 170.833 161.863 171.263 159.783 171.263H155.643ZM159.483 169.403C162.123 169.403 164.163 168.653 165.603 167.153C167.063 165.653 167.793 163.533 167.793 160.793C167.793 158.053 167.063 155.923 165.603 154.403C164.143 152.883 162.103 152.123 159.483 152.123H155.613C155.133 152.123 154.743 152.283 154.443 152.603C154.163 152.923 154.023 153.343 154.023 153.863V167.663C154.023 168.183 154.163 168.603 154.443 168.923C154.743 169.243 155.133 169.403 155.613 169.403H159.483ZM181.206 171.563C178.606 171.563 176.596 170.893 175.176 169.553C173.756 168.213 173.046 166.313 173.046 163.853C173.046 161.493 173.766 159.643 175.206 158.303C176.646 156.943 178.616 156.263 181.116 156.263C182.656 156.263 184.026 156.513 185.226 157.013C186.426 157.493 187.356 158.183 188.016 159.083C188.696 159.963 189.036 160.973 189.036 162.113C189.036 162.953 188.796 163.603 188.316 164.063C187.856 164.523 187.216 164.753 186.396 164.753H175.296C175.296 166.293 175.816 167.503 176.856 168.383C177.896 169.243 179.346 169.673 181.206 169.673C182.346 169.673 183.326 169.553 184.146 169.313C184.966 169.053 185.736 168.643 186.456 168.083C186.836 167.763 187.146 167.603 187.386 167.603C187.566 167.603 187.736 167.683 187.896 167.843C188.176 168.083 188.316 168.333 188.316 168.593C188.316 168.793 188.196 169.013 187.956 169.253C187.136 170.033 186.176 170.613 185.076 170.993C183.976 171.373 182.686 171.563 181.206 171.563ZM185.736 162.983C186.096 162.983 186.366 162.913 186.546 162.773C186.726 162.613 186.816 162.333 186.816 161.933C186.816 161.213 186.576 160.563 186.096 159.983C185.616 159.403 184.936 158.953 184.056 158.633C183.196 158.313 182.216 158.153 181.116 158.153C179.336 158.153 177.926 158.593 176.886 159.473C175.866 160.333 175.356 161.503 175.356 162.983H185.736ZM198.82 171.563C197.42 171.563 196.1 171.303 194.86 170.783C193.62 170.243 192.64 169.503 191.92 168.563C191.78 168.363 191.71 168.163 191.71 167.963C191.71 167.763 191.76 167.593 191.86 167.453C191.98 167.293 192.13 167.173 192.31 167.093C192.47 167.033 192.6 167.003 192.7 167.003C192.88 167.003 193.03 167.053 193.15 167.153C193.29 167.233 193.45 167.373 193.63 167.573C194.93 168.953 196.66 169.643 198.82 169.643C199.86 169.643 200.7 169.463 201.34 169.103C201.98 168.743 202.3 168.243 202.3 167.603C202.3 167.143 202.17 166.773 201.91 166.493C201.67 166.193 201.25 165.923 200.65 165.683C200.07 165.423 199.11 165.063 197.77 164.603C196.47 164.163 195.45 163.743 194.71 163.343C193.97 162.943 193.42 162.493 193.06 161.993C192.7 161.473 192.52 160.843 192.52 160.103C192.52 158.943 193.02 158.013 194.02 157.313C195.04 156.613 196.39 156.263 198.07 156.263C199.31 156.263 200.46 156.483 201.52 156.923C202.58 157.343 203.38 157.913 203.92 158.633C204.08 158.853 204.16 159.063 204.16 159.263C204.16 159.563 204 159.803 203.68 159.983C203.48 160.103 203.28 160.163 203.08 160.163C202.74 160.163 202.42 160.013 202.12 159.713C201.6 159.193 201.03 158.813 200.41 158.573C199.79 158.313 199 158.183 198.04 158.183C196.98 158.183 196.17 158.353 195.61 158.693C195.05 159.033 194.77 159.513 194.77 160.133C194.77 160.593 194.88 160.963 195.1 161.243C195.34 161.503 195.71 161.743 196.21 161.963C196.73 162.163 197.63 162.473 198.91 162.893C200.35 163.373 201.46 163.833 202.24 164.273C203.04 164.693 203.61 165.163 203.95 165.683C204.31 166.203 204.49 166.843 204.49 167.603C204.49 168.803 203.96 169.763 202.9 170.483C201.86 171.203 200.5 171.563 198.82 171.563ZM209.548 153.083C209.108 153.083 208.728 152.943 208.408 152.663C208.108 152.363 207.958 152.003 207.958 151.583C207.958 151.163 208.108 150.803 208.408 150.503C208.728 150.203 209.108 150.053 209.548 150.053C209.988 150.053 210.368 150.213 210.688 150.533C211.028 150.833 211.198 151.183 211.198 151.583C211.198 151.983 211.028 152.333 210.688 152.633C210.368 152.933 209.988 153.083 209.548 153.083ZM209.548 171.563C209.208 171.563 208.938 171.463 208.738 171.263C208.558 171.043 208.468 170.743 208.468 170.363V157.463C208.468 157.083 208.558 156.793 208.738 156.593C208.938 156.373 209.208 156.263 209.548 156.263C209.908 156.263 210.178 156.373 210.358 156.593C210.558 156.793 210.658 157.083 210.658 157.463V170.363C210.658 170.743 210.558 171.043 210.358 171.263C210.178 171.463 209.908 171.563 209.548 171.563ZM223.198 178.793C221.758 178.793 220.458 178.583 219.298 178.163C218.138 177.743 217.198 177.133 216.478 176.333C216.318 176.173 216.238 175.973 216.238 175.733C216.238 175.433 216.398 175.173 216.718 174.953C216.918 174.813 217.108 174.743 217.288 174.743C217.588 174.743 217.888 174.903 218.188 175.223C218.668 175.743 219.308 176.163 220.108 176.483C220.908 176.803 221.868 176.963 222.988 176.963C224.948 176.963 226.448 176.493 227.488 175.553C228.528 174.613 229.048 173.253 229.048 171.473V168.653C228.368 169.553 227.478 170.293 226.378 170.873C225.278 171.433 223.998 171.713 222.538 171.713C219.998 171.713 218.038 171.033 216.658 169.673C215.278 168.313 214.588 166.493 214.588 164.213C214.588 162.673 214.888 161.313 215.488 160.133C216.108 158.933 217.028 157.993 218.248 157.313C219.468 156.613 220.968 156.263 222.748 156.263C224.068 156.263 225.258 156.533 226.318 157.073C227.378 157.613 228.288 158.383 229.048 159.383V157.403C229.048 157.083 229.148 156.813 229.348 156.593C229.568 156.373 229.838 156.263 230.158 156.263C230.478 156.263 230.738 156.373 230.938 156.593C231.138 156.793 231.238 157.063 231.238 157.403V171.473C231.238 172.973 230.898 174.273 230.218 175.373C229.558 176.473 228.618 177.313 227.398 177.893C226.178 178.493 224.778 178.793 223.198 178.793ZM222.748 169.763C223.828 169.763 224.838 169.553 225.778 169.133C226.738 168.713 227.518 168.073 228.118 167.213C228.718 166.333 229.018 165.263 229.018 164.003C229.018 162.883 228.778 161.883 228.298 161.003C227.818 160.123 227.118 159.433 226.198 158.933C225.278 158.413 224.178 158.153 222.898 158.153C220.958 158.153 219.458 158.683 218.398 159.743C217.338 160.783 216.808 162.273 216.808 164.213C216.808 165.933 217.308 167.293 218.308 168.293C219.328 169.273 220.808 169.763 222.748 169.763ZM236.402 171.563C236.062 171.563 235.792 171.463 235.592 171.263C235.412 171.043 235.322 170.743 235.322 170.363V157.463C235.322 157.083 235.412 156.793 235.592 156.593C235.772 156.373 236.042 156.263 236.402 156.263C236.742 156.263 237.002 156.373 237.182 156.593C237.382 156.793 237.482 157.083 237.482 157.463V159.233C238.222 158.253 239.112 157.513 240.152 157.013C241.212 156.513 242.372 156.263 243.632 156.263C245.532 156.263 246.992 156.793 248.012 157.853C249.052 158.913 249.572 160.433 249.572 162.413V170.363C249.572 170.743 249.472 171.043 249.272 171.263C249.072 171.463 248.802 171.563 248.462 171.563C248.102 171.563 247.832 171.463 247.652 171.263C247.472 171.043 247.382 170.743 247.382 170.363V162.413C247.382 159.573 246.042 158.153 243.362 158.153C241.602 158.153 240.182 158.673 239.102 159.713C238.042 160.753 237.512 162.133 237.512 163.853V170.363C237.512 170.723 237.412 171.013 237.212 171.233C237.032 171.453 236.762 171.563 236.402 171.563Z" fill="black" fill-opacity="0.87"/>
  <path d="M23.86 171.563C23.52 171.563 23.25 171.463 23.05 171.263C22.85 171.043 22.75 170.743 22.75 170.363V153.863C22.75 152.743 23.08 151.863 23.74 151.223C24.42 150.583 25.36 150.263 26.56 150.263H31.66C37.36 150.263 40.21 152.653 40.21 157.433C40.21 159.633 39.48 161.333 38.02 162.533C36.58 163.713 34.5 164.303 31.78 164.303H25V170.363C25 170.743 24.9 171.043 24.7 171.263C24.5 171.463 24.22 171.563 23.86 171.563ZM31.78 162.413C33.72 162.413 35.22 162.033 36.28 161.273C37.36 160.513 37.9 159.233 37.9 157.433C37.9 155.553 37.38 154.203 36.34 153.383C35.3 152.543 33.79 152.123 31.81 152.123H26.59C26.11 152.123 25.72 152.283 25.42 152.603C25.14 152.923 25 153.343 25 153.863V162.413H31.78ZM45.0639 171.563C44.7239 171.563 44.4539 171.463 44.2539 171.263C44.0739 171.043 43.9839 170.743 43.9839 170.363V157.463C43.9839 157.083 44.0739 156.793 44.2539 156.593C44.4339 156.373 44.7039 156.263 45.0639 156.263C45.4039 156.263 45.6639 156.373 45.8439 156.593C46.0439 156.793 46.1439 157.083 46.1439 157.463V159.263C47.5039 157.463 49.3839 156.563 51.7839 156.563H52.5339C52.9139 156.563 53.2139 156.653 53.4339 156.833C53.6539 156.993 53.7639 157.223 53.7639 157.523C53.7639 157.823 53.6539 158.053 53.4339 158.213C53.2139 158.373 52.9139 158.453 52.5339 158.453H51.6939C49.9939 158.453 48.6439 158.943 47.6439 159.923C46.6639 160.883 46.1739 162.193 46.1739 163.853V170.363C46.1739 170.723 46.0739 171.013 45.8739 171.233C45.6939 171.453 45.4239 171.563 45.0639 171.563ZM63.0254 171.563C61.2854 171.563 59.7954 171.213 58.5554 170.513C57.3154 169.813 56.3754 168.883 55.7354 167.723C55.1154 166.543 54.8054 165.273 54.8054 163.913C54.8054 162.553 55.1154 161.293 55.7354 160.133C56.3754 158.953 57.3154 158.013 58.5554 157.313C59.7954 156.613 61.2854 156.263 63.0254 156.263C64.7654 156.263 66.2454 156.613 67.4654 157.313C68.7054 158.013 69.6354 158.953 70.2554 160.133C70.8954 161.293 71.2154 162.553 71.2154 163.913C71.2154 165.273 70.8954 166.543 70.2554 167.723C69.6354 168.883 68.7054 169.813 67.4654 170.513C66.2454 171.213 64.7654 171.563 63.0254 171.563ZM63.0254 169.673C64.8254 169.673 66.2654 169.163 67.3454 168.143C68.4454 167.123 68.9954 165.713 68.9954 163.913C68.9954 162.113 68.4454 160.703 67.3454 159.683C66.2654 158.663 64.8254 158.153 63.0254 158.153C61.2054 158.153 59.7454 158.663 58.6454 159.683C57.5654 160.703 57.0254 162.113 57.0254 163.913C57.0254 165.713 57.5654 167.123 58.6454 168.143C59.7454 169.163 61.2054 169.673 63.0254 169.673ZM81.857 171.563C79.377 171.563 77.417 170.893 75.977 169.553C74.557 168.193 73.847 166.343 73.847 164.003C73.847 162.523 74.157 161.203 74.777 160.043C75.417 158.863 76.337 157.943 77.537 157.283C78.757 156.603 80.217 156.263 81.917 156.263C83.357 156.263 84.577 156.533 85.577 157.073C86.597 157.613 87.497 158.363 88.277 159.323L88.307 149.693C88.307 149.313 88.397 149.023 88.577 148.823C88.777 148.603 89.057 148.493 89.417 148.493C89.757 148.493 90.017 148.603 90.197 148.823C90.397 149.023 90.497 149.313 90.497 149.693V170.363C90.497 170.743 90.397 171.043 90.197 171.263C90.017 171.463 89.757 171.563 89.417 171.563C89.077 171.563 88.807 171.463 88.607 171.263C88.407 171.043 88.307 170.743 88.307 170.363V168.443C87.607 169.463 86.707 170.243 85.607 170.783C84.527 171.303 83.277 171.563 81.857 171.563ZM82.037 169.673C83.977 169.673 85.507 169.163 86.627 168.143C87.747 167.103 88.307 165.693 88.307 163.913C88.307 162.733 88.017 161.713 87.437 160.853C86.877 159.973 86.117 159.303 85.157 158.843C84.217 158.383 83.187 158.153 82.067 158.153C80.187 158.153 78.717 158.693 77.657 159.773C76.597 160.833 76.067 162.243 76.067 164.003C76.067 165.883 76.587 167.303 77.627 168.263C78.667 169.203 80.137 169.673 82.037 169.673ZM100.817 171.563C98.8568 171.563 97.3168 171.003 96.1968 169.883C95.0968 168.763 94.5468 167.203 94.5468 165.203V157.463C94.5468 157.083 94.6468 156.793 94.8468 156.593C95.0468 156.373 95.3168 156.263 95.6568 156.263C95.9968 156.263 96.2568 156.373 96.4368 156.593C96.6368 156.793 96.7368 157.083 96.7368 157.463V165.203C96.7368 166.623 97.1168 167.723 97.8768 168.503C98.6368 169.283 99.6968 169.673 101.057 169.673C102.137 169.673 103.097 169.433 103.937 168.953C104.777 168.473 105.427 167.803 105.887 166.943C106.367 166.083 106.607 165.093 106.607 163.973V157.463C106.607 157.083 106.697 156.793 106.877 156.593C107.077 156.373 107.357 156.263 107.717 156.263C108.057 156.263 108.317 156.373 108.497 156.593C108.697 156.793 108.797 157.083 108.797 157.463V170.363C108.797 170.743 108.697 171.043 108.497 171.263C108.317 171.463 108.057 171.563 107.717 171.563C107.357 171.563 107.077 171.453 106.877 171.233C106.697 171.013 106.607 170.723 106.607 170.363V168.593C105.867 169.553 105.007 170.293 104.027 170.813C103.047 171.313 101.977 171.563 100.817 171.563ZM120.297 171.563C118.697 171.563 117.287 171.253 116.067 170.633C114.847 169.993 113.907 169.093 113.247 167.933C112.587 166.773 112.257 165.423 112.257 163.883C112.257 162.363 112.587 161.033 113.247 159.893C113.907 158.733 114.847 157.843 116.067 157.223C117.287 156.583 118.697 156.263 120.297 156.263C121.797 156.263 123.097 156.473 124.197 156.893C125.297 157.313 126.167 157.933 126.807 158.753C126.967 158.973 127.047 159.183 127.047 159.383C127.047 159.683 126.897 159.953 126.597 160.193C126.457 160.313 126.277 160.373 126.057 160.373C125.717 160.373 125.397 160.223 125.097 159.923C124.037 158.743 122.437 158.153 120.297 158.153C118.437 158.153 116.997 158.653 115.977 159.653C114.977 160.633 114.477 162.043 114.477 163.883C114.477 165.703 114.987 167.123 116.007 168.143C117.027 169.163 118.457 169.673 120.297 169.673C121.317 169.673 122.257 169.523 123.117 169.223C123.977 168.903 124.687 168.453 125.247 167.873C125.587 167.533 125.907 167.363 126.207 167.363C126.387 167.363 126.587 167.443 126.807 167.603C127.087 167.843 127.227 168.103 127.227 168.383C127.227 168.643 127.117 168.863 126.897 169.043C125.917 169.923 124.897 170.563 123.837 170.963C122.777 171.363 121.597 171.563 120.297 171.563ZM139.902 168.293C140.122 168.473 140.232 168.683 140.232 168.923C140.232 169.123 140.142 169.363 139.962 169.643C139.542 170.223 138.962 170.693 138.222 171.053C137.482 171.393 136.722 171.563 135.942 171.563C134.622 171.563 133.582 171.173 132.822 170.393C132.062 169.613 131.682 168.543 131.682 167.183V158.393H130.062C129.262 158.393 128.862 158.083 128.862 157.463C128.862 157.183 128.962 156.963 129.162 156.803C129.382 156.643 129.682 156.563 130.062 156.563H131.682V151.433C131.682 151.053 131.772 150.763 131.952 150.563C132.152 150.343 132.432 150.233 132.792 150.233C133.132 150.233 133.392 150.343 133.572 150.563C133.772 150.763 133.872 151.053 133.872 151.433V156.563H137.952C138.312 156.563 138.592 156.643 138.792 156.803C139.012 156.943 139.122 157.163 139.122 157.463C139.122 158.083 138.732 158.393 137.952 158.393H133.872V167.363C133.872 168.903 134.592 169.673 136.032 169.673C136.492 169.673 136.912 169.583 137.292 169.403C137.672 169.223 138.052 168.933 138.432 168.533C138.732 168.213 139.022 168.053 139.302 168.053C139.482 168.053 139.682 168.133 139.902 168.293ZM155.643 171.263C154.423 171.263 153.473 170.943 152.793 170.303C152.113 169.643 151.773 168.743 151.773 167.603V153.863C151.773 152.743 152.103 151.863 152.763 151.223C153.443 150.583 154.383 150.263 155.583 150.263H159.783C161.863 150.263 163.673 150.703 165.213 151.583C166.773 152.443 167.973 153.663 168.813 155.243C169.653 156.823 170.073 158.673 170.073 160.793C170.073 162.913 169.653 164.763 168.813 166.343C167.973 167.903 166.773 169.113 165.213 169.973C163.673 170.833 161.863 171.263 159.783 171.263H155.643ZM159.483 169.403C162.123 169.403 164.163 168.653 165.603 167.153C167.063 165.653 167.793 163.533 167.793 160.793C167.793 158.053 167.063 155.923 165.603 154.403C164.143 152.883 162.103 152.123 159.483 152.123H155.613C155.133 152.123 154.743 152.283 154.443 152.603C154.163 152.923 154.023 153.343 154.023 153.863V167.663C154.023 168.183 154.163 168.603 154.443 168.923C154.743 169.243 155.133 169.403 155.613 169.403H159.483ZM181.206 171.563C178.606 171.563 176.596 170.893 175.176 169.553C173.756 168.213 173.046 166.313 173.046 163.853C173.046 161.493 173.766 159.643 175.206 158.303C176.646 156.943 178.616 156.263 181.116 156.263C182.656 156.263 184.026 156.513 185.226 157.013C186.426 157.493 187.356 158.183 188.016 159.083C188.696 159.963 189.036 160.973 189.036 162.113C189.036 162.953 188.796 163.603 188.316 164.063C187.856 164.523 187.216 164.753 186.396 164.753H175.296C175.296 166.293 175.816 167.503 176.856 168.383C177.896 169.243 179.346 169.673 181.206 169.673C182.346 169.673 183.326 169.553 184.146 169.313C184.966 169.053 185.736 168.643 186.456 168.083C186.836 167.763 187.146 167.603 187.386 167.603C187.566 167.603 187.736 167.683 187.896 167.843C188.176 168.083 188.316 168.333 188.316 168.593C188.316 168.793 188.196 169.013 187.956 169.253C187.136 170.033 186.176 170.613 185.076 170.993C183.976 171.373 182.686 171.563 181.206 171.563ZM185.736 162.983C186.096 162.983 186.366 162.913 186.546 162.773C186.726 162.613 186.816 162.333 186.816 161.933C186.816 161.213 186.576 160.563 186.096 159.983C185.616 159.403 184.936 158.953 184.056 158.633C183.196 158.313 182.216 158.153 181.116 158.153C179.336 158.153 177.926 158.593 176.886 159.473C175.866 160.333 175.356 161.503 175.356 162.983H185.736ZM198.82 171.563C197.42 171.563 196.1 171.303 194.86 170.783C193.62 170.243 192.64 169.503 191.92 168.563C191.78 168.363 191.71 168.163 191.71 167.963C191.71 167.763 191.76 167.593 191.86 167.453C191.98 167.293 192.13 167.173 192.31 167.093C192.47 167.033 192.6 167.003 192.7 167.003C192.88 167.003 193.03 167.053 193.15 167.153C193.29 167.233 193.45 167.373 193.63 167.573C194.93 168.953 196.66 169.643 198.82 169.643C199.86 169.643 200.7 169.463 201.34 169.103C201.98 168.743 202.3 168.243 202.3 167.603C202.3 167.143 202.17 166.773 201.91 166.493C201.67 166.193 201.25 165.923 200.65 165.683C200.07 165.423 199.11 165.063 197.77 164.603C196.47 164.163 195.45 163.743 194.71 163.343C193.97 162.943 193.42 162.493 193.06 161.993C192.7 161.473 192.52 160.843 192.52 160.103C192.52 158.943 193.02 158.013 194.02 157.313C195.04 156.613 196.39 156.263 198.07 156.263C199.31 156.263 200.46 156.483 201.52 156.923C202.58 157.343 203.38 157.913 203.92 158.633C204.08 158.853 204.16 159.063 204.16 159.263C204.16 159.563 204 159.803 203.68 159.983C203.48 160.103 203.28 160.163 203.08 160.163C202.74 160.163 202.42 160.013 202.12 159.713C201.6 159.193 201.03 158.813 200.41 158.573C199.79 158.313 199 158.183 198.04 158.183C196.98 158.183 196.17 158.353 195.61 158.693C195.05 159.033 194.77 159.513 194.77 160.133C194.77 160.593 194.88 160.963 195.1 161.243C195.34 161.503 195.71 161.743 196.21 161.963C196.73 162.163 197.63 162.473 198.91 162.893C200.35 163.373 201.46 163.833 202.24 164.273C203.04 164.693 203.61 165.163 203.95 165.683C204.31 166.203 204.49 166.843 204.49 167.603C204.49 168.803 203.96 169.763 202.9 170.483C201.86 171.203 200.5 171.563 198.82 171.563ZM209.548 153.083C209.108 153.083 208.728 152.943 208.408 152.663C208.108 152.363 207.958 152.003 207.958 151.583C207.958 151.163 208.108 150.803 208.408 150.503C208.728 150.203 209.108 150.053 209.548 150.053C209.988 150.053 210.368 150.213 210.688 150.533C211.028 150.833 211.198 151.183 211.198 151.583C211.198 151.983 211.028 152.333 210.688 152.633C210.368 152.933 209.988 153.083 209.548 153.083ZM209.548 171.563C209.208 171.563 208.938 171.463 208.738 171.263C208.558 171.043 208.468 170.743 208.468 170.363V157.463C208.468 157.083 208.558 156.793 208.738 156.593C208.938 156.373 209.208 156.263 209.548 156.263C209.908 156.263 210.178 156.373 210.358 156.593C210.558 156.793 210.658 157.083 210.658 157.463V170.363C210.658 170.743 210.558 171.043 210.358 171.263C210.178 171.463 209.908 171.563 209.548 171.563ZM223.198 178.793C221.758 178.793 220.458 178.583 219.298 178.163C218.138 177.743 217.198 177.133 216.478 176.333C216.318 176.173 216.238 175.973 216.238 175.733C216.238 175.433 216.398 175.173 216.718 174.953C216.918 174.813 217.108 174.743 217.288 174.743C217.588 174.743 217.888 174.903 218.188 175.223C218.668 175.743 219.308 176.163 220.108 176.483C220.908 176.803 221.868 176.963 222.988 176.963C224.948 176.963 226.448 176.493 227.488 175.553C228.528 174.613 229.048 173.253 229.048 171.473V168.653C228.368 169.553 227.478 170.293 226.378 170.873C225.278 171.433 223.998 171.713 222.538 171.713C219.998 171.713 218.038 171.033 216.658 169.673C215.278 168.313 214.588 166.493 214.588 164.213C214.588 162.673 214.888 161.313 215.488 160.133C216.108 158.933 217.028 157.993 218.248 157.313C219.468 156.613 220.968 156.263 222.748 156.263C224.068 156.263 225.258 156.533 226.318 157.073C227.378 157.613 228.288 158.383 229.048 159.383V157.403C229.048 157.083 229.148 156.813 229.348 156.593C229.568 156.373 229.838 156.263 230.158 156.263C230.478 156.263 230.738 156.373 230.938 156.593C231.138 156.793 231.238 157.063 231.238 157.403V171.473C231.238 172.973 230.898 174.273 230.218 175.373C229.558 176.473 228.618 177.313 227.398 177.893C226.178 178.493 224.778 178.793 223.198 178.793ZM222.748 169.763C223.828 169.763 224.838 169.553 225.778 169.133C226.738 168.713 227.518 168.073 228.118 167.213C228.718 166.333 229.018 165.263 229.018 164.003C229.018 162.883 228.778 161.883 228.298 161.003C227.818 160.123 227.118 159.433 226.198 158.933C225.278 158.413 224.178 158.153 222.898 158.153C220.958 158.153 219.458 158.683 218.398 159.743C217.338 160.783 216.808 162.273 216.808 164.213C216.808 165.933 217.308 167.293 218.308 168.293C219.328 169.273 220.808 169.763 222.748 169.763ZM236.402 171.563C236.062 171.563 235.792 171.463 235.592 171.263C235.412 171.043 235.322 170.743 235.322 170.363V157.463C235.322 157.083 235.412 156.793 235.592 156.593C235.772 156.373 236.042 156.263 236.402 156.263C236.742 156.263 237.002 156.373 237.182 156.593C237.382 156.793 237.482 157.083 237.482 157.463V159.233C238.222 158.253 239.112 157.513 240.152 157.013C241.212 156.513 242.372 156.263 243.632 156.263C245.532 156.263 246.992 156.793 248.012 157.853C249.052 158.913 249.572 160.433 249.572 162.413V170.363C249.572 170.743 249.472 171.043 249.272 171.263C249.072 171.463 248.802 171.563 248.462 171.563C248.102 171.563 247.832 171.463 247.652 171.263C247.472 171.043 247.382 170.743 247.382 170.363V162.413C247.382 159.573 246.042 158.153 243.362 158.153C241.602 158.153 240.182 158.673 239.102 159.713C238.042 160.753 237.512 162.133 237.512 163.853V170.363C237.512 170.723 237.412 171.013 237.212 171.233C237.032 171.453 236.762 171.563 236.402 171.563Z" fill="url(#paint3_linear)"/>
  <defs>
    <linearGradient id="paint0_linear" x1="167.977" y1="83.3531" x2="113.721" y2="4.92317" gradientUnits="userSpaceOnUse">
      <stop stop-color="#456563"/>
      <stop offset="0.20711" stop-color="#5A877E"/>
      <stop offset="0.440403" stop-color="#FDC343"/>
      <stop offset="0.700961" stop-color="#E99877"/>
      <stop offset="1" stop-color="#A4574E"/>
    </linearGradient>
    <linearGradient id="paint1_linear" x1="273.254" y1="80.4799" x2="220.291" y2="6.0917" gradientUnits="userSpaceOnUse">
      <stop stop-color="#456563"/>
      <stop offset="0.20711" stop-color="#5A877E"/>
      <stop offset="0.440403" stop-color="#FDC343"/>
      <stop offset="0.700961" stop-color="#E99877"/>
      <stop offset="1" stop-color="#A4574E"/>
    </linearGradient>
    <linearGradient id="paint2_linear" x1="377.166" y1="99.9089" x2="257.89" y2="-125.108" gradientUnits="userSpaceOnUse">
      <stop stop-color="#456563"/>
      <stop offset="0.20711" stop-color="#5A877E"/>
      <stop offset="0.440403" stop-color="#FDC343"/>
      <stop offset="0.700961" stop-color="#E99877"/>
      <stop offset="1" stop-color="#A4574E"/>
    </linearGradient>
    <linearGradient id="paint3_linear" x1="435.476" y1="183.59" x2="427.271" y2="101.221" gradientUnits="userSpaceOnUse">
      <stop stop-color="#456563"/>
      <stop offset="0.20711" stop-color="#5A877E"/>
      <stop offset="0.440403" stop-color="#FDC343"/>
      <stop offset="0.700961" stop-color="#E99877"/>
      <stop offset="1" stop-color="#A4574E"/>
    </linearGradient>
  </defs>
</svg>
