<svg width="303" height="194" viewBox="0 0 303 194" fill="none" xmlns="http://www.w3.org/2000/svg">
  <path d="M38.3948 28.4443V56.4492C38.3948 57.1326 38.7585 57.7635 39.3475 58.1021L63.8363 72.1763C64.7421 72.6968 65.0576 73.8589 64.5411 74.7717C64.37 75.0742 64.1198 75.3235 63.8178 75.4926L38.7834 89.5058C38.184 89.8413 37.8122 90.4781 37.8122 91.1692V119.481C37.8122 120.531 38.6574 121.383 39.7 121.383C40.0254 121.383 40.3452 121.299 40.6285 121.137L93.7581 90.8901C94.3509 90.5527 94.7175 89.9196 94.7175 89.2334V58.8525C94.7175 58.171 94.3559 57.5417 93.7696 57.2024L41.2227 26.7942C40.3185 26.271 39.1647 26.5856 38.6455 27.4969C38.4813 27.7852 38.3948 28.1119 38.3948 28.4443Z" stroke="url(#paint0_linear)" stroke-width="1.26231"/>
  <path d="M115.583 94.2856H176.768C177.441 94.2856 178.064 94.6462 178.404 95.2329L192.686 119.854C193.216 120.767 192.912 121.941 192.008 122.475C191.716 122.649 191.383 122.739 191.043 122.738L129.795 122.532C129.125 122.53 128.506 122.171 128.166 121.587L113.948 97.1729C113.417 96.2609 113.718 95.0867 114.621 94.5502C114.913 94.377 115.245 94.2856 115.583 94.2856Z" stroke="url(#paint1_linear)" stroke-width="1.26231"/>
  <path fill-rule="evenodd" clip-rule="evenodd" d="M1.90734 0.934082H300.66C301.708 0.934082 302.557 1.78333 302.557 2.83092V191.16C302.557 192.208 301.708 193.057 300.66 193.057H1.90734C0.859743 193.057 0.010498 192.208 0.010498 191.16V2.83092C0.010498 1.78333 0.859743 0.934082 1.90734 0.934082ZM300.66 2.01791H1.90742C1.45845 2.01791 1.09449 2.38187 1.09449 2.83084V191.16C1.09449 191.609 1.45845 191.973 1.90742 191.973H300.66C301.109 191.973 301.473 191.609 301.473 191.16V2.83084C301.473 2.38187 301.109 2.01791 300.66 2.01791Z" fill="url(#paint2_linear)"/>
  <path d="M29.131 171.563C28.271 171.563 27.581 171.283 27.061 170.723C26.541 170.163 26.171 169.293 25.951 168.113L22.681 151.283C22.641 151.083 22.621 150.943 22.621 150.863C22.621 150.263 22.961 149.963 23.641 149.963C24.061 149.963 24.361 150.053 24.541 150.233C24.721 150.413 24.841 150.683 24.901 151.043L28.081 168.173C28.181 168.733 28.311 169.123 28.471 169.343C28.631 169.543 28.861 169.643 29.161 169.643C29.481 169.643 29.721 169.533 29.881 169.313C30.041 169.073 30.161 168.703 30.241 168.203L32.611 152.753C32.751 151.833 33.041 151.143 33.481 150.683C33.941 150.203 34.521 149.963 35.221 149.963C36.661 149.963 37.521 150.893 37.801 152.753L40.171 168.203C40.251 168.723 40.371 169.093 40.531 169.313C40.691 169.533 40.931 169.643 41.251 169.643C41.531 169.643 41.751 169.533 41.911 169.313C42.091 169.093 42.231 168.713 42.331 168.173L45.511 151.043C45.571 150.663 45.691 150.393 45.871 150.233C46.071 150.053 46.371 149.963 46.771 149.963C47.451 149.963 47.791 150.263 47.791 150.863C47.791 150.943 47.771 151.083 47.731 151.283L44.461 168.113C44.241 169.233 43.881 170.093 43.381 170.693C42.901 171.273 42.201 171.563 41.281 171.563C40.421 171.563 39.741 171.283 39.241 170.723C38.761 170.163 38.431 169.303 38.251 168.143L35.911 152.993C35.851 152.593 35.761 152.313 35.641 152.153C35.541 151.973 35.401 151.883 35.221 151.883C35.021 151.883 34.861 151.973 34.741 152.153C34.641 152.313 34.561 152.593 34.501 152.993L32.161 168.143C31.981 169.303 31.641 170.163 31.141 170.723C30.661 171.283 29.991 171.563 29.131 171.563ZM57.5213 171.563C54.9213 171.563 52.9113 170.893 51.4913 169.553C50.0713 168.213 49.3613 166.313 49.3613 163.853C49.3613 161.493 50.0813 159.643 51.5213 158.303C52.9613 156.943 54.9313 156.263 57.4313 156.263C58.9713 156.263 60.3413 156.513 61.5413 157.013C62.7413 157.493 63.6713 158.183 64.3313 159.083C65.0113 159.963 65.3513 160.973 65.3513 162.113C65.3513 162.953 65.1113 163.603 64.6313 164.063C64.1713 164.523 63.5313 164.753 62.7113 164.753H51.6113C51.6113 166.293 52.1313 167.503 53.1713 168.383C54.2113 169.243 55.6613 169.673 57.5213 169.673C58.6613 169.673 59.6413 169.553 60.4613 169.313C61.2813 169.053 62.0513 168.643 62.7713 168.083C63.1513 167.763 63.4613 167.603 63.7013 167.603C63.8813 167.603 64.0513 167.683 64.2113 167.843C64.4913 168.083 64.6313 168.333 64.6313 168.593C64.6313 168.793 64.5113 169.013 64.2713 169.253C63.4513 170.033 62.4913 170.613 61.3913 170.993C60.2913 171.373 59.0013 171.563 57.5213 171.563ZM62.0513 162.983C62.4113 162.983 62.6813 162.913 62.8613 162.773C63.0413 162.613 63.1313 162.333 63.1313 161.933C63.1313 161.213 62.8913 160.563 62.4113 159.983C61.9313 159.403 61.2513 158.953 60.3713 158.633C59.5113 158.313 58.5313 158.153 57.4313 158.153C55.6513 158.153 54.2413 158.593 53.2013 159.473C52.1813 160.333 51.6713 161.503 51.6713 162.983H62.0513ZM69.7955 171.563C69.4555 171.563 69.1855 171.463 68.9855 171.263C68.8055 171.043 68.7155 170.743 68.7155 170.363V149.693C68.7155 149.313 68.8055 149.023 68.9855 148.823C69.1855 148.603 69.4555 148.493 69.7955 148.493C70.1355 148.493 70.4055 148.603 70.6055 148.823C70.8055 149.023 70.9055 149.313 70.9055 149.693L70.9355 159.323C72.6155 157.283 74.7655 156.263 77.3855 156.263C79.0055 156.263 80.4155 156.573 81.6155 157.193C82.8155 157.813 83.7355 158.703 84.3755 159.863C85.0355 161.003 85.3655 162.353 85.3655 163.913C85.3655 166.353 84.6655 168.243 83.2655 169.583C81.8655 170.903 79.8955 171.563 77.3555 171.563C74.5355 171.563 72.3855 170.523 70.9055 168.443V170.363C70.9055 170.723 70.8055 171.013 70.6055 171.233C70.4255 171.453 70.1555 171.563 69.7955 171.563ZM77.2055 169.673C79.1655 169.673 80.6455 169.193 81.6455 168.233C82.6455 167.253 83.1455 165.813 83.1455 163.913C83.1455 162.113 82.6155 160.703 81.5555 159.683C80.4955 158.663 79.0455 158.153 77.2055 158.153C76.0055 158.153 74.9255 158.403 73.9655 158.903C73.0055 159.383 72.2555 160.063 71.7155 160.943C71.1755 161.823 70.9055 162.813 70.9055 163.913C70.9055 165.693 71.4655 167.103 72.5855 168.143C73.7055 169.163 75.2455 169.673 77.2055 169.673ZM100.953 171.263C99.7326 171.263 98.7826 170.943 98.1026 170.303C97.4226 169.663 97.0826 168.763 97.0826 167.603V153.863C97.0826 152.743 97.4126 151.863 98.0726 151.223C98.7526 150.583 99.6926 150.263 100.893 150.263H110.193C110.973 150.263 111.363 150.583 111.363 151.223C111.363 151.503 111.263 151.723 111.063 151.883C110.863 152.043 110.573 152.123 110.193 152.123H100.923C100.443 152.123 100.053 152.283 99.7526 152.603C99.4726 152.923 99.3326 153.343 99.3326 153.863V159.593H107.913C108.693 159.593 109.083 159.913 109.083 160.553C109.083 160.853 108.973 161.083 108.753 161.243C108.553 161.403 108.273 161.483 107.913 161.483H99.3326V167.663C99.3326 168.183 99.4726 168.603 99.7526 168.923C100.053 169.243 100.443 169.403 100.923 169.403H110.853C111.633 169.403 112.023 169.713 112.023 170.333C112.023 170.633 111.913 170.863 111.693 171.023C111.493 171.183 111.213 171.263 110.853 171.263H100.953ZM116.877 171.563C116.537 171.563 116.267 171.463 116.067 171.263C115.887 171.043 115.797 170.743 115.797 170.363V157.463C115.797 157.083 115.887 156.793 116.067 156.593C116.247 156.373 116.517 156.263 116.877 156.263C117.217 156.263 117.477 156.373 117.657 156.593C117.857 156.793 117.957 157.083 117.957 157.463V159.233C118.697 158.253 119.587 157.513 120.627 157.013C121.687 156.513 122.847 156.263 124.107 156.263C126.007 156.263 127.467 156.793 128.487 157.853C129.527 158.913 130.047 160.433 130.047 162.413V170.363C130.047 170.743 129.947 171.043 129.747 171.263C129.547 171.463 129.277 171.563 128.937 171.563C128.577 171.563 128.307 171.463 128.127 171.263C127.947 171.043 127.857 170.743 127.857 170.363V162.413C127.857 159.573 126.517 158.153 123.837 158.153C122.077 158.153 120.657 158.673 119.577 159.713C118.517 160.753 117.987 162.133 117.987 163.853V170.363C117.987 170.723 117.887 171.013 117.687 171.233C117.507 171.453 117.237 171.563 116.877 171.563ZM141.877 178.793C140.437 178.793 139.137 178.583 137.977 178.163C136.817 177.743 135.877 177.133 135.157 176.333C134.997 176.173 134.917 175.973 134.917 175.733C134.917 175.433 135.077 175.173 135.397 174.953C135.597 174.813 135.787 174.743 135.967 174.743C136.267 174.743 136.567 174.903 136.867 175.223C137.347 175.743 137.987 176.163 138.787 176.483C139.587 176.803 140.547 176.963 141.667 176.963C143.627 176.963 145.127 176.493 146.167 175.553C147.207 174.613 147.727 173.253 147.727 171.473V168.653C147.047 169.553 146.157 170.293 145.057 170.873C143.957 171.433 142.677 171.713 141.217 171.713C138.677 171.713 136.717 171.033 135.337 169.673C133.957 168.313 133.267 166.493 133.267 164.213C133.267 162.673 133.567 161.313 134.167 160.133C134.787 158.933 135.707 157.993 136.927 157.313C138.147 156.613 139.647 156.263 141.427 156.263C142.747 156.263 143.937 156.533 144.997 157.073C146.057 157.613 146.967 158.383 147.727 159.383V157.403C147.727 157.083 147.827 156.813 148.027 156.593C148.247 156.373 148.517 156.263 148.837 156.263C149.157 156.263 149.417 156.373 149.617 156.593C149.817 156.793 149.917 157.063 149.917 157.403V171.473C149.917 172.973 149.577 174.273 148.897 175.373C148.237 176.473 147.297 177.313 146.077 177.893C144.857 178.493 143.457 178.793 141.877 178.793ZM141.427 169.763C142.507 169.763 143.517 169.553 144.457 169.133C145.417 168.713 146.197 168.073 146.797 167.213C147.397 166.333 147.697 165.263 147.697 164.003C147.697 162.883 147.457 161.883 146.977 161.003C146.497 160.123 145.797 159.433 144.877 158.933C143.957 158.413 142.857 158.153 141.577 158.153C139.637 158.153 138.137 158.683 137.077 159.743C136.017 160.783 135.487 162.273 135.487 164.213C135.487 165.933 135.987 167.293 136.987 168.293C138.007 169.273 139.487 169.763 141.427 169.763ZM155.59 153.083C155.15 153.083 154.77 152.943 154.45 152.663C154.15 152.363 154 152.003 154 151.583C154 151.163 154.15 150.803 154.45 150.503C154.77 150.203 155.15 150.053 155.59 150.053C156.03 150.053 156.41 150.213 156.73 150.533C157.07 150.833 157.24 151.183 157.24 151.583C157.24 151.983 157.07 152.333 156.73 152.633C156.41 152.933 156.03 153.083 155.59 153.083ZM155.59 171.563C155.25 171.563 154.98 171.463 154.78 171.263C154.6 171.043 154.51 170.743 154.51 170.363V157.463C154.51 157.083 154.6 156.793 154.78 156.593C154.98 156.373 155.25 156.263 155.59 156.263C155.95 156.263 156.22 156.373 156.4 156.593C156.6 156.793 156.7 157.083 156.7 157.463V170.363C156.7 170.743 156.6 171.043 156.4 171.263C156.22 171.463 155.95 171.563 155.59 171.563ZM162.58 171.563C162.24 171.563 161.97 171.463 161.77 171.263C161.59 171.043 161.5 170.743 161.5 170.363V157.463C161.5 157.083 161.59 156.793 161.77 156.593C161.95 156.373 162.22 156.263 162.58 156.263C162.92 156.263 163.18 156.373 163.36 156.593C163.56 156.793 163.66 157.083 163.66 157.463V159.233C164.4 158.253 165.29 157.513 166.33 157.013C167.39 156.513 168.55 156.263 169.81 156.263C171.71 156.263 173.17 156.793 174.19 157.853C175.23 158.913 175.75 160.433 175.75 162.413V170.363C175.75 170.743 175.65 171.043 175.45 171.263C175.25 171.463 174.98 171.563 174.64 171.563C174.28 171.563 174.01 171.463 173.83 171.263C173.65 171.043 173.56 170.743 173.56 170.363V162.413C173.56 159.573 172.22 158.153 169.54 158.153C167.78 158.153 166.36 158.673 165.28 159.713C164.22 160.753 163.69 162.133 163.69 163.853V170.363C163.69 170.723 163.59 171.013 163.39 171.233C163.21 171.453 162.94 171.563 162.58 171.563ZM187.16 171.563C184.56 171.563 182.55 170.893 181.13 169.553C179.71 168.213 179 166.313 179 163.853C179 161.493 179.72 159.643 181.16 158.303C182.6 156.943 184.57 156.263 187.07 156.263C188.61 156.263 189.98 156.513 191.18 157.013C192.38 157.493 193.31 158.183 193.97 159.083C194.65 159.963 194.99 160.973 194.99 162.113C194.99 162.953 194.75 163.603 194.27 164.063C193.81 164.523 193.17 164.753 192.35 164.753H181.25C181.25 166.293 181.77 167.503 182.81 168.383C183.85 169.243 185.3 169.673 187.16 169.673C188.3 169.673 189.28 169.553 190.1 169.313C190.92 169.053 191.69 168.643 192.41 168.083C192.79 167.763 193.1 167.603 193.34 167.603C193.52 167.603 193.69 167.683 193.85 167.843C194.13 168.083 194.27 168.333 194.27 168.593C194.27 168.793 194.15 169.013 193.91 169.253C193.09 170.033 192.13 170.613 191.03 170.993C189.93 171.373 188.64 171.563 187.16 171.563ZM191.69 162.983C192.05 162.983 192.32 162.913 192.5 162.773C192.68 162.613 192.77 162.333 192.77 161.933C192.77 161.213 192.53 160.563 192.05 159.983C191.57 159.403 190.89 158.953 190.01 158.633C189.15 158.313 188.17 158.153 187.07 158.153C185.29 158.153 183.88 158.593 182.84 159.473C181.82 160.333 181.31 161.503 181.31 162.983H191.69ZM205.734 171.563C203.134 171.563 201.124 170.893 199.704 169.553C198.284 168.213 197.574 166.313 197.574 163.853C197.574 161.493 198.294 159.643 199.734 158.303C201.174 156.943 203.144 156.263 205.644 156.263C207.184 156.263 208.554 156.513 209.754 157.013C210.954 157.493 211.884 158.183 212.544 159.083C213.224 159.963 213.564 160.973 213.564 162.113C213.564 162.953 213.324 163.603 212.844 164.063C212.384 164.523 211.744 164.753 210.924 164.753H199.824C199.824 166.293 200.344 167.503 201.384 168.383C202.424 169.243 203.874 169.673 205.734 169.673C206.874 169.673 207.854 169.553 208.674 169.313C209.494 169.053 210.264 168.643 210.984 168.083C211.364 167.763 211.674 167.603 211.914 167.603C212.094 167.603 212.264 167.683 212.424 167.843C212.704 168.083 212.844 168.333 212.844 168.593C212.844 168.793 212.724 169.013 212.484 169.253C211.664 170.033 210.704 170.613 209.604 170.993C208.504 171.373 207.214 171.563 205.734 171.563ZM210.264 162.983C210.624 162.983 210.894 162.913 211.074 162.773C211.254 162.613 211.344 162.333 211.344 161.933C211.344 161.213 211.104 160.563 210.624 159.983C210.144 159.403 209.464 158.953 208.584 158.633C207.724 158.313 206.744 158.153 205.644 158.153C203.864 158.153 202.454 158.593 201.414 159.473C200.394 160.333 199.884 161.503 199.884 162.983H210.264ZM218.068 171.563C217.728 171.563 217.458 171.463 217.258 171.263C217.078 171.043 216.988 170.743 216.988 170.363V157.463C216.988 157.083 217.078 156.793 217.258 156.593C217.438 156.373 217.708 156.263 218.068 156.263C218.408 156.263 218.668 156.373 218.848 156.593C219.048 156.793 219.148 157.083 219.148 157.463V159.263C220.508 157.463 222.388 156.563 224.788 156.563H225.538C225.918 156.563 226.218 156.653 226.438 156.833C226.658 156.993 226.768 157.223 226.768 157.523C226.768 157.823 226.658 158.053 226.438 158.213C226.218 158.373 225.918 158.453 225.538 158.453H224.698C222.998 158.453 221.648 158.943 220.648 159.923C219.668 160.883 219.178 162.193 219.178 163.853V170.363C219.178 170.723 219.078 171.013 218.878 171.233C218.698 171.453 218.428 171.563 218.068 171.563ZM230.766 153.083C230.326 153.083 229.946 152.943 229.626 152.663C229.326 152.363 229.176 152.003 229.176 151.583C229.176 151.163 229.326 150.803 229.626 150.503C229.946 150.203 230.326 150.053 230.766 150.053C231.206 150.053 231.586 150.213 231.906 150.533C232.246 150.833 232.416 151.183 232.416 151.583C232.416 151.983 232.246 152.333 231.906 152.633C231.586 152.933 231.206 153.083 230.766 153.083ZM230.766 171.563C230.426 171.563 230.156 171.463 229.956 171.263C229.776 171.043 229.686 170.743 229.686 170.363V157.463C229.686 157.083 229.776 156.793 229.956 156.593C230.156 156.373 230.426 156.263 230.766 156.263C231.126 156.263 231.396 156.373 231.576 156.593C231.776 156.793 231.876 157.083 231.876 157.463V170.363C231.876 170.743 231.776 171.043 231.576 171.263C231.396 171.463 231.126 171.563 230.766 171.563ZM237.756 171.563C237.416 171.563 237.146 171.463 236.946 171.263C236.766 171.043 236.676 170.743 236.676 170.363V157.463C236.676 157.083 236.766 156.793 236.946 156.593C237.126 156.373 237.396 156.263 237.756 156.263C238.096 156.263 238.356 156.373 238.536 156.593C238.736 156.793 238.836 157.083 238.836 157.463V159.233C239.576 158.253 240.466 157.513 241.506 157.013C242.566 156.513 243.726 156.263 244.986 156.263C246.886 156.263 248.346 156.793 249.366 157.853C250.406 158.913 250.926 160.433 250.926 162.413V170.363C250.926 170.743 250.826 171.043 250.626 171.263C250.426 171.463 250.156 171.563 249.816 171.563C249.456 171.563 249.186 171.463 249.006 171.263C248.826 171.043 248.736 170.743 248.736 170.363V162.413C248.736 159.573 247.396 158.153 244.716 158.153C242.956 158.153 241.536 158.673 240.456 159.713C239.396 160.753 238.866 162.133 238.866 163.853V170.363C238.866 170.723 238.766 171.013 238.566 171.233C238.386 171.453 238.116 171.563 237.756 171.563ZM262.756 178.793C261.316 178.793 260.016 178.583 258.856 178.163C257.696 177.743 256.756 177.133 256.036 176.333C255.876 176.173 255.796 175.973 255.796 175.733C255.796 175.433 255.956 175.173 256.276 174.953C256.476 174.813 256.666 174.743 256.846 174.743C257.146 174.743 257.446 174.903 257.746 175.223C258.226 175.743 258.866 176.163 259.666 176.483C260.466 176.803 261.426 176.963 262.546 176.963C264.506 176.963 266.006 176.493 267.046 175.553C268.086 174.613 268.606 173.253 268.606 171.473V168.653C267.926 169.553 267.036 170.293 265.936 170.873C264.836 171.433 263.556 171.713 262.096 171.713C259.556 171.713 257.596 171.033 256.216 169.673C254.836 168.313 254.146 166.493 254.146 164.213C254.146 162.673 254.446 161.313 255.046 160.133C255.666 158.933 256.586 157.993 257.806 157.313C259.026 156.613 260.526 156.263 262.306 156.263C263.626 156.263 264.816 156.533 265.876 157.073C266.936 157.613 267.846 158.383 268.606 159.383V157.403C268.606 157.083 268.706 156.813 268.906 156.593C269.126 156.373 269.396 156.263 269.716 156.263C270.036 156.263 270.296 156.373 270.496 156.593C270.696 156.793 270.796 157.063 270.796 157.403V171.473C270.796 172.973 270.456 174.273 269.776 175.373C269.116 176.473 268.176 177.313 266.956 177.893C265.736 178.493 264.336 178.793 262.756 178.793ZM262.306 169.763C263.386 169.763 264.396 169.553 265.336 169.133C266.296 168.713 267.076 168.073 267.676 167.213C268.276 166.333 268.576 165.263 268.576 164.003C268.576 162.883 268.336 161.883 267.856 161.003C267.376 160.123 266.676 159.433 265.756 158.933C264.836 158.413 263.736 158.153 262.456 158.153C260.516 158.153 259.016 158.683 257.956 159.743C256.896 160.783 256.366 162.273 256.366 164.213C256.366 165.933 256.866 167.293 257.866 168.293C258.886 169.273 260.366 169.763 262.306 169.763Z" fill="black" fill-opacity="0.87"/>
  <path d="M29.131 171.563C28.271 171.563 27.581 171.283 27.061 170.723C26.541 170.163 26.171 169.293 25.951 168.113L22.681 151.283C22.641 151.083 22.621 150.943 22.621 150.863C22.621 150.263 22.961 149.963 23.641 149.963C24.061 149.963 24.361 150.053 24.541 150.233C24.721 150.413 24.841 150.683 24.901 151.043L28.081 168.173C28.181 168.733 28.311 169.123 28.471 169.343C28.631 169.543 28.861 169.643 29.161 169.643C29.481 169.643 29.721 169.533 29.881 169.313C30.041 169.073 30.161 168.703 30.241 168.203L32.611 152.753C32.751 151.833 33.041 151.143 33.481 150.683C33.941 150.203 34.521 149.963 35.221 149.963C36.661 149.963 37.521 150.893 37.801 152.753L40.171 168.203C40.251 168.723 40.371 169.093 40.531 169.313C40.691 169.533 40.931 169.643 41.251 169.643C41.531 169.643 41.751 169.533 41.911 169.313C42.091 169.093 42.231 168.713 42.331 168.173L45.511 151.043C45.571 150.663 45.691 150.393 45.871 150.233C46.071 150.053 46.371 149.963 46.771 149.963C47.451 149.963 47.791 150.263 47.791 150.863C47.791 150.943 47.771 151.083 47.731 151.283L44.461 168.113C44.241 169.233 43.881 170.093 43.381 170.693C42.901 171.273 42.201 171.563 41.281 171.563C40.421 171.563 39.741 171.283 39.241 170.723C38.761 170.163 38.431 169.303 38.251 168.143L35.911 152.993C35.851 152.593 35.761 152.313 35.641 152.153C35.541 151.973 35.401 151.883 35.221 151.883C35.021 151.883 34.861 151.973 34.741 152.153C34.641 152.313 34.561 152.593 34.501 152.993L32.161 168.143C31.981 169.303 31.641 170.163 31.141 170.723C30.661 171.283 29.991 171.563 29.131 171.563ZM57.5213 171.563C54.9213 171.563 52.9113 170.893 51.4913 169.553C50.0713 168.213 49.3613 166.313 49.3613 163.853C49.3613 161.493 50.0813 159.643 51.5213 158.303C52.9613 156.943 54.9313 156.263 57.4313 156.263C58.9713 156.263 60.3413 156.513 61.5413 157.013C62.7413 157.493 63.6713 158.183 64.3313 159.083C65.0113 159.963 65.3513 160.973 65.3513 162.113C65.3513 162.953 65.1113 163.603 64.6313 164.063C64.1713 164.523 63.5313 164.753 62.7113 164.753H51.6113C51.6113 166.293 52.1313 167.503 53.1713 168.383C54.2113 169.243 55.6613 169.673 57.5213 169.673C58.6613 169.673 59.6413 169.553 60.4613 169.313C61.2813 169.053 62.0513 168.643 62.7713 168.083C63.1513 167.763 63.4613 167.603 63.7013 167.603C63.8813 167.603 64.0513 167.683 64.2113 167.843C64.4913 168.083 64.6313 168.333 64.6313 168.593C64.6313 168.793 64.5113 169.013 64.2713 169.253C63.4513 170.033 62.4913 170.613 61.3913 170.993C60.2913 171.373 59.0013 171.563 57.5213 171.563ZM62.0513 162.983C62.4113 162.983 62.6813 162.913 62.8613 162.773C63.0413 162.613 63.1313 162.333 63.1313 161.933C63.1313 161.213 62.8913 160.563 62.4113 159.983C61.9313 159.403 61.2513 158.953 60.3713 158.633C59.5113 158.313 58.5313 158.153 57.4313 158.153C55.6513 158.153 54.2413 158.593 53.2013 159.473C52.1813 160.333 51.6713 161.503 51.6713 162.983H62.0513ZM69.7955 171.563C69.4555 171.563 69.1855 171.463 68.9855 171.263C68.8055 171.043 68.7155 170.743 68.7155 170.363V149.693C68.7155 149.313 68.8055 149.023 68.9855 148.823C69.1855 148.603 69.4555 148.493 69.7955 148.493C70.1355 148.493 70.4055 148.603 70.6055 148.823C70.8055 149.023 70.9055 149.313 70.9055 149.693L70.9355 159.323C72.6155 157.283 74.7655 156.263 77.3855 156.263C79.0055 156.263 80.4155 156.573 81.6155 157.193C82.8155 157.813 83.7355 158.703 84.3755 159.863C85.0355 161.003 85.3655 162.353 85.3655 163.913C85.3655 166.353 84.6655 168.243 83.2655 169.583C81.8655 170.903 79.8955 171.563 77.3555 171.563C74.5355 171.563 72.3855 170.523 70.9055 168.443V170.363C70.9055 170.723 70.8055 171.013 70.6055 171.233C70.4255 171.453 70.1555 171.563 69.7955 171.563ZM77.2055 169.673C79.1655 169.673 80.6455 169.193 81.6455 168.233C82.6455 167.253 83.1455 165.813 83.1455 163.913C83.1455 162.113 82.6155 160.703 81.5555 159.683C80.4955 158.663 79.0455 158.153 77.2055 158.153C76.0055 158.153 74.9255 158.403 73.9655 158.903C73.0055 159.383 72.2555 160.063 71.7155 160.943C71.1755 161.823 70.9055 162.813 70.9055 163.913C70.9055 165.693 71.4655 167.103 72.5855 168.143C73.7055 169.163 75.2455 169.673 77.2055 169.673ZM100.953 171.263C99.7326 171.263 98.7826 170.943 98.1026 170.303C97.4226 169.663 97.0826 168.763 97.0826 167.603V153.863C97.0826 152.743 97.4126 151.863 98.0726 151.223C98.7526 150.583 99.6926 150.263 100.893 150.263H110.193C110.973 150.263 111.363 150.583 111.363 151.223C111.363 151.503 111.263 151.723 111.063 151.883C110.863 152.043 110.573 152.123 110.193 152.123H100.923C100.443 152.123 100.053 152.283 99.7526 152.603C99.4726 152.923 99.3326 153.343 99.3326 153.863V159.593H107.913C108.693 159.593 109.083 159.913 109.083 160.553C109.083 160.853 108.973 161.083 108.753 161.243C108.553 161.403 108.273 161.483 107.913 161.483H99.3326V167.663C99.3326 168.183 99.4726 168.603 99.7526 168.923C100.053 169.243 100.443 169.403 100.923 169.403H110.853C111.633 169.403 112.023 169.713 112.023 170.333C112.023 170.633 111.913 170.863 111.693 171.023C111.493 171.183 111.213 171.263 110.853 171.263H100.953ZM116.877 171.563C116.537 171.563 116.267 171.463 116.067 171.263C115.887 171.043 115.797 170.743 115.797 170.363V157.463C115.797 157.083 115.887 156.793 116.067 156.593C116.247 156.373 116.517 156.263 116.877 156.263C117.217 156.263 117.477 156.373 117.657 156.593C117.857 156.793 117.957 157.083 117.957 157.463V159.233C118.697 158.253 119.587 157.513 120.627 157.013C121.687 156.513 122.847 156.263 124.107 156.263C126.007 156.263 127.467 156.793 128.487 157.853C129.527 158.913 130.047 160.433 130.047 162.413V170.363C130.047 170.743 129.947 171.043 129.747 171.263C129.547 171.463 129.277 171.563 128.937 171.563C128.577 171.563 128.307 171.463 128.127 171.263C127.947 171.043 127.857 170.743 127.857 170.363V162.413C127.857 159.573 126.517 158.153 123.837 158.153C122.077 158.153 120.657 158.673 119.577 159.713C118.517 160.753 117.987 162.133 117.987 163.853V170.363C117.987 170.723 117.887 171.013 117.687 171.233C117.507 171.453 117.237 171.563 116.877 171.563ZM141.877 178.793C140.437 178.793 139.137 178.583 137.977 178.163C136.817 177.743 135.877 177.133 135.157 176.333C134.997 176.173 134.917 175.973 134.917 175.733C134.917 175.433 135.077 175.173 135.397 174.953C135.597 174.813 135.787 174.743 135.967 174.743C136.267 174.743 136.567 174.903 136.867 175.223C137.347 175.743 137.987 176.163 138.787 176.483C139.587 176.803 140.547 176.963 141.667 176.963C143.627 176.963 145.127 176.493 146.167 175.553C147.207 174.613 147.727 173.253 147.727 171.473V168.653C147.047 169.553 146.157 170.293 145.057 170.873C143.957 171.433 142.677 171.713 141.217 171.713C138.677 171.713 136.717 171.033 135.337 169.673C133.957 168.313 133.267 166.493 133.267 164.213C133.267 162.673 133.567 161.313 134.167 160.133C134.787 158.933 135.707 157.993 136.927 157.313C138.147 156.613 139.647 156.263 141.427 156.263C142.747 156.263 143.937 156.533 144.997 157.073C146.057 157.613 146.967 158.383 147.727 159.383V157.403C147.727 157.083 147.827 156.813 148.027 156.593C148.247 156.373 148.517 156.263 148.837 156.263C149.157 156.263 149.417 156.373 149.617 156.593C149.817 156.793 149.917 157.063 149.917 157.403V171.473C149.917 172.973 149.577 174.273 148.897 175.373C148.237 176.473 147.297 177.313 146.077 177.893C144.857 178.493 143.457 178.793 141.877 178.793ZM141.427 169.763C142.507 169.763 143.517 169.553 144.457 169.133C145.417 168.713 146.197 168.073 146.797 167.213C147.397 166.333 147.697 165.263 147.697 164.003C147.697 162.883 147.457 161.883 146.977 161.003C146.497 160.123 145.797 159.433 144.877 158.933C143.957 158.413 142.857 158.153 141.577 158.153C139.637 158.153 138.137 158.683 137.077 159.743C136.017 160.783 135.487 162.273 135.487 164.213C135.487 165.933 135.987 167.293 136.987 168.293C138.007 169.273 139.487 169.763 141.427 169.763ZM155.59 153.083C155.15 153.083 154.77 152.943 154.45 152.663C154.15 152.363 154 152.003 154 151.583C154 151.163 154.15 150.803 154.45 150.503C154.77 150.203 155.15 150.053 155.59 150.053C156.03 150.053 156.41 150.213 156.73 150.533C157.07 150.833 157.24 151.183 157.24 151.583C157.24 151.983 157.07 152.333 156.73 152.633C156.41 152.933 156.03 153.083 155.59 153.083ZM155.59 171.563C155.25 171.563 154.98 171.463 154.78 171.263C154.6 171.043 154.51 170.743 154.51 170.363V157.463C154.51 157.083 154.6 156.793 154.78 156.593C154.98 156.373 155.25 156.263 155.59 156.263C155.95 156.263 156.22 156.373 156.4 156.593C156.6 156.793 156.7 157.083 156.7 157.463V170.363C156.7 170.743 156.6 171.043 156.4 171.263C156.22 171.463 155.95 171.563 155.59 171.563ZM162.58 171.563C162.24 171.563 161.97 171.463 161.77 171.263C161.59 171.043 161.5 170.743 161.5 170.363V157.463C161.5 157.083 161.59 156.793 161.77 156.593C161.95 156.373 162.22 156.263 162.58 156.263C162.92 156.263 163.18 156.373 163.36 156.593C163.56 156.793 163.66 157.083 163.66 157.463V159.233C164.4 158.253 165.29 157.513 166.33 157.013C167.39 156.513 168.55 156.263 169.81 156.263C171.71 156.263 173.17 156.793 174.19 157.853C175.23 158.913 175.75 160.433 175.75 162.413V170.363C175.75 170.743 175.65 171.043 175.45 171.263C175.25 171.463 174.98 171.563 174.64 171.563C174.28 171.563 174.01 171.463 173.83 171.263C173.65 171.043 173.56 170.743 173.56 170.363V162.413C173.56 159.573 172.22 158.153 169.54 158.153C167.78 158.153 166.36 158.673 165.28 159.713C164.22 160.753 163.69 162.133 163.69 163.853V170.363C163.69 170.723 163.59 171.013 163.39 171.233C163.21 171.453 162.94 171.563 162.58 171.563ZM187.16 171.563C184.56 171.563 182.55 170.893 181.13 169.553C179.71 168.213 179 166.313 179 163.853C179 161.493 179.72 159.643 181.16 158.303C182.6 156.943 184.57 156.263 187.07 156.263C188.61 156.263 189.98 156.513 191.18 157.013C192.38 157.493 193.31 158.183 193.97 159.083C194.65 159.963 194.99 160.973 194.99 162.113C194.99 162.953 194.75 163.603 194.27 164.063C193.81 164.523 193.17 164.753 192.35 164.753H181.25C181.25 166.293 181.77 167.503 182.81 168.383C183.85 169.243 185.3 169.673 187.16 169.673C188.3 169.673 189.28 169.553 190.1 169.313C190.92 169.053 191.69 168.643 192.41 168.083C192.79 167.763 193.1 167.603 193.34 167.603C193.52 167.603 193.69 167.683 193.85 167.843C194.13 168.083 194.27 168.333 194.27 168.593C194.27 168.793 194.15 169.013 193.91 169.253C193.09 170.033 192.13 170.613 191.03 170.993C189.93 171.373 188.64 171.563 187.16 171.563ZM191.69 162.983C192.05 162.983 192.32 162.913 192.5 162.773C192.68 162.613 192.77 162.333 192.77 161.933C192.77 161.213 192.53 160.563 192.05 159.983C191.57 159.403 190.89 158.953 190.01 158.633C189.15 158.313 188.17 158.153 187.07 158.153C185.29 158.153 183.88 158.593 182.84 159.473C181.82 160.333 181.31 161.503 181.31 162.983H191.69ZM205.734 171.563C203.134 171.563 201.124 170.893 199.704 169.553C198.284 168.213 197.574 166.313 197.574 163.853C197.574 161.493 198.294 159.643 199.734 158.303C201.174 156.943 203.144 156.263 205.644 156.263C207.184 156.263 208.554 156.513 209.754 157.013C210.954 157.493 211.884 158.183 212.544 159.083C213.224 159.963 213.564 160.973 213.564 162.113C213.564 162.953 213.324 163.603 212.844 164.063C212.384 164.523 211.744 164.753 210.924 164.753H199.824C199.824 166.293 200.344 167.503 201.384 168.383C202.424 169.243 203.874 169.673 205.734 169.673C206.874 169.673 207.854 169.553 208.674 169.313C209.494 169.053 210.264 168.643 210.984 168.083C211.364 167.763 211.674 167.603 211.914 167.603C212.094 167.603 212.264 167.683 212.424 167.843C212.704 168.083 212.844 168.333 212.844 168.593C212.844 168.793 212.724 169.013 212.484 169.253C211.664 170.033 210.704 170.613 209.604 170.993C208.504 171.373 207.214 171.563 205.734 171.563ZM210.264 162.983C210.624 162.983 210.894 162.913 211.074 162.773C211.254 162.613 211.344 162.333 211.344 161.933C211.344 161.213 211.104 160.563 210.624 159.983C210.144 159.403 209.464 158.953 208.584 158.633C207.724 158.313 206.744 158.153 205.644 158.153C203.864 158.153 202.454 158.593 201.414 159.473C200.394 160.333 199.884 161.503 199.884 162.983H210.264ZM218.068 171.563C217.728 171.563 217.458 171.463 217.258 171.263C217.078 171.043 216.988 170.743 216.988 170.363V157.463C216.988 157.083 217.078 156.793 217.258 156.593C217.438 156.373 217.708 156.263 218.068 156.263C218.408 156.263 218.668 156.373 218.848 156.593C219.048 156.793 219.148 157.083 219.148 157.463V159.263C220.508 157.463 222.388 156.563 224.788 156.563H225.538C225.918 156.563 226.218 156.653 226.438 156.833C226.658 156.993 226.768 157.223 226.768 157.523C226.768 157.823 226.658 158.053 226.438 158.213C226.218 158.373 225.918 158.453 225.538 158.453H224.698C222.998 158.453 221.648 158.943 220.648 159.923C219.668 160.883 219.178 162.193 219.178 163.853V170.363C219.178 170.723 219.078 171.013 218.878 171.233C218.698 171.453 218.428 171.563 218.068 171.563ZM230.766 153.083C230.326 153.083 229.946 152.943 229.626 152.663C229.326 152.363 229.176 152.003 229.176 151.583C229.176 151.163 229.326 150.803 229.626 150.503C229.946 150.203 230.326 150.053 230.766 150.053C231.206 150.053 231.586 150.213 231.906 150.533C232.246 150.833 232.416 151.183 232.416 151.583C232.416 151.983 232.246 152.333 231.906 152.633C231.586 152.933 231.206 153.083 230.766 153.083ZM230.766 171.563C230.426 171.563 230.156 171.463 229.956 171.263C229.776 171.043 229.686 170.743 229.686 170.363V157.463C229.686 157.083 229.776 156.793 229.956 156.593C230.156 156.373 230.426 156.263 230.766 156.263C231.126 156.263 231.396 156.373 231.576 156.593C231.776 156.793 231.876 157.083 231.876 157.463V170.363C231.876 170.743 231.776 171.043 231.576 171.263C231.396 171.463 231.126 171.563 230.766 171.563ZM237.756 171.563C237.416 171.563 237.146 171.463 236.946 171.263C236.766 171.043 236.676 170.743 236.676 170.363V157.463C236.676 157.083 236.766 156.793 236.946 156.593C237.126 156.373 237.396 156.263 237.756 156.263C238.096 156.263 238.356 156.373 238.536 156.593C238.736 156.793 238.836 157.083 238.836 157.463V159.233C239.576 158.253 240.466 157.513 241.506 157.013C242.566 156.513 243.726 156.263 244.986 156.263C246.886 156.263 248.346 156.793 249.366 157.853C250.406 158.913 250.926 160.433 250.926 162.413V170.363C250.926 170.743 250.826 171.043 250.626 171.263C250.426 171.463 250.156 171.563 249.816 171.563C249.456 171.563 249.186 171.463 249.006 171.263C248.826 171.043 248.736 170.743 248.736 170.363V162.413C248.736 159.573 247.396 158.153 244.716 158.153C242.956 158.153 241.536 158.673 240.456 159.713C239.396 160.753 238.866 162.133 238.866 163.853V170.363C238.866 170.723 238.766 171.013 238.566 171.233C238.386 171.453 238.116 171.563 237.756 171.563ZM262.756 178.793C261.316 178.793 260.016 178.583 258.856 178.163C257.696 177.743 256.756 177.133 256.036 176.333C255.876 176.173 255.796 175.973 255.796 175.733C255.796 175.433 255.956 175.173 256.276 174.953C256.476 174.813 256.666 174.743 256.846 174.743C257.146 174.743 257.446 174.903 257.746 175.223C258.226 175.743 258.866 176.163 259.666 176.483C260.466 176.803 261.426 176.963 262.546 176.963C264.506 176.963 266.006 176.493 267.046 175.553C268.086 174.613 268.606 173.253 268.606 171.473V168.653C267.926 169.553 267.036 170.293 265.936 170.873C264.836 171.433 263.556 171.713 262.096 171.713C259.556 171.713 257.596 171.033 256.216 169.673C254.836 168.313 254.146 166.493 254.146 164.213C254.146 162.673 254.446 161.313 255.046 160.133C255.666 158.933 256.586 157.993 257.806 157.313C259.026 156.613 260.526 156.263 262.306 156.263C263.626 156.263 264.816 156.533 265.876 157.073C266.936 157.613 267.846 158.383 268.606 159.383V157.403C268.606 157.083 268.706 156.813 268.906 156.593C269.126 156.373 269.396 156.263 269.716 156.263C270.036 156.263 270.296 156.373 270.496 156.593C270.696 156.793 270.796 157.063 270.796 157.403V171.473C270.796 172.973 270.456 174.273 269.776 175.373C269.116 176.473 268.176 177.313 266.956 177.893C265.736 178.493 264.336 178.793 262.756 178.793ZM262.306 169.763C263.386 169.763 264.396 169.553 265.336 169.133C266.296 168.713 267.076 168.073 267.676 167.213C268.276 166.333 268.576 165.263 268.576 164.003C268.576 162.883 268.336 161.883 267.856 161.003C267.376 160.123 266.676 159.433 265.756 158.933C264.836 158.413 263.736 158.153 262.456 158.153C260.516 158.153 259.016 158.683 257.956 159.743C256.896 160.783 256.366 162.273 256.366 164.213C256.366 165.933 256.866 167.293 257.866 168.293C258.886 169.273 260.366 169.763 262.306 169.763Z" fill="url(#paint3_linear)"/>
  <defs>
    <linearGradient id="paint0_linear" x1="108.644" y1="75.4005" x2="41.2078" y2="26.928" gradientUnits="userSpaceOnUse">
      <stop stop-color="#456563"/>
      <stop offset="0.20711" stop-color="#5A877E"/>
      <stop offset="0.440403" stop-color="#FDC343"/>
      <stop offset="0.700961" stop-color="#E99877"/>
      <stop offset="1" stop-color="#A4574E"/>
    </linearGradient>
    <linearGradient id="paint1_linear" x1="212.344" y1="108.943" x2="200.607" y2="69.773" gradientUnits="userSpaceOnUse">
      <stop stop-color="#456563"/>
      <stop offset="0.20711" stop-color="#5A877E"/>
      <stop offset="0.440403" stop-color="#FDC343"/>
      <stop offset="0.700961" stop-color="#E99877"/>
      <stop offset="1" stop-color="#A4574E"/>
    </linearGradient>
    <linearGradient id="paint2_linear" x1="376.6" y1="99.9089" x2="257.324" y2="-125.108" gradientUnits="userSpaceOnUse">
      <stop stop-color="#456563"/>
      <stop offset="0.20711" stop-color="#5A877E"/>
      <stop offset="0.440403" stop-color="#FDC343"/>
      <stop offset="0.700961" stop-color="#E99877"/>
      <stop offset="1" stop-color="#A4574E"/>
    </linearGradient>
    <linearGradient id="paint3_linear" x1="471.913" y1="183.59" x2="464.348" y2="101.098" gradientUnits="userSpaceOnUse">
      <stop stop-color="#456563"/>
      <stop offset="0.20711" stop-color="#5A877E"/>
      <stop offset="0.440403" stop-color="#FDC343"/>
      <stop offset="0.700961" stop-color="#E99877"/>
      <stop offset="1" stop-color="#A4574E"/>
    </linearGradient>
  </defs>
</svg>
