<svg width="1440" height="381" viewBox="0 0 1440 381" fill="none" xmlns="http://www.w3.org/2000/svg">
<g clip-path="url(#clip0_24_111)">
<path fill-rule="evenodd" clip-rule="evenodd" d="M213.859 28.4708C205.164 29.1145 196.761 31.6783 188.721 36.1384C179.23 41.4042 164.924 51.8752 158.479 58.274C156.263 60.4736 153.742 62.6976 152.877 63.2167C151.666 63.9426 151.304 64.4734 151.304 65.521C151.304 66.6614 151.872 67.3253 154.805 69.6104C159.432 73.2152 169.757 80.2755 175.579 83.8159C178.146 85.377 185.079 89.6447 190.984 93.2995C196.889 96.9543 204.347 101.474 207.556 103.343C213.778 106.966 237.906 119.902 247.081 124.533C250.119 126.067 253.866 127.964 255.406 128.75C260.863 131.534 286.15 143.231 290.867 145.155C291.391 145.368 296.23 147.354 301.622 149.568C321.355 157.672 337.02 163.241 351.531 167.314C358.456 169.257 361.793 169.778 362.278 168.994C362.499 168.638 363.506 169.092 365.324 170.368C368.301 172.456 370.315 174.398 369.917 174.796C369.776 174.937 368.322 174.745 366.686 174.37C365.049 173.995 362.24 173.449 360.442 173.156C351.424 171.686 329.666 165.574 316.97 160.942C313.407 159.643 308.286 157.775 305.59 156.792C302.894 155.81 298.588 154.127 296.02 153.054C293.453 151.981 287.886 149.676 283.649 147.933C279.413 146.19 273.531 143.681 270.578 142.358C258.886 137.12 226.865 121.231 217.593 116.066C200.565 106.582 169.545 87.5664 159.94 80.7246C157.501 78.9875 153.052 75.941 150.054 73.9547L144.602 70.3438L143.544 71.3292L142.486 72.3152L145.036 74.7632C146.439 76.11 150.208 79.0907 153.413 81.3875C162.063 87.5865 163.158 88.3091 180.543 99.2754C183.016 100.836 185.957 102.579 187.078 103.149C188.2 103.719 190.272 104.961 191.684 105.909C196.179 108.924 213.477 118.662 225.062 124.699C239.984 132.474 269.815 147.002 270.858 147.002C271.013 147.002 274.112 148.295 277.745 149.875C298.081 158.721 313.74 164.479 335.851 171.242C339.272 172.289 342.341 173.145 342.67 173.145C343 173.145 345.453 173.767 348.121 174.527C350.79 175.288 356.617 176.652 361.071 177.559C374.533 180.3 376.081 180.879 376.081 183.167C376.081 184.173 376.068 184.174 371.623 183.564C369.172 183.228 364.903 182.432 362.139 181.795C359.374 181.159 354.921 180.214 352.242 179.696C349.563 179.178 345.796 178.312 343.87 177.771C341.944 177.23 338.268 176.275 335.701 175.649C307.898 168.872 271.655 155.128 238.6 138.826C203.203 121.368 175.911 104.876 141.267 80.0066C139.341 78.6243 137.6 77.4825 137.396 77.4694C137.193 77.4559 136.574 77.8671 136.019 78.3835L135.013 79.3213L137.089 81.4673C142.158 86.7037 154.078 95.2205 177.68 110.468C187.208 116.624 198.072 122.917 215.869 132.59C230.207 140.383 254.347 151.896 270.578 158.681C286.79 165.457 313.433 174.861 326.597 178.452C339.353 181.932 366.437 187.748 372.813 188.377C376.721 188.762 377.482 189.173 377.482 190.9C377.482 192.177 377.351 192.285 375.812 192.285C372.176 192.285 358.829 190.095 350.172 188.078C347.091 187.36 343.625 186.642 342.47 186.481C339.996 186.137 328.525 183.444 321.229 181.494C309.92 178.473 277.82 167.307 261.942 160.871C239.939 151.954 198.362 130.663 179.049 118.424C163.339 108.468 150.854 99.8496 139.636 91.2165C129.712 83.5797 130.274 83.9051 128.619 84.8462C127.876 85.2687 127.267 85.7411 127.265 85.8961C127.264 86.0511 129.206 88.0552 131.58 90.3496C140.753 99.2119 164.621 115.846 185.849 128.171C198.859 135.726 204.771 138.928 219.227 146.251C256.309 165.036 293.761 179.468 326.597 187.624C344.669 192.113 363.283 195.698 371.529 196.277L376.081 196.597V197.942V199.287H372.662C369.165 199.287 352.938 197.331 349.359 196.478C348.266 196.217 343.275 195.178 338.268 194.169C326.997 191.897 317.476 189.67 307.457 186.963C291.745 182.718 263.768 172.853 249.104 166.388C247.178 165.539 243.502 163.961 240.935 162.882C208.725 149.339 174.635 130.218 148.036 110.772C140.007 104.902 128.059 95.5156 124.831 92.5414C123.623 91.4275 122.452 90.5163 122.228 90.5163C122.005 90.5163 121.337 91.0335 120.743 91.6661C119.681 92.7963 119.677 92.8378 120.513 94.1169C123.037 97.9804 135.086 108.298 146.636 116.484C165.787 130.06 180.28 139 198.92 148.738C216.825 158.093 229.933 164.293 246.77 171.374C275.366 183.399 306.945 193.522 330.099 198.084C333.436 198.742 337.638 199.602 339.435 199.996C346.866 201.624 360.405 203.585 366.652 203.938C370.324 204.145 373.457 204.443 373.614 204.6C373.77 204.757 373.645 205.442 373.335 206.123L372.77 207.361L362.171 207.068C334.579 206.303 298.796 198.698 259.608 185.271C247.689 181.187 235.139 176.363 227.87 173.07C225.042 171.789 221.009 170.007 218.908 169.108C214.121 167.062 189.516 154.722 185.807 152.507C184.289 151.601 179.897 149.001 176.046 146.73C163.9 139.568 145.015 126.757 135.899 119.495C129.243 114.194 117.161 103.58 115.171 101.286C114.042 99.9845 112.87 98.9192 112.569 98.9192C111.953 98.9192 109.99 100.864 109.99 101.475C109.99 102.286 114.042 107.207 117.44 110.523C129.512 122.3 151.57 138.676 169.277 149.007C184.977 158.167 189.484 160.638 200.788 166.28C219.98 175.86 229.229 179.934 246.037 186.212C259.818 191.359 282.518 198.675 292.286 201.117C293.313 201.374 296.044 202.129 298.354 202.795C310.869 206.402 318.533 208.025 332.666 210.064C334.592 210.341 337.277 210.777 338.633 211.033C343.211 211.895 353.862 212.719 361.356 212.791C365.453 212.831 368.893 212.951 369 213.057C369.744 213.802 363.113 221.812 361.043 222.67C358.701 223.64 342.383 222.908 330.099 221.283C312.551 218.961 312.129 218.898 306.057 217.678C277.755 211.992 252.52 204.105 225.529 192.509C214.112 187.604 192.475 176.793 182.581 171.05C180.27 169.708 176.279 167.39 173.712 165.897C167.986 162.569 149.095 149.902 143.368 145.551C125.702 132.129 110.367 118.592 105.484 112.107C104.082 110.245 102.751 108.723 102.526 108.723C101.918 108.723 100.186 111.314 100.186 112.224C100.186 115.068 113.392 128.959 124.116 137.396C126.232 139.06 130.063 142.076 132.631 144.098C148.058 156.248 162.181 165.773 181.414 177.002C187.196 180.378 211.391 192.597 216.193 194.567C218.247 195.41 221.293 196.701 222.962 197.436C234.192 202.382 244.156 206.206 254.473 209.531C257.81 210.607 261.802 211.905 263.342 212.416C264.883 212.927 266.563 213.425 267.077 213.523C267.59 213.622 268.956 214.009 270.111 214.384C271.267 214.759 273.578 215.425 275.246 215.864C276.915 216.303 278.701 216.849 279.214 217.076C279.728 217.303 282.564 218.009 285.517 218.644C288.469 219.28 292.041 220.123 293.453 220.517C296.062 221.247 299.099 221.871 303.723 222.629C310.183 223.689 312.321 224.095 312.712 224.336C312.944 224.479 313.905 224.661 314.847 224.739C315.789 224.818 318.451 225.216 320.762 225.623C326.502 226.634 337.425 227.736 346.588 228.229C353.589 228.606 355.541 229.008 355.541 230.075C355.541 230.761 350.442 236.914 348.992 237.978C347.482 239.086 347.447 239.089 337.854 238.83C331.355 238.654 326.564 238.27 323.096 237.648C320.272 237.141 317.646 236.724 317.261 236.723C314.806 236.712 307.018 235.528 300.222 234.133C295.857 233.237 290.062 232.072 287.343 231.544C284.625 231.017 279.268 229.715 275.439 228.651C271.61 227.587 267.847 226.564 267.077 226.376C261.074 224.919 241.885 218.271 231.598 214.085C206.649 203.934 187.924 194.411 168.11 181.795C166.826 180.979 163.885 179.107 161.574 177.638C153.215 172.323 137.245 160.637 130.297 154.752C117.552 143.958 104.405 130.797 98.9427 123.366C94.6096 117.471 94.7543 117.604 93.3627 118.23C92.3567 118.683 92.2218 118.986 92.4304 120.326C93.4985 127.187 115.452 150.521 133.378 163.845C134.559 164.724 138.002 167.333 141.029 169.643C148.648 175.461 155.232 179.971 166.009 186.759C185.996 199.349 200.707 206.943 224.773 217.098C240.757 223.843 276.61 235.229 281.871 235.232C282.562 235.232 283.242 235.418 283.383 235.646C283.523 235.873 284.638 236.205 285.861 236.383C287.084 236.561 291.13 237.342 294.853 238.117C298.576 238.893 302.672 239.719 303.956 239.953C307.795 240.653 328.9 243.644 329.28 243.542C329.473 243.49 330.892 243.598 332.433 243.782C333.973 243.967 336.809 244.234 338.735 244.377C340.661 244.52 342.431 244.827 342.67 245.06C342.934 245.318 341.984 246.605 340.239 248.35C337.889 250.7 337.173 251.165 336.263 250.937C335.652 250.784 332.545 250.431 329.358 250.153C305.236 248.048 283.906 244.15 264.108 238.228C261.119 237.334 257.519 236.276 256.107 235.877C253.578 235.162 252.279 234.708 239.768 230.165C236.301 228.906 232.94 227.716 232.298 227.521C231.656 227.325 227.035 225.434 222.028 223.318C203.998 215.7 181.112 203.789 163.908 193.069C157.633 189.159 142.923 178.753 132.634 170.945C117.9 159.764 100.183 141.703 92.1279 129.651C89.749 126.092 89.002 125.295 88.0488 125.295C83.9617 125.295 89.4586 134.884 101.696 149.103C107.231 155.534 111.859 159.922 122.168 168.512C142.019 185.053 162.155 198.759 183.512 210.27C194.438 216.158 210.325 223.97 215.726 226.111C217.523 226.823 221.515 228.466 224.596 229.761C233.681 233.58 250.685 239.584 260.604 242.475C268.244 244.702 284.501 248.716 289.018 249.492C291.072 249.844 294.223 250.459 296.02 250.856C303.011 252.405 311.618 253.512 323.33 254.369C331.446 254.964 332.666 255.143 332.666 255.742C332.666 255.972 331.563 257.044 330.215 258.124L327.764 260.087L320.062 259.826C306.478 259.366 285.784 255.878 268.244 251.093C230.141 240.699 195.428 225.555 160.407 204.048C151.924 198.839 147.882 196.026 135.95 187.03C123.438 177.595 122.236 176.612 114.425 169.416C100.854 156.917 92.5789 147.809 86.1567 138.304C83.8375 134.872 81.8302 132.064 81.6962 132.064C80.9572 132.064 79.6459 133.127 79.6459 133.726C79.6459 135.642 84.9126 144.504 88.9236 149.337C92.3511 153.466 103.58 165.661 106.797 168.748C124.21 185.454 145.044 200.949 168.434 214.592C191.684 228.154 218.145 240.192 244.202 249.064C257.191 253.486 280.631 259.653 290.185 261.163C295.845 262.057 301.083 262.879 307.691 263.909C310.258 264.31 314.71 264.639 317.583 264.64C320.457 264.641 322.927 264.835 323.072 265.07C323.218 265.306 322.235 266.461 320.89 267.638C318.52 269.712 318.35 269.778 315.401 269.776C310.983 269.774 302.551 268.969 295.32 267.86C282.048 265.823 277.799 265.026 269.366 262.992C230.095 253.52 186.968 234.592 151.27 211.161C142.143 205.171 133.88 199.334 128.896 195.357C126.585 193.513 122.496 190.267 119.808 188.143C104.377 175.95 89.2625 159.827 78.7617 144.358C75.5448 139.619 74.7372 138.993 73.981 140.652C73.0875 142.614 77.6582 150.571 84.8697 159.607C95.2757 172.645 109.72 186.468 126.015 198.981C158.505 223.932 190.923 241.678 230.658 256.265C238.18 259.027 255.338 264.457 263.576 266.684C274.93 269.753 300.476 273.974 307.771 273.986C312.75 273.995 313.545 274.336 312.457 275.996C311.629 277.26 297.598 289.358 295.934 290.243C292.567 292.033 270.005 289.394 256.34 285.61C244.64 282.371 226.25 276.395 218.76 273.398C215.551 272.113 211.875 270.652 210.591 270.15C197.07 264.862 172.273 252.62 158.54 244.452C136.053 231.077 119.932 219.047 100.186 200.905C87.1147 188.896 80.4045 181.371 71.8714 169.153C68.9285 164.939 68.148 161.419 68.6171 154.472C69.1129 147.121 69.1689 147.095 71.9512 152.895C75.2568 159.787 81.1164 167.756 88.6883 175.657C91.3577 178.442 95.9848 182.17 96.3364 181.818C96.5399 181.615 94.2987 178.49 92.8898 177.012C92.5919 176.7 90.5542 174.074 88.3616 171.177C86.1684 168.279 83.2297 164.563 81.8306 162.917C80.4316 161.272 78.5927 158.751 77.7436 157.316C75.332 153.236 70.3075 146.069 69.8589 146.069C68.8538 146.069 62.8975 154.86 60.5289 159.84C57.5468 166.111 55.8821 173.644 55.5259 182.481C55.278 188.638 55.3406 189.247 57.0347 197.186C59.0117 206.453 65.1887 218.91 72.6603 228.697C73.3461 229.596 75.542 232.531 77.54 235.22C85.6129 246.084 101.329 263.408 127.252 290.016C132.405 295.306 148.535 310.038 155.739 316.035C183.928 339.503 200.223 349.048 217.518 352.227C228.781 354.297 243.599 351.026 255.952 343.744C265.132 338.333 280.139 326.557 292.752 314.866C295.577 312.248 300.005 308.194 302.592 305.856C322.755 287.638 349.939 258.614 367.815 236.216C376.945 224.777 379.881 220.503 383.087 213.99C389 201.977 391.27 191.425 390.154 181.135C389.466 174.792 388.016 170.282 384.197 162.603C378.507 151.165 372.987 144.874 342.017 114.535C328.022 100.824 313.8 87.3956 310.438 84.7164C309.125 83.6698 304.293 79.5636 299.701 75.5914C295.109 71.6191 289.986 67.3379 288.318 66.077C286.649 64.8165 284.534 63.1299 283.619 62.3288C266.935 47.7302 253.409 38.1593 243.502 33.9425C232.965 29.4572 223.682 27.7435 213.859 28.4708ZM223.195 35.1646C230.135 36.1926 237.154 38.3003 242.758 41.0378C244.969 42.118 246.889 43.1824 247.026 43.4027C247.29 43.8308 245.587 43.1422 243.232 41.8687C240.54 40.4127 230.677 37.3993 225.763 36.5305C222.144 35.891 218.579 35.6651 212.143 35.6683C207.348 35.6707 203.53 35.567 203.659 35.4377C204.423 34.674 218.553 34.4765 223.195 35.1646ZM202.538 36.2066C202.217 36.3363 201.692 36.3363 201.371 36.2066C201.05 36.0773 201.313 35.9713 201.955 35.9713C202.596 35.9713 202.859 36.0773 202.538 36.2066ZM200.428 36.6463C200.273 36.8013 199.87 36.8181 199.533 36.6832C199.161 36.5343 199.271 36.4236 199.815 36.4012C200.307 36.3812 200.583 36.4913 200.428 36.6463ZM198.337 37.1402C198.016 37.27 197.491 37.27 197.17 37.1402C196.849 37.0109 197.111 36.9049 197.753 36.9049C198.395 36.9049 198.658 37.0109 198.337 37.1402ZM221.435 44.1156C221.28 44.2705 220.877 44.2873 220.54 44.1524C220.168 44.0035 220.278 43.8929 220.822 43.8705C221.314 43.8504 221.59 43.9606 221.435 44.1156ZM211.291 45.953C214.757 46.5748 220.429 48.0066 223.895 49.1344C227.362 50.2627 230.933 51.343 231.831 51.5348C232.73 51.7272 234.411 52.3541 235.566 52.9278C236.722 53.5016 240.143 54.8881 243.171 56.008C247.41 57.577 249.501 58.6712 252.274 60.7696C254.253 62.2677 256.705 63.9286 257.721 64.4599C259.517 65.3987 264.04 68.3803 264.509 68.9353C264.638 69.0871 263.903 68.7243 262.875 68.1296C261.848 67.5349 259.643 66.3085 257.974 65.4038C256.305 64.4996 253.889 62.9693 252.605 62.003C250.397 60.3415 244.79 57.9402 235.333 54.6047C233.022 53.7901 228.524 52.1814 225.336 51.0302C216.57 47.8632 207.798 46.178 195.846 45.3638C191.029 45.0357 190.786 44.9782 193.318 44.7663C198.23 44.3555 204.805 44.7896 211.291 45.953ZM223.769 44.5824C223.614 44.7374 223.211 44.7542 222.874 44.6193C222.502 44.4703 222.613 44.3597 223.156 44.3373C223.648 44.3172 223.924 44.4274 223.769 44.5824ZM189.691 45.516C189.536 45.671 189.133 45.6878 188.796 45.5529C188.424 45.404 188.534 45.2934 189.078 45.2709C189.57 45.2509 189.846 45.361 189.691 45.516ZM227.504 45.516C227.349 45.671 226.946 45.6878 226.609 45.5529C226.237 45.404 226.347 45.2934 226.891 45.2709C227.383 45.2509 227.659 45.361 227.504 45.516ZM204.989 50.1232C213.47 51.1506 218.629 52.1506 220.587 53.1468C221.508 53.6155 223.837 54.4595 225.763 55.0225C231.47 56.6909 244.961 61.9535 249.277 64.1947C250.527 64.8441 253.258 66.4854 255.346 67.842C257.433 69.1986 260.821 71.2083 262.875 72.3077C274.522 78.5417 273.906 78.1374 279.972 83.5064C282.442 85.693 286.578 89.3357 289.163 91.6017C291.748 93.8677 294.138 96.0734 294.475 96.5034C294.811 96.9333 294.246 96.5482 293.219 95.6467C289.577 92.4513 285.63 89.6242 285.268 89.951C285.066 90.1335 285.032 90.0513 285.194 89.768C285.435 89.3446 280.818 85.4447 272.647 79.1705C272.044 78.7074 270.018 77.4769 268.146 76.4359C266.274 75.3944 262.642 73.3707 260.075 71.9384C254.496 68.8266 246.706 64.9477 240.935 62.4077C233.409 59.0965 217.059 53.805 211.758 52.9652C209.062 52.538 204.861 51.8523 202.421 51.4415C199.887 51.0148 194.587 50.6441 190.05 50.5769C185.686 50.5125 180.802 50.4392 179.197 50.4144C176.387 50.371 175.165 49.6689 177.329 49.3417C180.125 48.9192 199.593 49.4691 204.989 50.1232ZM197.354 54.1229C202.663 54.657 215.128 57.2707 220.628 59.0031C233.066 62.9217 245.641 68.3723 253.744 73.3581C255.429 74.394 258.776 76.3677 261.184 77.7434C263.591 79.1192 266.952 81.2638 268.653 82.5093C270.354 83.7548 273.023 85.63 274.585 86.6762C276.147 87.7223 280.566 91.2726 284.405 94.5656C295.482 104.068 301.942 109.486 303.956 110.962C304.983 111.715 306.349 112.905 306.991 113.607C307.633 114.309 309.523 115.961 311.192 117.277C315.358 120.563 332.008 134.803 339.669 141.631C343.135 144.72 347.966 148.961 350.406 151.055C352.845 153.149 356.311 156.38 358.108 158.234L361.376 161.606L356.057 157.222C351.079 153.118 349.708 152.028 344.337 147.906C341.98 146.097 342.274 146.349 331.775 137.145C327.561 133.452 322.309 128.973 320.104 127.191C314.176 122.403 301.525 111.584 292.562 103.638C287.878 99.485 279.751 92.983 276.18 90.5331C275.281 89.9164 272.656 88.0216 270.345 86.3223C266.66 83.6129 262.358 80.9823 255.873 77.4731C254.846 76.9172 252.43 75.5302 250.505 74.3907C240.637 68.5516 226.118 62.8806 214.092 60.1679C201 57.2147 196.817 56.6909 186.783 56.7498C173.579 56.8277 169.087 57.3879 163.086 59.7057C160.398 60.7439 157.823 62.009 157.363 62.5169C156.546 63.4198 156.563 63.4403 158.118 63.4403C158.992 63.4403 162.334 62.8736 165.543 62.1813C171.023 60.9988 172.115 60.9213 183.515 60.9078C196.585 60.8924 198.515 61.1029 211.291 63.9384C220.706 66.0279 224.533 67.3141 234.315 71.6766C242.835 75.4756 247.027 77.6342 258.907 84.3406C270.783 91.0433 282.327 99.4798 296.449 111.774C298.524 113.58 303.478 117.754 307.457 121.048C319.634 131.127 322.044 133.151 324.482 135.346C329.054 139.463 332.474 142.326 345.037 152.554C355.956 161.444 360.397 165.209 359.964 165.209C359.806 165.209 360.005 165.539 360.409 165.942C361.735 167.268 361.175 167.678 359.625 166.517C357.963 165.272 354.152 163.68 350.872 162.862C344.932 161.379 328.506 155.754 319.641 152.168C318.461 151.69 316.234 150.826 314.693 150.248C310.795 148.785 298.79 143.876 296.254 142.708C295.098 142.176 290.477 140.112 285.983 138.12C263.731 128.256 239.19 115.944 216.66 103.342C213.322 101.475 209.541 99.3706 208.257 98.6662C206.973 97.9617 205.397 97.0192 204.756 96.572C204.114 96.1247 200.437 93.9134 196.586 91.6582C192.735 89.4029 187.127 85.9652 184.124 84.0185C181.121 82.0723 175.062 78.1687 170.66 75.3444C163.277 70.6075 159.784 68.1133 155.752 64.6984L154.205 63.3885L155.716 61.8298C157.765 59.7155 165.209 55.705 168.244 55.0809C169.601 54.8017 175.168 54.4422 180.615 54.2821C186.061 54.1225 190.605 53.9119 190.712 53.8144C191.008 53.5441 192.098 53.5945 197.354 54.1229ZM302.217 103.705C304.341 105.768 306.009 107.526 305.923 107.612C305.642 107.893 296.867 99.9117 295.997 98.5849L295.151 97.2932L296.753 98.6242C297.634 99.3557 300.092 101.642 302.217 103.705ZM307.517 108.606C308.097 109.346 308.081 109.363 307.341 108.782C306.563 108.172 306.316 107.789 306.7 107.789C306.797 107.789 307.165 108.157 307.517 108.606ZM312.794 112.879C312.671 113.001 312.208 112.723 311.764 112.261C310.995 111.457 311.004 111.446 311.988 112.037C312.554 112.377 312.917 112.756 312.794 112.879ZM315.775 115.141C316.115 115.463 316.205 115.725 315.975 115.725C315.745 115.725 315.047 115.154 314.424 114.455C313.594 113.524 313.541 113.368 314.225 113.872C314.737 114.249 315.435 114.821 315.775 115.141ZM320.529 119.572C320.529 120.135 320.269 119.996 319.317 118.926C318.431 117.93 318.432 117.929 319.478 118.572C320.056 118.927 320.529 119.377 320.529 119.572ZM342.236 138.599C342.701 139.113 342.976 139.533 342.848 139.533C342.719 139.533 342.234 139.113 341.769 138.599C341.305 138.086 341.029 137.666 341.158 137.666C341.286 137.666 341.772 138.086 342.236 138.599ZM64.0828 166.259C63.9535 166.58 63.8475 166.317 63.8475 165.675C63.8475 165.034 63.9535 164.771 64.0828 165.092C64.2126 165.413 64.2126 165.938 64.0828 166.259ZM64.277 175.946C65.2153 184.761 66.6658 189.906 71.1198 200.221C74.2316 207.427 76.3632 211.161 82.8469 220.761C89.4871 230.593 91.6093 233.561 94.3589 236.867C96.4783 239.414 99.4254 243.636 99.0836 243.636C98.5893 243.636 86.8322 228.308 81.5874 220.825C74.1434 210.206 68.7245 199.924 66.5691 192.329C64.4502 184.863 63.665 180.078 63.5357 173.845C63.4615 170.25 63.4801 168.15 63.5777 169.177C63.6753 170.204 63.9899 173.25 64.277 175.946ZM72.1547 175.245C73.6052 177.043 75.5453 179.459 76.4663 180.614C88.0455 195.137 112.291 217.189 132.776 231.83C139.976 236.975 154.35 246.437 154.967 246.437C155.138 246.437 157.85 247.976 160.993 249.857C174.475 257.924 192.617 266.647 215.726 276.173C221.97 278.747 234.456 283.018 247.47 287.033C256.529 289.827 269.558 292.641 279.868 294.03C285.62 294.804 290.415 295.528 290.525 295.638C290.635 295.748 289.711 296.434 288.471 297.163C286.53 298.304 285.628 298.51 281.977 298.647C277.055 298.831 265.936 297.664 260.541 296.397C258.487 295.914 254.986 295.186 252.759 294.778C244.818 293.324 220.704 285.268 202.934 278.133C192.742 274.041 166.461 261.096 159.473 256.726C157.548 255.521 154.187 253.523 152.004 252.285C149.822 251.046 146.881 249.148 145.469 248.066C144.056 246.983 141.246 245.176 139.223 244.05C137.201 242.923 134.68 241.252 133.621 240.337C132.563 239.422 128.349 236.165 124.258 233.101C120.167 230.037 115.44 226.267 113.755 224.723C112.069 223.18 109.219 220.742 107.422 219.306C102.895 215.689 96.5301 209.723 91.2965 204.189C88.8685 201.621 85.6806 198.47 84.2129 197.186C82.7452 195.902 81.424 194.504 81.2775 194.078C81.1309 193.653 80.6972 193.184 80.3139 193.037C79.1725 192.599 81.7998 196.764 85.4346 201.154C91.254 208.183 98.2219 215.281 103.454 219.511C105.38 221.067 108.651 223.823 110.724 225.636C112.797 227.448 116.263 230.341 118.427 232.065C120.59 233.788 124.041 236.556 126.095 238.215C131.994 242.979 153.996 257.434 162.848 262.362C177.699 270.628 201.235 281.642 213.158 285.905C238.045 294.803 245.413 297.116 256.807 299.609C259.273 300.148 273.483 302.361 277.216 302.787C279.16 303.009 279.366 303.137 278.969 303.879C278.721 304.342 277.31 305.296 275.832 306L273.146 307.28L265.676 306.744C261.043 306.412 256.258 305.75 253.072 305.001C250.248 304.337 246.151 303.414 243.969 302.949C241.787 302.485 239.161 301.749 238.134 301.315C237.107 300.88 232.38 299.266 227.63 297.729C215.812 293.902 211.673 292.369 207.425 290.243C205.427 289.244 202.696 287.995 201.356 287.47C193.785 284.497 178.25 277.27 174.916 275.168C173.997 274.589 171.039 272.896 168.343 271.408C165.647 269.918 161.403 267.42 158.912 265.855C156.421 264.289 153.375 262.392 152.143 261.637C138.111 253.043 123.197 241.798 106.536 227.251C104.507 225.48 101.549 223.305 99.9627 222.418C96.8751 220.691 95.1922 219.008 90.3423 212.796C85.4766 206.563 81.0739 199.427 79.5759 195.345C77.4994 189.686 71.2519 179.049 70.4662 179.835C69.9597 180.341 71.834 186.978 73.7219 191.361C77.6764 200.543 79.2258 203.528 82.6322 208.526C84.506 211.276 88.2934 216.886 91.0491 220.994C93.8043 225.103 96.8452 229.304 97.8059 230.331C100.247 232.939 107.189 241.209 107.189 241.507C107.189 242.268 97.2752 230.645 92.6652 224.481C81.2896 209.268 79.8018 207.032 76.0271 199.476C73.0926 193.602 71.4003 188.996 70.2977 183.882C69.8271 181.699 69.1199 178.653 68.7254 177.113C68.3309 175.572 68.0093 173.156 68.0107 171.744L68.0126 169.177L68.7651 170.577C69.1792 171.347 70.7043 173.448 72.1547 175.245ZM59.4244 185.37C59.2754 185.742 59.1648 185.631 59.1424 185.088C59.1223 184.595 59.2325 184.32 59.3875 184.475C59.5425 184.63 59.5593 185.033 59.4244 185.37ZM60.0392 188.242C60.0392 190.342 61.6152 196.373 63.3172 200.786C64.7219 204.43 65.066 205.786 64.2145 204.325C63.2537 202.678 60.5485 194.27 60.0396 191.351C59.7488 189.682 59.4393 187.949 59.352 187.5C59.2647 187.051 59.3833 186.683 59.6162 186.683C59.8487 186.683 60.0392 187.384 60.0392 188.242ZM102.036 225.779C108.102 231.853 117.967 240.876 121.149 243.262C122.279 244.109 123.879 245.328 124.704 245.97C127.006 247.761 130.847 250.659 134.959 253.708C138.983 256.692 143.612 259.686 159.845 269.804C161.309 270.717 164.532 272.546 167.006 273.869C169.479 275.192 172.63 276.941 174.008 277.756C177.395 279.76 194.648 288.254 199.855 290.482C202.165 291.47 206.051 293.131 208.49 294.172C215.036 296.966 236.298 304.754 239.534 305.543C241.075 305.918 244.856 307.04 247.937 308.036C253.041 309.685 257.433 310.699 263.809 311.703L266.143 312.07L264.147 313.345C261.735 314.886 257.078 315.456 250.808 314.979C246.04 314.616 244.406 314.262 234.866 311.526C217.374 306.509 196.345 297.802 181.297 289.346C179.051 288.084 175.269 285.966 172.895 284.639C165.509 280.515 149.719 270.264 143.134 265.319C140.695 263.487 137.334 261.033 135.665 259.864C133.996 258.696 131.419 256.675 129.939 255.373C128.457 254.071 124.781 251.041 121.769 248.64C114.301 242.687 102.787 230.498 96.932 222.344C94.3556 218.756 96.3882 220.124 102.036 225.779ZM109.116 243.519C109.696 244.259 109.68 244.276 108.939 243.695C108.162 243.085 107.915 242.702 108.299 242.702C108.395 242.702 108.763 243.07 109.116 243.519ZM103.474 248.771C105.09 250.696 106.725 252.64 107.107 253.089C107.488 253.538 107.685 253.906 107.545 253.906C107.292 253.906 101.466 247.062 100.194 245.269C99.0748 243.693 100.392 245.099 103.474 248.771ZM124.228 257.297C125.914 258.992 123.831 257.522 120.026 254.333C117.972 252.611 115.241 250.097 113.958 248.747C111.904 246.587 121.624 254.679 124.228 257.297ZM132.631 262.381C134.428 263.614 136.739 265.238 137.766 265.992C142.646 269.57 151.498 275.765 153.171 276.773C154.198 277.392 156.749 279.005 158.84 280.358C170.313 287.779 194.536 300.535 205.222 304.784C224.77 312.555 243.509 318.355 251.457 319.093C255.453 319.465 254.942 319.927 249.747 320.638C245.518 321.217 244.221 321.113 239.534 319.818C237.737 319.322 233.745 318.239 230.664 317.411C220.747 314.748 214.002 312.699 212.276 311.825C211.349 311.357 209.12 310.442 207.323 309.791C201.566 307.71 190.939 302.668 184.215 298.828C174.383 293.212 161.44 285.054 155.532 280.748C150.464 277.054 142.923 271.448 142.668 271.184C142.4 270.907 137.513 267.028 132.397 263.031C126.731 258.603 126.808 258.387 132.631 262.381ZM144.535 278.445C146.974 280.26 150.545 282.587 152.471 283.616C154.397 284.644 159.478 287.782 163.764 290.587C179.134 300.647 195.575 309.679 204.522 312.978C218.963 318.3 231.212 321.861 233.783 321.484C234.613 321.362 235.156 321.537 235.326 321.981C236.022 323.794 223.597 321.288 210.357 316.944C198.041 312.903 182.27 304.317 162.547 290.914C159.231 288.661 154.526 285.714 152.091 284.366C147.713 281.942 145.285 280.197 141.334 276.635C138.561 274.135 139.312 274.561 144.535 278.445ZM176.279 305.46C189.66 313.995 206.912 321.507 220.861 324.874C227.415 326.456 228.314 326.584 236.033 327.04C240.64 327.311 241.475 327.457 240.001 327.731C234.855 328.686 220.93 327.114 215.01 324.909C213.607 324.386 210.673 323.438 208.49 322.801C203.338 321.297 198.451 319.081 188.417 313.698C180.688 309.552 168.181 301.444 164.608 298.265C163.489 297.269 164.078 297.54 166.476 299.125C168.401 300.399 172.813 303.249 176.279 305.46ZM255.406 338.868C255.248 339.125 254.868 339.332 254.562 339.328C254.228 339.323 254.285 339.14 254.706 338.868C255.603 338.288 255.764 338.288 255.406 338.868ZM247.704 341.669C247.318 341.918 246.793 342.122 246.537 342.122C246.28 342.122 246.385 341.918 246.77 341.669C247.155 341.42 247.68 341.217 247.937 341.217C248.194 341.217 248.089 341.42 247.704 341.669Z" fill="currentColor"/>
<path d="M512.249 137.503V160.754C504.394 155.936 495.649 153.527 486.013 153.527C477.53 153.527 470.408 156.512 464.648 162.482C458.888 168.347 456.007 176.254 456.007 186.204C456.007 195.944 458.888 203.694 464.648 209.455C470.408 215.11 477.844 217.938 486.956 217.938C496.801 217.938 505.232 215.424 512.249 210.397V234.119C505.86 238.099 496.644 240.089 484.6 240.089C469.099 240.089 456.112 235.114 445.639 225.165C435.27 215.11 430.086 202.123 430.086 186.204C430.086 170.075 435.113 156.931 445.167 146.772C455.327 136.613 468.523 131.533 484.757 131.533C496.696 131.533 505.86 133.523 512.249 137.503ZM552.511 127.763V172.693C556.596 163.163 564.555 158.397 576.39 158.397C584.14 158.397 590.424 160.858 595.242 165.781C600.165 170.703 602.626 178.139 602.626 188.089V238.832H579.689V191.702C579.689 187.094 578.537 183.481 576.233 180.862C573.929 178.244 570.944 176.935 567.278 176.935C565.707 176.935 564.189 177.197 562.722 177.72C561.361 178.139 559.842 178.977 558.167 180.234C556.491 181.386 555.129 183.428 554.082 186.361C553.035 189.189 552.511 192.645 552.511 196.73V238.832H529.574V127.763H552.511ZM660.137 206.156H652.753C648.878 206.156 645.893 206.993 643.798 208.669C641.704 210.345 640.656 212.492 640.656 215.11C640.656 220.452 643.746 223.122 649.925 223.122C653.172 223.122 655.686 222.127 657.466 220.137C659.247 218.148 660.137 215.424 660.137 211.968V206.156ZM622.904 183.69V163.11C629.188 159.549 638.247 157.769 650.082 157.769C661.394 157.769 669.825 160.23 675.375 165.152C680.926 169.97 683.702 177.511 683.702 187.775V238.832H661.236V229.092C657.885 235.9 651.287 239.304 641.442 239.304C633.692 239.304 627.617 237.104 623.218 232.705C618.924 228.307 616.777 222.808 616.777 216.21C616.777 208.564 619.553 202.647 625.103 198.458C630.759 194.164 639.085 192.017 650.082 192.017H660.137V186.518C660.137 179.815 655.686 176.464 646.783 176.464C638.195 176.464 630.235 178.873 622.904 183.69ZM728.259 175.992V212.597C728.259 215.424 729.045 217.572 730.616 219.038C732.291 220.504 734.438 221.237 737.057 221.237C741.246 221.237 744.964 220.19 748.211 218.095V237.104C744.336 238.78 739.099 239.618 732.501 239.618C714.382 239.618 705.323 230.558 705.323 212.44V175.992H693.854V159.183H705.323V140.331H728.259V159.183H746.797V175.992H728.259ZM787.917 219.038H798.914C808.654 219.038 816.142 216.001 821.379 209.926C826.72 203.851 829.391 195.263 829.391 184.162C829.391 174.736 826.72 167.195 821.379 161.539C816.038 155.779 808.497 152.899 798.757 152.899H787.917V219.038ZM763.095 132.947H799.542C815.462 132.947 828.501 137.869 838.66 147.714C848.819 157.455 853.899 169.604 853.899 184.162C853.899 201.128 848.872 214.482 838.817 224.222C828.867 233.962 815.671 238.832 799.228 238.832H763.095V132.947ZM870.334 238.832V159.183H893.271V238.832H870.334ZM872.376 145.515C869.758 142.897 868.449 139.755 868.449 136.089C868.449 132.423 869.758 129.281 872.376 126.663C874.995 124.045 878.137 122.735 881.802 122.735C885.468 122.735 888.61 124.045 891.228 126.663C893.847 129.281 895.156 132.423 895.156 136.089C895.156 139.755 893.847 142.897 891.228 145.515C888.61 148.133 885.468 149.442 881.802 149.442C878.137 149.442 874.995 148.133 872.376 145.515ZM952.398 206.156H945.014C941.139 206.156 938.154 206.993 936.06 208.669C933.965 210.345 932.918 212.492 932.918 215.11C932.918 220.452 936.007 223.122 942.186 223.122C945.433 223.122 947.947 222.127 949.727 220.137C951.508 218.148 952.398 215.424 952.398 211.968V206.156ZM915.165 183.69V163.11C921.449 159.549 930.509 157.769 942.344 157.769C953.655 157.769 962.086 160.23 967.637 165.152C973.188 169.97 975.963 177.511 975.963 187.775V238.832H953.498V229.092C950.146 235.9 943.548 239.304 933.703 239.304C925.953 239.304 919.878 237.104 915.479 232.705C911.185 228.307 909.038 222.808 909.038 216.21C909.038 208.564 911.814 202.647 917.365 198.458C923.02 194.164 931.347 192.017 942.344 192.017H952.398V186.518C952.398 179.815 947.947 176.464 939.044 176.464C930.456 176.464 922.497 178.873 915.165 183.69ZM1016.91 159.183V171.594C1021.31 162.796 1028.79 158.397 1039.37 158.397C1050.58 158.397 1058.01 163.424 1061.68 173.479C1063.46 168.766 1066.45 165.1 1070.64 162.482C1074.82 159.759 1079.75 158.397 1085.4 158.397C1093.26 158.397 1099.44 160.911 1103.94 165.938C1108.55 170.86 1110.85 178.139 1110.85 187.775V238.832H1087.92V191.545C1087.92 187.042 1087.03 183.481 1085.25 180.862C1083.47 178.244 1080.9 176.935 1077.55 176.935C1073.99 176.935 1070.79 178.401 1067.96 181.334C1065.24 184.162 1063.88 189.294 1063.88 196.73V238.832H1040.94V191.545C1040.94 187.042 1040.05 183.481 1038.27 180.862C1036.49 178.244 1033.93 176.935 1030.57 176.935C1027.01 176.935 1023.82 178.401 1020.99 181.334C1018.27 184.162 1016.91 189.294 1016.91 196.73V238.832H993.971V159.183H1016.91ZM1164.17 240.089C1151.71 240.089 1142.07 236.371 1135.26 228.935C1128.45 221.394 1125.05 211.759 1125.05 200.029C1125.05 187.775 1128.61 177.72 1135.73 169.865C1142.86 161.906 1152.33 157.926 1164.17 157.926C1176.53 157.926 1186.11 161.749 1192.92 169.394C1199.73 177.04 1203.13 186.78 1203.13 198.615C1203.13 210.659 1199.67 220.609 1192.76 228.464C1185.95 236.214 1176.42 240.089 1164.17 240.089ZM1164.01 175.992C1158.98 175.992 1155.21 178.139 1152.7 182.433C1150.19 186.728 1148.93 192.278 1148.93 199.086C1148.93 205.894 1150.19 211.497 1152.7 215.896C1155.32 220.19 1159.19 222.337 1164.33 222.337C1169.35 222.337 1173.07 220.242 1175.48 216.053C1177.99 211.759 1179.25 206.208 1179.25 199.4C1179.25 183.795 1174.17 175.992 1164.01 175.992ZM1241.05 159.183V172.693C1243.04 168.294 1246.08 164.838 1250.16 162.325C1254.35 159.706 1259.33 158.397 1265.09 158.397C1273.26 158.397 1279.65 160.858 1284.25 165.781C1288.86 170.599 1291.17 177.72 1291.17 187.146V238.832H1268.23V191.388C1268.23 186.675 1267.13 183.114 1264.93 180.705C1262.73 178.192 1259.64 176.935 1255.66 176.935C1251.47 176.935 1247.96 178.611 1245.14 181.962C1242.41 185.209 1241.05 190.131 1241.05 196.73V238.832H1218.11V159.183H1241.05ZM1345.85 220.609C1351.09 220.609 1355.33 218.566 1358.57 214.482C1361.82 210.397 1363.44 204.951 1363.44 198.143C1363.44 191.545 1361.66 186.413 1358.1 182.748C1354.65 179.082 1350.51 177.249 1345.69 177.249C1340.87 177.249 1336.79 179.187 1333.44 183.062C1330.19 186.937 1328.57 192.331 1328.57 199.243C1328.57 205.632 1330.24 210.816 1333.6 214.796C1336.95 218.671 1341.03 220.609 1345.85 220.609ZM1363.44 127.763H1386.38V238.832H1363.44V226.421C1358.1 235.324 1350.14 239.775 1339.56 239.775C1329.2 239.775 1320.87 235.743 1314.59 227.678C1308.41 219.614 1305.32 209.978 1305.32 198.772C1305.32 186.204 1308.56 176.307 1315.06 169.08C1321.55 161.853 1329.77 158.24 1339.72 158.24C1350.09 158.24 1358 162.639 1363.44 171.436V127.763Z" fill="currentColor"/>
</g>
<defs>
<clipPath id="clip0_24_111">
<rect width="1439" height="381" fill="" transform="translate(0.5)"/>
</clipPath>
</defs>
</svg>
