<?xml version="1.0" encoding="UTF-8"?>
<svg width="447px" height="284px" viewBox="0 0 447 284" version="1.1" xmlns="http://www.w3.org/2000/svg" xmlns:xlink="http://www.w3.org/1999/xlink">
  <title>Page 1</title>
  <defs>
    <linearGradient x1="80.26323%" y1="76.3866489%" x2="6.4557421%" y2="15.6603889%" id="linearGradient-1">
      <stop stop-color="#456563" offset="0%"></stop>
      <stop stop-color="#5A877E" offset="20.7110431%"></stop>
      <stop stop-color="#FDC343" offset="44.0403294%"></stop>
      <stop stop-color="#E99877" offset="70.0960726%"></stop>
      <stop stop-color="#A4574E" offset="100%"></stop>
    </linearGradient>
    <linearGradient x1="80.26323%" y1="77.9509795%" x2="6.4557421%" y2="13.6245675%" id="linearGradient-2">
      <stop stop-color="#456563" offset="0%"></stop>
      <stop stop-color="#5A877E" offset="20.7110431%"></stop>
      <stop stop-color="#FDC343" offset="44.0403294%"></stop>
      <stop stop-color="#E99877" offset="70.0960726%"></stop>
      <stop stop-color="#A4574E" offset="100%"></stop>
    </linearGradient>
    <linearGradient x1="100%" y1="52.8613533%" x2="6.4557421%" y2="48.6736656%" id="linearGradient-3">
      <stop stop-color="#456563" offset="0%"></stop>
      <stop stop-color="#5A877E" offset="20.7110431%"></stop>
      <stop stop-color="#FDC343" offset="44.0403294%"></stop>
      <stop stop-color="#E99877" offset="70.0960726%"></stop>
      <stop stop-color="#A4574E" offset="100%"></stop>
    </linearGradient>
    <path d="M24.9523204,197.10912 C24.9523204,190.26624 20.9433603,184.97856 13.3056002,184.49472 C12.7872002,184.46016 11.7849602,184.4256 10.7481602,184.4256 L10.3226869,184.4256 C6.86116329,184.432031 3.7561977,184.58959 3.49056005,188.60736 C3.39058291,190.440274 3.29060576,194.233454 3.28359206,197.941705 L3.28320005,198.35328 C3.28320005,201.25632 3.35232005,204.05568 3.45600005,205.74912 C3.69792006,209.44704 7.11936011,209.89632 10.8518402,209.89632 C15.4483202,209.89632 24.9523204,209.3088 24.9523204,197.10912 Z M10.2297602,207.89184 C6.4972801,207.89184 5.87520009,206.8896 5.70240008,205.23072 C5.56992008,203.83968 5.53266008,200.95686 5.52978508,197.951047 L5.52960008,197.5584 C5.52960008,193.9296 5.59872008,190.26624 5.70240008,188.88384 C5.87520009,186.46464 8.01792012,186.43008 11.4048002,186.43008 C12.0268802,186.43008 12.5798402,186.46464 12.8217602,186.46464 C19.0771203,186.63744 22.6713603,190.992 22.6713603,197.10912 C22.6713603,207.64992 15.0336002,207.89184 10.2297602,207.89184 Z M36.5990405,210.03456 C40.9536006,210.03456 43.3728006,207.408 43.3728006,206.61312 C43.3728006,206.06016 42.8544006,205.61088 42.3360006,205.61088 C42.0940806,205.61088 41.8521606,205.71456 41.6448006,205.92192 C40.5734406,207.13152 39.1564806,208.20288 36.6336005,208.20288 C33.3158405,208.20288 30.8275205,205.88736 30.8275205,202.12032 C30.8275205,201.63648 30.8966405,201.49824 31.2422405,201.49824 L31.4460151,201.498781 C32.3566763,201.502819 34.7116744,201.528221 36.9514971,201.532259 L38.2847391,201.532523 C39.2656902,201.531417 40.1448966,201.525888 40.7808006,201.49824 C42.5088006,201.46368 43.3036806,200.496 43.3036806,199.18272 C43.3036806,197.2128 41.2300806,193.51488 36.4953605,193.51488 C32.4172805,193.51488 28.7884804,196.83264 28.7884804,201.8784 C28.7884804,206.75136 32.2099205,210.03456 36.5990405,210.03456 Z M36.4421705,199.839132 L34.3530933,199.839039 C31.3573103,199.83607 31.1040005,199.805643 31.1040005,199.49376 C31.1040005,198.21504 33.2121605,195.24288 36.5299205,195.24288 C40.0550406,195.24288 41.2646406,197.83488 41.2646406,198.83712 C41.2646406,199.39008 40.9536006,199.77024 40.1241606,199.8048 C39.3379206,199.83288 37.9128606,199.838145 36.4421705,199.839132 L36.4421705,199.839132 Z M52.4966408,210.06912 C56.3673608,210.06912 57.9916809,207.5808 57.9916809,205.61088 C57.9916809,204.02112 57.0585609,202.3968 54.9158408,201.29088 C53.8444808,200.73792 52.2547208,200.08128 51.2870408,199.632 C50.1465607,199.07904 49.5936007,198.21504 49.5936007,197.3856 C49.5936007,196.24512 50.5958408,195.20832 52.3584008,195.20832 C53.8444808,195.20832 54.7084808,195.76128 55.2614408,196.41792 C55.5379208,196.76352 55.8835208,196.90176 56.1600008,196.90176 C56.7129608,196.90176 57.1622409,196.45248 57.1622409,195.89952 C57.1622409,194.9664 55.2960008,193.48032 52.3584008,193.48032 C49.3171207,193.48032 47.6582407,195.41568 47.6582407,197.45472 C47.6582407,198.9408 48.5568007,200.46144 50.4576008,201.29088 C54.4665608,203.088 55.9526408,203.7792 55.9526408,205.61088 C55.9526408,207.09696 54.4665608,208.20288 52.4966408,208.20288 C50.8032008,208.20288 49.5590407,207.54624 48.7987207,206.47488 C48.5568007,206.16384 48.2457607,206.0256 47.9347207,206.0256 C47.4163207,206.0256 46.8979207,206.44032 46.8979207,207.02784 C46.8979207,207.99552 48.9024007,210.06912 52.4966408,210.06912 Z M64.454401,187.60512 C65.318401,187.60512 66.182401,186.98304 66.182401,185.91168 C66.182401,184.5984 65.007361,184.32192 64.488961,184.32192 C63.797761,184.32192 62.8300809,184.84032 62.8300809,185.91168 L62.8308203,185.980973 C62.8396923,186.338874 62.9550286,187.60512 64.454401,187.60512 Z M64.488961,209.8272 C65.041921,209.8272 65.594881,209.4816 65.594881,208.7904 L65.594881,208.75584 C65.560321,206.82048 65.525761,204.26304 65.525761,201.80928 C65.525761,198.83712 65.560321,196.0032 65.594881,194.55168 L65.594881,194.51712 C65.594881,193.89504 65.041921,193.584 64.523521,193.584 C63.970561,193.584 63.4176009,193.9296 63.4176009,194.55168 L63.4176009,194.58624 C63.4521609,195.55392 63.4521609,196.97088 63.4521609,198.5952 C63.4521609,201.80928 63.4176009,205.8528 63.4176009,208.7904 C63.4176009,209.4816 63.970561,209.8272 64.488961,209.8272 Z M78.6585612,218.88192 C83.9808013,218.88192 87.3331213,216.25536 87.3331213,212.7648 C87.3331213,210.24192 85.3286413,208.65216 82.7020812,208.272 C81.8380812,208.13376 81.5961612,208.0992 77.1033611,208.0992 L76.7353954,208.097128 C75.2078233,208.078341 73.7856011,207.9136 73.7856011,206.8896 C73.7856011,205.54176 75.8937611,204.43584 78.1747212,204.33216 C82.2182412,204.19392 84.4646413,202.0512 84.4646413,199.04448 C84.4646413,198.45696 84.3955213,197.59296 84.0499213,196.83264 C84.0153613,196.72896 83.9808013,196.65984 83.9808013,196.59072 C83.9808013,196.176 84.6374413,195.58848 85.7779213,195.58848 C85.9507213,195.58848 86.1580813,195.58848 86.3308813,195.62304 C86.4000013,195.62304 86.5036813,195.6576 86.5728013,195.6576 C87.1603213,195.6576 87.4713613,195.17376 87.4713613,194.72448 C87.4713613,194.2752 87.2640013,193.68768 85.8816013,193.68768 C84.9139213,193.68768 84.1190413,193.99872 83.2204812,194.6208 C83.0822412,194.72448 82.9440012,194.75904 82.8057612,194.75904 C82.6675212,194.75904 82.5292812,194.72448 82.3564812,194.6208 C81.0086412,193.86048 79.6262412,193.584 78.0710412,193.584 L78.0019212,193.584 C74.7532811,193.584 71.7465611,195.51936 71.7465611,199.07904 C71.7465611,201.04896 72.8870411,202.5696 74.2003211,203.32992 C74.4422411,203.46816 74.6496011,203.53728 74.6496011,203.6064 C74.6496011,203.67552 74.5459211,203.74464 74.3040011,203.88288 C72.1267211,204.9888 71.8848011,206.33664 71.8848011,207.02784 C71.8848011,208.23744 72.7833611,208.99776 73.9238411,209.34336 C74.2348811,209.44704 74.4422411,209.44704 74.4422411,209.4816 C74.4422411,209.51616 74.3040011,209.55072 74.0620811,209.6544 C72.2649611,210.3456 70.8134411,211.79712 70.8134411,213.73248 C70.8134411,217.22304 74.8915211,218.88192 78.6585612,218.88192 Z M78.0381393,202.742094 L77.9392122,202.742094 C77.3424481,202.734959 73.6819211,202.574976 73.6819211,198.97536 C73.6819211,196.48704 75.8246411,195.17376 78.1056012,195.17376 C78.6585612,195.17376 82.5638412,195.34656 82.5638412,198.9408 C82.5638412,202.487127 78.6360151,202.73276 78.0381393,202.742094 L78.0381393,202.742094 Z M78.4166412,217.05024 C74.3731211,217.05024 72.7142411,215.25312 72.7142411,213.6288 C72.7142411,211.41696 75.3062411,209.96544 77.6908812,209.8272 C78.0503052,209.799552 78.4760844,209.794022 78.9151346,209.792916 L79.2460812,209.79264 C81.6652812,209.79264 85.2940813,209.8272 85.2940813,212.83392 C85.2940813,215.59872 82.0108812,217.05024 78.4166412,217.05024 Z M103.610882,209.89632 C104.129282,209.89632 104.613122,209.58528 104.613122,208.89408 C104.639042,208.19424 104.645522,207.22224 104.647142,206.16762 L104.647682,205.09248 C104.647682,202.70784 104.613122,200.1504 104.578562,199.04448 C104.440322,195.38112 101.675522,193.51488 98.8070415,193.51488 C96.9062414,193.51488 94.9363214,194.34432 93.6921614,196.0032 C93.6576014,196.07232 93.5884814,196.10688 93.5539214,196.10688 C93.5539214,196.10688 93.5193614,196.07232 93.5193614,195.96864 L93.5193614,194.65536 C93.5193614,193.99872 93.0355214,193.72224 92.5516814,193.72224 C91.9987214,193.72224 91.4457614,194.06784 91.4457614,194.6208 L91.4457614,194.65536 C91.4803214,196.176 91.5148814,197.97312 91.5148814,199.90848 C91.5148814,202.84608 91.4457614,206.06016 91.3766414,208.85952 L91.3766414,208.89408 C91.3766414,209.51616 91.9296014,209.86176 92.4480014,209.86176 C92.9664014,209.86176 93.4502414,209.55072 93.4502414,208.92864 L93.4502414,208.89408 C93.4225934,207.898752 93.4170638,206.969779 93.4159579,206.071772 L93.4156814,205.40352 C93.4156814,203.01888 93.4502414,201.11808 93.4848014,200.04672 C93.5539214,197.28192 96.2841614,195.41568 98.7033615,195.41568 C100.638721,195.41568 102.401282,196.59072 102.574082,199.39008 C102.608642,199.94304 102.643202,201.15264 102.643202,202.5696 C102.643202,204.74688 102.608642,207.44256 102.574082,208.89408 L102.574082,208.92864 C102.574082,209.55072 103.092482,209.89632 103.610882,209.89632 Z M126.938882,210.03456 C132.226562,210.03456 134.887682,206.50944 134.887682,203.2608 C134.887682,200.91072 133.539842,198.4224 130.394882,196.6944 C128.908802,195.86496 126.455042,194.75904 124.899842,193.9296 C123.033602,192.92736 122.169602,191.40672 122.169602,189.98976 C122.169602,187.95072 123.863042,186.11904 126.696962,186.11904 C129.185282,186.11904 130.740482,187.12128 131.604482,188.36544 C131.880962,188.78016 132.226562,188.95296 132.572162,188.95296 C133.125122,188.95296 133.608962,188.43456 133.608962,187.84704 C133.608962,186.74112 131.051522,184.28736 126.731522,184.28736 C122.411522,184.28736 120.061442,187.08672 120.061442,190.05888 C120.061442,192.2016 121.305602,194.41344 123.863042,195.69216 C125.729282,196.62528 127.630082,197.5584 129.392642,198.56064 C131.639042,199.83936 132.641282,201.63648 132.641282,203.29536 C132.641282,205.88736 130.291202,207.99552 126.973442,207.99552 C124.174082,207.99552 122.031362,206.82048 121.029122,204.9888 C120.787202,204.57408 120.441602,204.43584 120.096002,204.43584 C119.508482,204.43584 118.955522,204.88512 118.955522,205.5072 C118.955522,206.47488 121.340162,210.03456 126.938882,210.03456 Z M144.806402,210.03456 C146.188802,210.03456 147.018242,209.86176 147.018242,208.9632 C147.018242,208.51392 146.707202,208.06464 146.188802,208.06464 L146.050562,208.06464 C145.704962,208.0992 145.393922,208.13376 145.082882,208.13376 C142.458141,208.13376 142.323539,206.397216 142.318272,203.817404 L142.318082,203.6064 C142.318082,201.151257 142.413634,197.772451 142.421278,196.344168 L142.421762,196.176 C142.421762,195.72672 142.421762,195.6576 142.974722,195.6576 L146.016002,195.6576 C146.672642,195.6576 146.983682,195.20832 146.983682,194.75904 C146.983682,194.30976 146.672642,193.86048 146.016002,193.86048 L142.940162,193.86048 C142.490882,193.86048 142.421762,193.86048 142.421762,193.48032 C142.421762,193.48032 142.490882,190.71552 142.490882,189.71328 C142.490882,188.98752 142.007042,188.64192 141.488642,188.64192 C141.004802,188.64192 140.486402,188.98752 140.486402,189.64416 L140.486402,190.50816 C140.486402,191.71776 140.451842,193.37664 140.451842,193.51488 C140.451842,193.82592 140.382722,193.86048 140.071682,193.86048 L138.067202,193.86048 C137.410562,193.86048 137.099522,194.30976 137.099522,194.75904 C137.099522,195.20832 137.410562,195.6576 138.067202,195.6576 L140.106242,195.6576 C140.348162,195.6576 140.451842,195.72672 140.451842,196.07232 L140.451842,196.62528 C140.451842,198.31872 140.382722,202.53504 140.382722,204.74688 C140.382722,206.26752 140.382722,210.03456 144.806402,210.03456 Z M157.317122,210.03456 C159.494402,210.03456 161.706242,209.06688 162.881282,207.26976 C162.915842,207.20064 162.950402,207.20064 162.984962,207.20064 C163.019522,207.20064 163.019522,207.2352 163.054082,207.37344 C163.123202,207.96096 163.607042,209.79264 164.747522,209.79264 C165.300482,209.79264 165.818882,209.37792 165.818882,208.82496 C165.818882,208.6176 165.749762,208.37568 165.576962,208.13376 C164.678402,206.85504 164.540162,205.26528 164.540162,203.05344 C164.540162,200.1504 164.574722,197.31648 164.643842,194.65536 L164.643842,194.6208 C164.643842,193.99872 164.090882,193.65312 163.572482,193.65312 C163.054082,193.65312 162.570242,193.96416 162.570242,194.58624 L162.570242,194.6208 C162.604802,196.45248 162.639362,198.2496 162.639362,200.08128 C162.639362,201.25632 162.604802,202.43136 162.570242,203.6064 C162.501122,206.44032 159.874562,208.272 157.455362,208.272 C155.520002,208.272 153.722882,207.09696 153.550082,204.26304 C153.515522,203.71008 153.480962,202.50048 153.480962,201.04896 C153.480962,198.80256 153.515522,196.07232 153.550082,194.6208 L153.550082,194.58624 C153.550082,193.96416 153.031682,193.61856 152.513282,193.61856 C151.994882,193.61856 151.511042,193.9296 151.511042,194.6208 C151.484162,195.18528 151.478189,195.917013 151.476862,196.718435 L151.476482,197.42016 C151.476482,200.04672 151.545602,203.2608 151.580162,204.50496 C151.683842,208.30656 154.448642,210.03456 157.317122,210.03456 Z M177.292803,209.96544 C179.573763,209.96544 181.854723,208.92864 183.340803,206.7168 C183.479043,206.544 183.548163,206.40576 183.582723,206.40576 C183.651843,206.40576 183.686403,206.544 183.755523,206.92416 C183.859203,207.5808 184.308483,208.7904 184.481283,209.10144 C184.723203,209.51616 185.068803,209.6544 185.414403,209.6544 C185.967363,209.6544 186.485763,209.20512 186.485763,208.6176 C186.485763,208.41024 186.451203,208.23744 186.347523,208.03008 C185.137923,205.81824 185.137923,205.57632 185.137923,194.68992 C185.137923,190.68096 185.172483,187.05216 185.241603,185.56608 L185.241603,185.49696 C185.241603,184.80576 184.723203,184.4256 184.170243,184.4256 C183.824643,184.4256 183.098883,184.5984 183.133443,185.53152 C183.168003,187.0176 183.202563,191.6832 183.202563,195.8304 C183.202563,196.31424 183.168003,196.48704 183.133443,196.48704 C183.064323,196.48704 182.926083,196.31424 182.753283,196.07232 C181.509123,194.48256 179.504643,193.51488 177.292803,193.51488 C172.800003,193.51488 169.413123,196.8672 169.413123,201.7056 C169.413123,206.7168 172.800003,209.96544 177.292803,209.96544 Z M177.361923,208.06464 C173.905923,208.06464 171.486723,205.64544 171.486723,201.7056 C171.486723,197.7312 173.871363,195.312 177.361923,195.312 C180.645123,195.312 183.202563,197.83488 183.202563,201.7056 C183.202563,205.54176 180.610563,208.06464 177.361923,208.06464 Z M193.121283,187.60512 C193.985283,187.60512 194.849283,186.98304 194.849283,185.91168 C194.849283,184.5984 193.674243,184.32192 193.155843,184.32192 C192.464643,184.32192 191.496963,184.84032 191.496963,185.91168 C191.496963,186.11904 191.496963,187.60512 193.121283,187.60512 Z M193.155843,209.8272 C193.708803,209.8272 194.261763,209.4816 194.261763,208.7904 L194.261763,208.75584 C194.227203,206.82048 194.192643,204.26304 194.192643,201.80928 C194.192643,198.83712 194.227203,196.0032 194.261763,194.55168 L194.261763,194.51712 C194.261763,193.89504 193.708803,193.584 193.190403,193.584 C192.637443,193.584 192.084483,193.9296 192.084483,194.55168 L192.084483,194.58624 C192.119043,195.55392 192.119043,196.97088 192.119043,198.5952 C192.119043,201.80928 192.084483,205.8528 192.084483,208.7904 C192.084483,209.4816 192.637443,209.8272 193.155843,209.8272 Z M207.636483,210.03456 C212.232963,210.03456 215.688963,206.7168 215.688963,201.74016 C215.688963,196.93632 212.232963,193.48032 207.636483,193.48032 C203.040003,193.48032 199.653123,196.93632 199.653123,201.74016 C199.653123,206.7168 203.040003,210.03456 207.636483,210.03456 Z M207.636483,208.16832 C204.318723,208.16832 201.657603,205.61088 201.657603,201.74016 C201.657603,197.83488 204.318723,195.27744 207.636483,195.27744 C210.954243,195.27744 213.649923,197.83488 213.649923,201.74016 C213.649923,205.61088 210.954243,208.16832 207.636483,208.16832 Z" id="path-4"></path>
    <linearGradient x1="80.26323%" y1="65.4289746%" x2="6.4557421%" y2="29.9207171%" id="linearGradient-5">
      <stop stop-color="#456563" offset="0%"></stop>
      <stop stop-color="#5A877E" offset="20.7110431%"></stop>
      <stop stop-color="#FDC343" offset="44.0403294%"></stop>
      <stop stop-color="#E99877" offset="70.0960726%"></stop>
      <stop stop-color="#A4574E" offset="100%"></stop>
    </linearGradient>
  </defs>
  <g id="Page-1" stroke="none" stroke-width="1" fill="none" fill-rule="evenodd">
    <g id="Ctw-UX-2020-STACK-Copy-2" transform="translate(-36.000000, -164.000000)" fill-rule="nonzero">
      <g id="Group-3" transform="translate(66.000000, 202.000000)">
        <path d="M0,5.92038411 C0,5.43249548 0.126709762,4.95288197 0.367846221,4.52803664 C1.14085061,3.16612189 2.87733361,2.68544704 4.24638957,3.45441932 L44.0349582,25.8028894 C44.929086,26.3051037 45.4820513,27.2474017 45.4820513,28.2688542 L45.4820513,75.5871496 C45.4820513,76.6120573 46.038731,77.556981 46.9376053,78.0578479 L89.1079853,101.555845 C89.9727167,102.037687 91.0271335,102.037421 91.8916191,101.555143 L134.010158,78.0581103 C134.908327,77.5570414 135.464453,76.6125079 135.464453,75.5881142 L135.464453,27.3762075 C135.464453,26.3384238 136.03508,25.383768 136.951644,24.888142 L176.793709,3.34382679 C177.210967,3.11819744 177.67834,3 178.153259,3 C179.72547,3 181,4.26788136 181,5.83189227 L181,100.678047 C181,101.699654 180.446868,102.64207 179.552528,103.144225 L91.4103896,152.634285 C90.5377728,153.124242 89.4704745,153.121741 88.6001876,152.6277 L1.43580858,103.146572 C0.548021556,102.642597 0,101.703816 0,100.686979 L0,5.92038411 Z" id="Path-2" stroke="url(#linearGradient-1)" stroke-width="1.60000002"></path>
        <path d="M222.264191,144.615842 C221.831184,144.867465 221.339364,145 220.838634,145 C219.2709,145 218,143.728307 218,142.159595 L218,97.4151612 C218,96.382423 218.56019,95.4310593 219.462991,94.9305795 L255.437691,74.9875346 C255.893575,74.7348096 256.271127,74.3613776 256.528963,73.9081705 C257.304559,72.544881 256.828829,70.810579 255.46639,70.0344987 L219.434293,49.5096965 C218.547587,49.0046064 218,48.0621951 218,47.0412424 L218,2.84090683 C218,2.35226467 218.125981,1.87188592 218.365765,1.44620656 C219.135557,0.0796266632 220.866737,-0.40377665 222.232465,0.366495038 L301.606169,45.133338 C302.471401,45.6213294 303.528599,45.6213294 304.393831,45.133338 L383.767535,0.366495038 C384.192949,0.126561202 384.673028,0 385.161366,0 C386.7291,0 388,1.27219427 388,2.84090683 L388,47.0235025 C388,48.0539165 387.442307,49.0035202 386.54268,49.5049321 L350.297992,69.7061023 C349.828292,69.9678925 349.44255,70.3577756 349.18566,70.830378 C348.436591,72.2084403 348.945795,73.933199 350.322998,74.6827345 L383.953256,92.9858256 C384.86686,93.4830495 385.435583,94.4403817 385.435583,95.4810281 L385.435583,138.858334 C385.435583,139.335009 385.315694,139.804018 385.086962,140.222151 C384.334216,141.598205 382.609178,142.103116 381.233982,141.349901 L303.695415,98.8808874 C302.823796,98.4034883 301.766156,98.4168844 300.906892,98.9162067 L222.264191,144.615842 Z" id="Path-3" stroke="url(#linearGradient-2)" stroke-width="1.60000002"></path>
        <g id="DesignStudio">
          <use fill-opacity="0.87" fill="#000000" xlink:href="#path-4"></use>
          <use fill="url(#linearGradient-3)" xlink:href="#path-4"></use>
        </g>
      </g>
      <rect id="Rectangle" stroke="url(#linearGradient-5)" stroke-width="1.60000002" x="37" y="165" width="445" height="282"></rect>
    </g>
  </g>
</svg>
