<?xml version="1.0" encoding="UTF-8"?>
<svg width="360px" height="114px" viewBox="0 0 360 114" version="1.1" xmlns="http://www.w3.org/2000/svg" xmlns:xlink="http://www.w3.org/1999/xlink">
  <title>Page 1</title>
  <defs>
    <linearGradient x1="80.26323%" y1="88.4201335%" x2="6.4557421%" y2="0%" id="linearGradient-1">
      <stop stop-color="#456563" offset="0%"></stop>
      <stop stop-color="#5A877E" offset="20.7110431%"></stop>
      <stop stop-color="#FDC343" offset="44.0403294%"></stop>
      <stop stop-color="#E99877" offset="70.0960726%"></stop>
      <stop stop-color="#A4574E" offset="100%"></stop>
    </linearGradient>
    <linearGradient x1="100%" y1="68.1004799%" x2="6.4557421%" y2="41.6098127%" id="linearGradient-2">
      <stop stop-color="#456563" offset="0%"></stop>
      <stop stop-color="#5A877E" offset="20.7110431%"></stop>
      <stop stop-color="#FDC343" offset="44.0403294%"></stop>
      <stop stop-color="#E99877" offset="70.0960726%"></stop>
      <stop stop-color="#A4574E" offset="100%"></stop>
    </linearGradient>
    <linearGradient x1="100%" y1="70.4644446%" x2="6.4557421%" y2="40.5140348%" id="linearGradient-3">
      <stop stop-color="#456563" offset="0%"></stop>
      <stop stop-color="#5A877E" offset="20.7110431%"></stop>
      <stop stop-color="#FDC343" offset="44.0403294%"></stop>
      <stop stop-color="#E99877" offset="70.0960726%"></stop>
      <stop stop-color="#A4574E" offset="100%"></stop>
    </linearGradient>
    <path d="M623.0336,1527.62208 C629.39264,1527.62208 633.50528,1523.85504 633.50528,1522.05792 C633.50528,1520.88288 632.3648,1519.84608 631.18976,1519.84608 C630.56768,1519.84608 629.98016,1520.088 629.49632,1520.74464 C628.07936,1522.64544 625.48736,1523.64768 622.8608,1523.64768 C615.56864,1523.64768 613.8752,1517.1504 613.8752,1514.24736 C613.8752,1509.58176 616.9856,1504.60512 622.82624,1504.60512 C625.00352,1504.60512 627.1808,1505.4 628.52864,1507.05888 C629.04704,1507.71552 629.66912,1507.992 630.2912,1507.992 C631.39712,1507.992 632.39936,1507.02432 632.39936,1505.84928 C632.39936,1503.98304 628.66688,1500.80352 623.17184,1500.80352 C614.7392,1500.80352 609.79712,1507.4736 609.79712,1514.48928 C609.79712,1521.22848 614.42816,1527.62208 623.0336,1527.62208 Z M639.2768,1527.38016 C640.6592,1527.38016 641.07392,1526.34336 641.03936,1525.6176 C640.97024,1523.16384 640.93568,1521.43584 640.93568,1520.088 C640.93568,1519.15488 640.93568,1518.42912 640.97024,1517.80704 C641.07392,1515.62976 643.354881,1513.93632 645.393921,1513.72896 C646.741761,1513.59072 647.363841,1512.69216 647.363841,1511.82816 C647.363841,1510.96416 646.741761,1510.16928 645.670401,1510.16928 C644.495361,1510.16928 642.629121,1510.7568 641.24672,1512.27744 C641.1776,1512.38112 641.10848,1512.41568 641.10848,1512.41568 C641.07392,1512.41568 641.07392,1512.38112 641.07392,1512.312 L641.07392,1512.17376 L641.07392,1512.17376 C641.07392,1512.07008 641.10848,1511.9664 641.10848,1511.82816 C641.10848,1510.72224 640.20992,1510.20384 639.34592,1510.20384 C638.48192,1510.20384 637.47968,1510.72224 637.47968,1511.75904 L637.47968,1511.82816 L637.47968,1511.82816 C637.5488,1514.14368 637.58336,1515.9408 637.58336,1518.0144 C637.58336,1520.05344 637.5488,1522.3344 637.44512,1525.6176 L637.44512,1525.68672 L637.44512,1525.68672 C637.44512,1526.79264 638.34368,1527.38016 639.2768,1527.38016 Z M657.766401,1527.58752 C661.256961,1527.58752 663.123201,1526.44704 664.782081,1524.71904 C665.162241,1524.33888 665.300481,1523.92416 665.300481,1523.50944 C665.300481,1522.54176 664.401921,1521.71232 663.468801,1521.71232 C663.054081,1521.71232 662.639361,1521.88512 662.293761,1522.26528 C661.291521,1523.33664 659.978241,1524.37344 657.800961,1524.37344 C655.347201,1524.37344 653.135361,1522.64544 653.100801,1519.77696 C653.100801,1519.3968 653.169921,1519.12032 653.377281,1519.12032 L656.783735,1519.12003 C660.391942,1519.11889 661.025921,1519.11328 661.879041,1519.08576 C664.090881,1519.01664 665.162241,1517.70336 665.162241,1516.07904 C665.162241,1513.45248 662.466561,1509.96192 657.697281,1509.96192 C653.239041,1509.96192 649.506561,1513.59072 649.506561,1518.8784 C649.506561,1524.02784 653.031681,1527.58752 657.766401,1527.58752 Z M657.688001,1516.28624 L656.185999,1516.28619 C653.699143,1516.28398 653.411841,1516.25896 653.411841,1515.97536 C653.411841,1515.38784 654.932481,1512.96864 657.731841,1512.96864 C660.842241,1512.96864 661.568001,1515.00768 661.568001,1515.49152 C661.568001,1515.90624 661.291521,1516.21728 660.876801,1516.25184 C660.099201,1516.28064 658.889601,1516.28544 657.688001,1516.28624 Z M674.389761,1527.58752 C676.428801,1527.58752 678.606081,1526.86176 679.781121,1525.51392 C679.850241,1525.4448 679.919361,1525.41024 679.988481,1525.41024 C680.023041,1525.41024 680.092161,1525.4448 680.126721,1525.51392 C680.437761,1526.03232 680.748801,1526.41248 681.059841,1526.6544 C681.474561,1527 681.923841,1527.1728 682.304001,1527.1728 C683.306241,1527.1728 684.066561,1526.06688 684.066561,1525.0992 C684.066561,1524.61536 683.893761,1524.16608 683.513601,1523.8896 C683.237121,1523.68224 681.958401,1523.57856 681.647361,1520.81376 C681.612801,1520.6064 681.612801,1520.32992 681.612801,1520.01888 C681.612801,1518.98208 681.716481,1517.6688 681.785601,1517.1504 C681.820161,1516.66656 681.854721,1516.25184 681.854721,1515.80256 C681.854721,1511.82816 679.781121,1509.96192 675.979521,1509.96192 C672.488961,1509.96192 669.447681,1511.7936 669.447681,1513.45248 C669.447681,1514.35104 670.208001,1515.04224 671.106561,1515.04224 C671.521281,1515.04224 672.005121,1514.86944 672.385281,1514.42016 C673.041921,1513.6944 674.216961,1512.96864 675.772161,1512.96864 C678.122241,1512.96864 678.225921,1514.7312 678.225921,1515.14592 C678.225921,1515.87168 677.949441,1516.2864 677.603841,1516.32096 C677.050881,1516.35552 674.078721,1517.01216 671.694081,1517.8416 C669.378561,1518.63648 668.341761,1520.39904 668.341761,1522.1616 C668.341761,1524.82272 670.588161,1527.58752 674.389761,1527.58752 Z M674.389761,1524.37344 C672.627201,1524.37344 671.694081,1523.30208 671.694081,1522.23072 C671.694081,1521.40128 672.039681,1519.94976 677.880321,1519.224 L677.914881,1519.224 C678.329601,1519.224 678.398721,1519.98432 678.398721,1520.50272 C678.398721,1522.95648 677.189121,1524.37344 674.389761,1524.37344 Z M693.605121,1527.5184 C695.402241,1527.5184 696.542721,1526.93088 696.542721,1525.68672 C696.542721,1524.9264 695.989761,1524.16608 695.056641,1524.16608 C694.952961,1524.16608 694.883841,1524.20064 694.780161,1524.20064 C694.503681,1524.2352 694.227201,1524.26976 693.985281,1524.26976 C692.108569,1524.26976 691.954207,1523.22985 691.946575,1520.70886 L691.946241,1520.46816 C691.946241,1518.1872 692.049921,1515.2496 692.049921,1513.97088 C692.049921,1513.76352 692.049921,1513.59072 692.568321,1513.59072 L694.849281,1513.59072 C695.886081,1513.59072 696.369921,1512.76128 696.369921,1511.9664 C696.369921,1511.13696 695.886081,1510.34208 694.849281,1510.34208 L692.533761,1510.34208 C692.188161,1510.34208 692.049921,1510.30752 692.049921,1509.75456 C692.049921,1509.75456 692.119041,1508.44128 692.119041,1507.50816 C692.119041,1507.05888 692.119041,1505.4 690.287361,1505.4 C689.388801,1505.4 688.559361,1505.9184 688.559361,1506.9552 L688.559361,1507.05888 L688.559361,1507.05888 C688.585281,1507.344 688.591761,1507.64856 688.593381,1507.95798 L688.593921,1508.26848 C688.593921,1509.06336 688.559361,1509.75456 688.559361,1509.75456 C688.559361,1510.2384 688.524801,1510.34208 687.971841,1510.34208 L686.969601,1510.34208 C685.932801,1510.34208 685.414401,1511.13696 685.414401,1511.93184 C685.414401,1512.76128 685.967361,1513.59072 686.969601,1513.59072 L688.006401,1513.59072 C688.352001,1513.59072 688.559361,1513.62528 688.559361,1514.07456 L688.559361,1514.59296 L688.559361,1514.59296 C688.559361,1516.03357 688.497326,1519.21117 688.490795,1521.24601 L688.490501,1521.74393 C688.497257,1523.32019 688.679681,1527.5184 693.605121,1527.5184 Z M702.314241,1505.7456 C703.800321,1505.7456 704.733441,1504.536 704.733441,1503.29184 C704.733441,1501.97856 703.558401,1500.94176 702.314241,1500.94176 C701.346561,1500.94176 699.895041,1501.5984 699.895041,1503.29184 C699.895041,1504.8816 700.966401,1505.7456 702.314241,1505.7456 Z M702.314241,1527.48384 C703.247361,1527.48384 704.180481,1526.89632 704.180481,1525.72128 L704.180481,1525.65216 L704.180481,1525.65216 C704.145921,1523.75136 704.111361,1521.2976 704.111361,1518.91296 C704.111361,1516.00992 704.145921,1513.27968 704.180481,1511.86272 L704.180481,1511.7936 L704.180481,1511.7936 C704.180481,1510.68768 703.247361,1510.13472 702.348801,1510.13472 C701.312001,1510.13472 700.448001,1510.7568 700.482561,1511.89728 C700.517121,1512.8304 700.517121,1514.2128 700.517121,1515.768 C700.517121,1518.91296 700.482561,1522.8528 700.482561,1525.72128 C700.482561,1526.89632 701.381121,1527.48384 702.314241,1527.48384 Z M722.842882,1527.38016 C723.741442,1527.38016 724.605442,1526.79264 724.640002,1525.54848 C724.666882,1524.984 724.672855,1524.27317 724.674182,1523.48104 L724.674562,1522.78368 C724.674562,1520.22624 724.605442,1517.1504 724.570882,1515.90624 C724.432642,1512.03552 721.633282,1510.13472 718.730242,1510.13472 C716.933122,1510.13472 715.101442,1510.82592 713.822722,1512.20832 C713.753602,1512.27744 713.684482,1512.34656 713.649922,1512.34656 C713.624002,1512.34656 713.617522,1512.32712 713.615902,1512.30282 L713.615362,1512.17376 L713.615362,1512.17376 C713.615362,1512.07008 713.649922,1511.9664 713.649922,1511.82816 C713.649922,1510.72224 712.751362,1510.20384 711.887362,1510.20384 C711.023362,1510.20384 710.021122,1510.72224 710.021122,1511.75904 L710.021122,1511.82816 L710.021122,1511.82816 C710.090242,1514.14368 710.124802,1515.9408 710.124802,1518.0144 C710.124802,1520.05344 710.090242,1522.3344 709.986562,1525.6176 L709.986562,1525.68672 L709.986562,1525.68672 C709.986562,1526.79264 710.885122,1527.38016 711.818242,1527.38016 C713.200642,1527.38016 713.615362,1526.34336 713.580802,1525.6176 C713.51629,1523.32742 713.481883,1521.57915 713.477582,1520.20418 L713.477662,1519.22184 C713.479282,1518.56088 713.485762,1517.99712 713.511682,1517.53056 C713.615362,1515.21504 716.138242,1513.3488 718.246402,1513.3488 C719.697922,1513.3488 720.907522,1514.2128 721.045762,1516.35552 C721.078018,1516.87162 721.110274,1517.92961 721.114431,1519.19233 L721.114882,1519.46592 C721.114882,1521.57408 721.080322,1524.20064 721.045762,1525.6176 L721.045762,1525.65216 C721.045762,1526.75808 721.944322,1527.38016 722.842882,1527.38016 Z M736.736002,1536.22752 C741.367042,1536.22752 745.894402,1534.29216 745.894402,1529.66112 C745.894402,1526.8272 743.578882,1524.30432 738.394882,1524.30432 C733.176322,1524.30432 732.761602,1524.16608 732.761602,1523.544 C732.761602,1522.1616 735.111682,1521.88512 736.563202,1521.85056 C740.814082,1521.67776 743.095042,1519.36224 743.095042,1516.04448 C743.095042,1515.00768 743.025922,1514.66208 742.784002,1514.00544 C742.749442,1513.90176 742.749442,1513.83264 742.749442,1513.79808 C742.749442,1513.65984 742.818562,1513.65984 742.887682,1513.62528 C743.095042,1513.5216 743.233282,1513.41792 743.613442,1513.41792 C743.717122,1513.41792 743.889922,1513.41792 744.062722,1513.45248 C744.200962,1513.48704 744.304642,1513.48704 744.442882,1513.48704 C745.410562,1513.48704 745.894402,1512.69216 745.894402,1511.89728 C745.894402,1510.20384 744.442882,1510.10016 743.440642,1510.10016 C742.714882,1510.10016 742.127362,1510.30752 741.125122,1510.82592 C740.952322,1510.9296 740.779522,1510.99872 740.572162,1510.99872 C740.433922,1510.99872 740.226562,1510.96416 739.984642,1510.82592 C738.809602,1510.27296 737.461762,1509.99648 736.148482,1509.99648 L736.079362,1509.99648 L736.079362,1509.99648 C732.692482,1509.99648 729.236482,1512.03552 729.236482,1516.04448 C729.236482,1517.496 729.962242,1519.29312 731.310082,1520.32992 C731.586562,1520.53728 731.690242,1520.64096 731.690242,1520.74464 C731.690242,1520.84832 731.482882,1520.91744 731.240962,1521.05568 C729.893122,1521.78144 729.271042,1522.8528 729.271042,1524.13152 C729.271042,1525.03008 729.824002,1526.17056 731.171842,1526.58528 C731.413762,1526.6544 731.482882,1526.72352 731.482882,1526.79264 C731.482882,1526.8272 731.413762,1526.89632 731.310082,1526.93088 C729.651202,1527.62208 728.268802,1528.9008 728.268802,1530.8016 C728.268802,1533.048 730.480642,1536.22752 736.736002,1536.22752 Z M736.113922,1518.98208 C733.038082,1518.98208 732.623362,1516.90848 732.623362,1516.00992 C732.623362,1514.24736 734.213122,1512.96864 736.252162,1512.96864 C738.844162,1512.96864 739.880962,1514.42016 739.880962,1515.97536 C739.880962,1517.97984 738.152962,1518.98208 736.113922,1518.98208 Z M736.805122,1533.15168 C731.828482,1533.15168 731.724802,1530.76704 731.724802,1530.456 C731.724802,1530.04128 732.208642,1527.24192 736.770562,1527.24192 C739.397122,1527.24192 742.265602,1527.24192 742.265602,1529.86848 C742.265602,1533.01344 737.772802,1533.15168 736.805122,1533.15168 Z M763.900162,1527.03456 C766.008322,1527.03456 768.323842,1525.9632 769.360642,1524.20064 C769.395202,1524.13152 769.464322,1524.09696 769.464322,1524.09696 C769.533442,1524.09696 769.533442,1524.13152 769.568002,1524.2352 C770.051842,1526.136 771.779842,1526.61984 771.987202,1526.61984 C772.609282,1526.61984 773.024002,1526.03232 773.024002,1525.54848 C773.024002,1525.272 772.920322,1524.99552 772.643842,1524.85728 C771.261442,1524.13152 770.708482,1523.44032 770.708482,1520.57184 C770.708482,1519.43136 770.777602,1517.87616 770.881282,1516.73568 C770.915842,1516.39008 770.915842,1516.07904 770.915842,1515.768 C770.915842,1511.89728 768.738562,1510.48032 765.524482,1510.48032 C762.552322,1510.48032 759.649282,1511.9664 759.649282,1513.27968 C759.649282,1513.83264 760.098562,1514.2128 760.616962,1514.2128 C760.858882,1514.2128 761.135362,1514.10912 761.342722,1513.8672 C762.137602,1513.0032 763.520002,1512.20832 765.386242,1512.20832 C768.185602,1512.20832 768.980482,1513.6944 768.980482,1515.5952 C768.980482,1515.768 768.945922,1515.97536 768.945922,1516.14816 C768.945922,1516.39008 768.807682,1516.49376 768.392962,1516.56288 C766.941442,1516.8048 764.142082,1517.3232 761.999362,1517.97984 C759.441922,1518.77472 758.301442,1520.53728 758.301442,1522.26528 C758.301442,1524.64992 760.409602,1527.03456 763.900162,1527.03456 Z M763.865602,1525.20288 C761.550082,1525.20288 760.167682,1523.75136 760.167682,1522.29984 C760.167682,1519.88064 763.036162,1519.18944 768.462082,1518.32544 L768.565762,1518.32544 C768.807682,1518.32544 768.911362,1518.42912 768.911362,1518.7056 C768.911362,1519.12032 768.876802,1519.50048 768.876802,1519.88064 C768.876802,1522.81824 767.045122,1525.20288 763.865602,1525.20288 Z M619.4048,1561.31104 C620.47616,1561.31104 621.54752,1560.72352 621.4784,1559.51392 C621.37904,1557.06304 621.31142,1553.08864 621.305958,1549.11159 L621.3056,1548.59296 C621.3056,1545.20608 621.34016,1541.85376 621.40928,1539.50368 L621.409779,1539.40019 C621.41801,1538.86146 621.562045,1538.81656 624.08267,1538.81282 L624.83072,1538.81248 C625.66016,1538.81248 626.6624,1538.81248 627.83744,1538.8816 L627.97568,1538.8816 L627.97568,1538.8816 C629.0816,1538.8816 629.63456,1537.98304 629.63456,1537.04992 C629.63456,1536.2896 629.18528,1535.14912 627.83744,1535.18368 C625.983398,1535.21621 623.272172,1535.24873 620.510523,1535.25245 L619.054215,1535.25204 C615.772995,1535.24679 612.554407,1535.21523 610.66112,1535.18368 L610.592,1535.18368 L610.592,1535.18368 C609.31328,1535.18368 608.6912,1536.08224 608.6912,1537.01536 C608.6912,1537.94848 609.34784,1538.8816 610.66112,1538.8816 C612.28544,1538.8816 613.90976,1538.81248 615.22304,1538.81248 L615.631022,1538.81273 C617.276363,1538.81601 617.36576,1538.86185 617.36576,1539.50368 C617.41952,1540.92832 617.431467,1542.98016 617.434122,1545.25268 L617.434351,1548.22854 C617.429767,1552.51111 617.395383,1557.01079 617.3312,1559.51392 L617.3312,1559.54848 C617.3312,1560.72352 618.368,1561.31104 619.4048,1561.31104 Z M636.82304,1561.58752 C640.3136,1561.58752 642.179841,1560.44704 643.838721,1558.71904 C644.218881,1558.33888 644.357121,1557.92416 644.357121,1557.50944 C644.357121,1556.54176 643.458561,1555.71232 642.525441,1555.71232 C642.110721,1555.71232 641.696001,1555.88512 641.3504,1556.26528 C640.34816,1557.33664 639.03488,1558.37344 636.8576,1558.37344 C634.40384,1558.37344 632.192,1556.64544 632.15744,1553.77696 C632.15744,1553.3968 632.22656,1553.12032 632.43392,1553.12032 L635.840375,1553.12003 C639.448581,1553.11889 640.08256,1553.11328 640.93568,1553.08576 C643.147521,1553.01664 644.218881,1551.70336 644.218881,1550.07904 C644.218881,1547.45248 641.5232,1543.96192 636.75392,1543.96192 C632.29568,1543.96192 628.5632,1547.59072 628.5632,1552.8784 C628.5632,1558.02784 632.08832,1561.58752 636.82304,1561.58752 Z M636.74464,1550.28624 L635.242639,1550.28619 C632.755783,1550.28398 632.46848,1550.25896 632.46848,1549.97536 C632.46848,1549.38784 633.98912,1546.96864 636.78848,1546.96864 C639.89888,1546.96864 640.62464,1549.00768 640.62464,1549.49152 C640.62464,1549.90624 640.34816,1550.21728 639.93344,1550.25184 C639.15584,1550.28064 637.94624,1550.28544 636.74464,1550.28624 Z M655.865601,1561.5184 C659.909121,1561.5184 662.846721,1559.06464 662.846721,1557.57856 C662.846721,1556.61088 661.913601,1555.74688 660.911361,1555.74688 C660.427521,1555.74688 659.909121,1555.95424 659.494401,1556.5072 C658.734081,1557.544 657.282561,1558.09696 655.831041,1558.09696 C651.061761,1558.09696 650.716161,1553.50048 650.716161,1552.74016 C650.716161,1549.5952 652.824321,1547.31424 655.761921,1547.31424 C656.971521,1547.31424 658.181121,1547.72896 658.906881,1548.62752 C659.356161,1549.18048 659.874561,1549.38784 660.358401,1549.38784 C661.326081,1549.38784 662.190081,1548.5584 662.190081,1547.59072 C662.190081,1546.17376 659.667201,1543.99648 655.969281,1543.99648 C650.543361,1543.99648 647.225601,1548.24736 647.225601,1552.91296 C647.225601,1556.61088 649.575681,1561.5184 655.865601,1561.5184 Z M679.504641,1561.38016 C680.403201,1561.38016 681.267201,1560.79264 681.301761,1559.54848 C681.336321,1558.82272 681.336321,1557.85504 681.336321,1556.78368 C681.336321,1554.22624 681.267201,1551.1504 681.232641,1549.90624 C681.094401,1545.51712 678.087681,1543.96192 675.150081,1543.96192 C673.352961,1543.96192 671.590401,1544.54944 670.484481,1545.41344 C670.380801,1545.48256 670.346241,1545.51712 670.311681,1545.51712 C670.242561,1545.51712 670.242561,1545.448 670.242561,1545.30976 C670.277121,1544.13472 670.311681,1539.98752 670.346241,1536.70432 C670.346241,1535.5984 669.482241,1535.08 668.583681,1535.08 C667.685121,1535.08 666.752001,1535.63296 666.752001,1536.66976 L666.752583,1537.23529 C666.756925,1539.51989 666.78415,1543.11512 666.786411,1546.92047 L666.786561,1547.41792 C666.786561,1551.77248 666.752001,1556.3344 666.648321,1559.6176 L666.648321,1559.68672 L666.648321,1559.68672 C666.648321,1560.79264 667.546881,1561.38016 668.480001,1561.38016 C669.862401,1561.38016 670.277121,1560.34336 670.242561,1559.6176 C670.173441,1557.16384 670.138881,1555.1248 670.138881,1553.53504 C670.138881,1552.39456 670.138881,1551.496 670.173441,1550.87392 C670.277121,1548.69664 672.488961,1547.176 674.493441,1547.176 C676.083201,1547.176 677.569281,1548.14368 677.707521,1550.49376 C677.739612,1551.00722 677.771704,1552.02727 677.776125,1553.24953 L677.776641,1553.53504 C677.776641,1555.6432 677.742081,1558.20064 677.707521,1559.6176 L677.707521,1559.65216 C677.707521,1560.75808 678.606081,1561.38016 679.504641,1561.38016 Z M699.376641,1561.38016 C700.275201,1561.38016 701.139201,1560.79264 701.173761,1559.54848 C701.208321,1558.82272 701.208321,1557.85504 701.208321,1556.78368 C701.208321,1554.22624 701.139201,1551.1504 701.104641,1549.90624 C700.966401,1546.03552 698.167041,1544.13472 695.264001,1544.13472 C693.466881,1544.13472 691.635201,1544.82592 690.356481,1546.20832 C690.287361,1546.27744 690.218241,1546.34656 690.183681,1546.34656 C690.157761,1546.34656 690.151281,1546.32712 690.149661,1546.30282 L690.149121,1546.17376 L690.149121,1546.17376 C690.149121,1546.07008 690.183681,1545.9664 690.183681,1545.82816 C690.183681,1544.72224 689.285121,1544.20384 688.421121,1544.20384 C687.557121,1544.20384 686.554881,1544.72224 686.554881,1545.75904 L686.554881,1545.82816 L686.554881,1545.82816 C686.624001,1548.14368 686.658561,1549.9408 686.658561,1552.0144 C686.658561,1554.05344 686.624001,1556.3344 686.520321,1559.6176 L686.520321,1559.68672 L686.520321,1559.68672 C686.520321,1560.79264 687.418881,1561.38016 688.352001,1561.38016 C689.734401,1561.38016 690.149121,1560.34336 690.114561,1559.6176 C690.045441,1557.16384 690.010881,1555.33216 690.010881,1553.9152 C690.010881,1552.94752 690.010881,1552.15264 690.045441,1551.53056 C690.149121,1549.21504 692.672001,1547.3488 694.780161,1547.3488 C696.231681,1547.3488 697.441281,1548.2128 697.579521,1550.35552 C697.611777,1550.87162 697.644033,1551.92961 697.648191,1553.19233 L697.648641,1553.46592 C697.648641,1555.57408 697.614081,1558.20064 697.579521,1559.6176 L697.579521,1559.65216 C697.579521,1560.75808 698.478081,1561.38016 699.376641,1561.38016 Z M713.822722,1561.5184 C718.764802,1561.5184 722.497282,1557.99328 722.497282,1552.77472 C722.497282,1547.72896 718.764802,1544.03104 713.822722,1544.03104 C708.880642,1544.03104 705.113601,1547.72896 705.113601,1552.77472 C705.113601,1557.99328 708.880642,1561.5184 713.822722,1561.5184 Z M713.822722,1558.26976 C710.954242,1558.26976 708.604161,1556.1616 708.604161,1552.77472 C708.604161,1549.35328 710.988802,1547.21056 713.822722,1547.21056 C716.656642,1547.21056 719.006722,1549.35328 719.006722,1552.77472 C719.006722,1556.1616 716.691202,1558.26976 713.822722,1558.26976 Z M728.890882,1561.27648 C729.824002,1561.27648 730.757122,1560.68896 730.757122,1559.47936 L730.757122,1559.41024 L730.757122,1559.41024 C730.692068,1556.93818 730.657627,1553.5171 730.653801,1550.06901 L730.653973,1548.59399 C730.66044,1543.49471 730.724334,1538.62196 730.757122,1537.01536 L730.757122,1536.94624 L730.757122,1536.94624 C730.757122,1535.73664 729.824002,1535.11456 728.890882,1535.11456 C727.888642,1535.11456 726.955522,1535.80576 726.990082,1537.04992 C727.05107,1538.26968 727.058245,1541.83032 727.059089,1545.83254 L727.05902,1549.3773 C727.057887,1553.38998 727.049668,1557.32472 726.990082,1559.41024 L726.990082,1559.4448 C726.990082,1560.6544 727.923202,1561.27648 728.890882,1561.27648 Z M743.959042,1561.5184 C748.901122,1561.5184 752.633602,1557.99328 752.633602,1552.77472 C752.633602,1547.72896 748.901122,1544.03104 743.959042,1544.03104 C739.016962,1544.03104 735.249922,1547.72896 735.249922,1552.77472 C735.249922,1557.99328 739.016962,1561.5184 743.959042,1561.5184 Z M743.959042,1558.26976 C741.090562,1558.26976 738.740482,1556.1616 738.740482,1552.77472 C738.740482,1549.35328 741.125122,1547.21056 743.959042,1547.21056 C746.792962,1547.21056 749.143042,1549.35328 749.143042,1552.77472 C749.143042,1556.1616 746.827522,1558.26976 743.959042,1558.26976 Z M763.831042,1570.22752 C768.462082,1570.22752 772.989442,1568.29216 772.989442,1563.66112 C772.989442,1560.8272 770.673922,1558.30432 765.489922,1558.30432 C760.271362,1558.30432 759.856642,1558.16608 759.856642,1557.544 C759.856642,1556.1616 762.206722,1555.88512 763.658242,1555.85056 C767.909122,1555.67776 770.190082,1553.36224 770.190082,1550.04448 C770.190082,1549.00768 770.120962,1548.66208 769.879042,1548.00544 C769.844482,1547.90176 769.844482,1547.83264 769.844482,1547.79808 C769.844482,1547.65984 769.913602,1547.65984 769.982722,1547.62528 C770.190082,1547.5216 770.328322,1547.41792 770.708482,1547.41792 C770.812162,1547.41792 770.984962,1547.41792 771.157762,1547.45248 C771.296002,1547.48704 771.399682,1547.48704 771.537922,1547.48704 C772.505602,1547.48704 772.989442,1546.69216 772.989442,1545.89728 C772.989442,1544.20384 771.537922,1544.10016 770.535682,1544.10016 C769.809922,1544.10016 769.222402,1544.30752 768.220162,1544.82592 C768.047362,1544.9296 767.874562,1544.99872 767.667202,1544.99872 C767.528962,1544.99872 767.321602,1544.96416 767.079682,1544.82592 C765.904642,1544.27296 764.556802,1543.99648 763.243522,1543.99648 L763.174402,1543.99648 L763.174402,1543.99648 C759.787522,1543.99648 756.331522,1546.03552 756.331522,1550.04448 C756.331522,1551.496 757.057282,1553.29312 758.405122,1554.32992 C758.681602,1554.53728 758.785282,1554.64096 758.785282,1554.74464 C758.785282,1554.84832 758.577922,1554.91744 758.336002,1555.05568 C756.988162,1555.78144 756.366082,1556.8528 756.366082,1558.13152 C756.366082,1559.03008 756.919042,1560.17056 758.266882,1560.58528 C758.508802,1560.6544 758.577922,1560.72352 758.577922,1560.79264 C758.577922,1560.8272 758.508802,1560.89632 758.405122,1560.93088 C756.746242,1561.62208 755.363842,1562.9008 755.363842,1564.8016 C755.363842,1567.048 757.575682,1570.22752 763.831042,1570.22752 Z M763.208962,1552.98208 C760.133122,1552.98208 759.718402,1550.90848 759.718402,1550.00992 C759.718402,1548.24736 761.308162,1546.96864 763.347202,1546.96864 C765.939202,1546.96864 766.976002,1548.42016 766.976002,1549.97536 C766.976002,1551.97984 765.248002,1552.98208 763.208962,1552.98208 Z M763.900162,1567.15168 C758.923522,1567.15168 758.819842,1564.76704 758.819842,1564.456 C758.819842,1564.04128 759.303682,1561.24192 763.865602,1561.24192 C766.492162,1561.24192 769.360642,1561.24192 769.360642,1563.86848 C769.360642,1567.01344 764.867842,1567.15168 763.900162,1567.15168 Z M778.415363,1539.7456 C779.901443,1539.7456 780.834563,1538.536 780.834563,1537.29184 C780.834563,1535.97856 779.659523,1534.94176 778.415363,1534.94176 C777.447683,1534.94176 775.996163,1535.5984 775.996163,1537.29184 C775.996163,1538.8816 777.067523,1539.7456 778.415363,1539.7456 Z M778.415363,1561.48384 C779.348483,1561.48384 780.281603,1560.89632 780.281603,1559.72128 L780.281603,1559.65216 L780.281603,1559.65216 C780.247043,1557.75136 780.212483,1555.2976 780.212483,1552.91296 C780.212483,1550.00992 780.247043,1547.27968 780.281603,1545.86272 L780.281603,1545.7936 L780.281603,1545.7936 C780.281603,1544.68768 779.348483,1544.13472 778.449923,1544.13472 C777.413123,1544.13472 776.549123,1544.7568 776.583683,1545.89728 C776.618243,1546.8304 776.618243,1548.2128 776.618243,1549.768 C776.618243,1552.91296 776.583683,1556.8528 776.583683,1559.72128 C776.583683,1560.89632 777.482243,1561.48384 778.415363,1561.48384 Z M793.414403,1561.5184 C797.457923,1561.5184 800.395523,1559.06464 800.395523,1557.57856 C800.395523,1556.61088 799.462403,1555.74688 798.460163,1555.74688 C797.976323,1555.74688 797.457923,1555.95424 797.043203,1556.5072 C796.282883,1557.544 794.831363,1558.09696 793.379843,1558.09696 C788.610563,1558.09696 788.264963,1553.50048 788.264963,1552.74016 C788.264963,1549.5952 790.373123,1547.31424 793.310723,1547.31424 C794.520323,1547.31424 795.729923,1547.72896 796.455683,1548.62752 C796.904963,1549.18048 797.423363,1549.38784 797.907203,1549.38784 C798.874883,1549.38784 799.738883,1548.5584 799.738883,1547.59072 C799.738883,1546.17376 797.216003,1543.99648 793.518083,1543.99648 C788.092163,1543.99648 784.774403,1548.24736 784.774403,1552.91296 C784.774403,1556.61088 787.124483,1561.5184 793.414403,1561.5184 Z M809.104643,1561.58752 C811.143683,1561.58752 813.320963,1560.86176 814.496003,1559.51392 C814.565123,1559.4448 814.634243,1559.41024 814.703363,1559.41024 C814.737923,1559.41024 814.807043,1559.4448 814.841603,1559.51392 C815.152643,1560.03232 815.463683,1560.41248 815.774723,1560.6544 C816.189443,1561 816.638723,1561.1728 817.018883,1561.1728 C818.021123,1561.1728 818.781443,1560.06688 818.781443,1559.0992 C818.781443,1558.61536 818.608643,1558.16608 818.228483,1557.8896 C817.952003,1557.68224 816.673283,1557.57856 816.362243,1554.81376 C816.327683,1554.6064 816.327683,1554.32992 816.327683,1554.01888 C816.327683,1552.98208 816.431363,1551.6688 816.500483,1551.1504 C816.535043,1550.66656 816.569603,1550.25184 816.569603,1549.80256 C816.569603,1545.82816 814.496003,1543.96192 810.694403,1543.96192 C807.203843,1543.96192 804.162563,1545.7936 804.162563,1547.45248 C804.162563,1548.35104 804.922883,1549.04224 805.821443,1549.04224 C806.236163,1549.04224 806.720003,1548.86944 807.100163,1548.42016 C807.756803,1547.6944 808.931843,1546.96864 810.487043,1546.96864 C812.837123,1546.96864 812.940803,1548.7312 812.940803,1549.14592 C812.940803,1549.87168 812.664323,1550.2864 812.318723,1550.32096 C811.765763,1550.35552 808.793603,1551.01216 806.408963,1551.8416 C804.093443,1552.63648 803.056643,1554.39904 803.056643,1556.1616 C803.056643,1558.82272 805.303043,1561.58752 809.104643,1561.58752 Z M809.104643,1558.37344 C807.342083,1558.37344 806.408963,1557.30208 806.408963,1556.23072 C806.408963,1555.40128 806.754563,1553.94976 812.595203,1553.224 L812.629763,1553.224 C813.044483,1553.224 813.113603,1553.98432 813.113603,1554.50272 C813.113603,1556.95648 811.904003,1558.37344 809.104643,1558.37344 Z M824.276483,1561.27648 C825.209603,1561.27648 826.142723,1560.68896 826.142723,1559.47936 L826.142723,1559.41024 L826.142723,1559.41024 C826.077669,1556.93818 826.043229,1553.5171 826.039402,1550.06901 L826.039575,1548.59399 C826.046042,1543.49471 826.109936,1538.62196 826.142723,1537.01536 L826.142723,1536.94624 L826.142723,1536.94624 C826.142723,1535.73664 825.209603,1535.11456 824.276483,1535.11456 C823.274243,1535.11456 822.341123,1535.80576 822.375683,1537.04992 C822.430573,1538.14771 822.441873,1541.1416 822.4442,1544.64702 L822.444191,1550.33794 C822.441844,1554.0077 822.430503,1557.49156 822.375683,1559.41024 L822.375683,1559.4448 C822.375683,1560.6544 823.308803,1561.27648 824.276483,1561.27648 Z M631.5008,1595.31104 C633.12512,1595.31104 634.784,1594.06688 635.33696,1591.78592 C638.24,1579.75904 640.07168,1571.53376 640.07168,1570.87712 C640.07168,1569.7712 638.96576,1569.08 637.8944,1569.08 C637.0304,1569.08 636.1664,1569.56384 635.95904,1570.56608 C632.05376,1590.40352 631.8464,1590.40352 631.36256,1590.40352 C631.18976,1590.40352 631.01696,1590.19616 630.91328,1589.60864 C630.18752,1585.59968 628.45952,1575.6464 627.6992,1571.70656 C627.38816,1570.08224 625.86752,1569.14912 624.34688,1569.14912 C622.92992,1569.14912 621.51296,1569.97856 621.16736,1571.8448 C620.2688,1576.44128 618.40256,1586.91296 617.74592,1589.78144 C617.64224,1590.29984 617.40032,1590.68 617.12384,1590.68 L617.095277,1590.6796 C616.635881,1590.66384 616.50176,1590.0752 613.11488,1570.60064 C612.94208,1569.5984 612.00896,1569.08 611.04128,1569.08 C610.00448,1569.08 608.93312,1569.70208 608.93312,1570.91168 L608.933722,1570.95151 C608.953759,1571.64477 609.490918,1574.51007 613.11488,1591.64768 C613.63328,1594.10144 615.2576,1595.31104 616.95104,1595.31104 C618.60992,1595.31104 620.30336,1594.10144 620.92544,1591.61312 C622.03136,1587.36224 623.69024,1577.5472 624.13952,1574.40224 C624.20864,1574.02208 624.31232,1573.78016 624.416,1573.78016 C624.51968,1573.78016 624.62336,1573.95296 624.69248,1574.40224 C625.07264,1577.30528 626.86976,1587.98432 627.76832,1591.64768 C628.3904,1594.17056 629.9456,1595.31104 631.5008,1595.31104 Z M649.852161,1595.5184 C654.794241,1595.5184 658.526721,1591.99328 658.526721,1586.77472 C658.526721,1581.72896 654.794241,1578.03104 649.852161,1578.03104 C644.910081,1578.03104 641.14304,1581.72896 641.14304,1586.77472 C641.14304,1591.99328 644.910081,1595.5184 649.852161,1595.5184 Z M649.852161,1592.26976 C646.983681,1592.26976 644.633601,1590.1616 644.633601,1586.77472 C644.633601,1583.35328 647.018241,1581.21056 649.852161,1581.21056 C652.686081,1581.21056 655.036161,1583.35328 655.036161,1586.77472 C655.036161,1590.1616 652.720641,1592.26976 649.852161,1592.26976 Z M664.747521,1595.38016 C666.129921,1595.38016 666.544641,1594.34336 666.510081,1593.6176 C666.445281,1591.3172 666.410856,1589.65467 666.406806,1588.34526 L666.406941,1587.42542 C666.408561,1586.79848 666.415041,1586.2736 666.440961,1585.80704 C666.544641,1583.62976 668.825601,1581.93632 670.864641,1581.72896 C672.212481,1581.59072 672.834561,1580.69216 672.834561,1579.82816 C672.834561,1578.96416 672.212481,1578.16928 671.141121,1578.16928 C669.966081,1578.16928 668.099841,1578.7568 666.717441,1580.27744 C666.648321,1580.38112 666.579201,1580.41568 666.579201,1580.41568 C666.544641,1580.41568 666.544641,1580.38112 666.544641,1580.312 L666.544641,1580.17376 L666.544641,1580.17376 C666.544641,1580.07008 666.579201,1579.9664 666.579201,1579.82816 C666.579201,1578.72224 665.680641,1578.20384 664.816641,1578.20384 C663.952641,1578.20384 662.950401,1578.72224 662.950401,1579.75904 L662.950401,1579.82816 L662.950401,1579.82816 C663.019521,1582.14368 663.054081,1583.9408 663.054081,1586.0144 C663.054081,1588.05344 663.019521,1590.3344 662.915841,1593.6176 L662.915841,1593.68672 L662.915841,1593.68672 C662.915841,1594.79264 663.814401,1595.38016 664.747521,1595.38016 Z M678.295041,1595.27648 C679.228161,1595.27648 680.161281,1594.68896 680.161281,1593.47936 L680.161281,1593.41024 L680.161281,1593.41024 C680.096227,1590.93818 680.061787,1587.5171 680.05796,1584.06901 L680.057601,1583.4224 C680.057601,1578.03104 680.126721,1572.7088 680.161281,1571.01536 L680.161281,1570.94624 L680.161281,1570.94624 C680.161281,1569.73664 679.228161,1569.11456 678.295041,1569.11456 C677.292801,1569.11456 676.359681,1569.80576 676.394241,1571.04992 C676.453196,1572.22903 676.461866,1575.59555 676.463141,1579.43386 L676.463007,1583.85833 C676.461306,1587.7018 676.451444,1591.40814 676.394241,1593.41024 L676.394241,1593.4448 C676.394241,1594.6544 677.327361,1595.27648 678.295041,1595.27648 Z M693.052161,1595.44928 C695.298561,1595.44928 697.164801,1594.4816 698.512641,1593.03008 C698.581761,1592.96096 698.650881,1592.89184 698.685441,1592.89184 C698.754561,1592.89184 698.789121,1592.96096 698.823681,1593.0992 C699.307521,1595 699.964161,1595.27648 700.759041,1595.27648 C701.761281,1595.27648 702.763521,1594.4816 702.763521,1593.37568 C702.763521,1593.06464 702.694401,1592.7536 702.521601,1592.44256 C701.554323,1590.57471 701.48839,1590.41298 701.484967,1578.87776 L701.484801,1577.58176 C701.484801,1574.67872 701.519361,1572.22496 701.588481,1571.04992 L701.588481,1570.87712 L701.588481,1570.87712 C701.588481,1569.66752 700.689921,1569.08 699.791361,1569.08 C698.789121,1569.08 697.994241,1569.80576 698.028801,1570.87712 C698.063361,1572.32864 698.132481,1575.85376 698.132481,1579.86272 C698.132481,1579.9664 698.097921,1580.00096 698.028801,1580.00096 C697.994241,1580.00096 697.925121,1580.00096 697.890561,1579.9664 C696.611841,1578.82592 694.987521,1578.10016 693.052161,1578.10016 C688.282881,1578.10016 684.654081,1581.72896 684.654081,1586.77472 C684.654081,1591.99328 688.282881,1595.44928 693.052161,1595.44928 Z M693.121281,1592.2352 C690.356481,1592.2352 688.144641,1590.1616 688.144641,1586.77472 C688.144641,1583.35328 690.356481,1581.24512 693.121281,1581.24512 C695.886081,1581.24512 698.097921,1583.35328 698.097921,1586.77472 C698.097921,1590.1616 695.886081,1592.2352 693.121281,1592.2352 Z" id="path-4"></path>
  </defs>
  <g id="Page-1" stroke="none" stroke-width="1" fill="none" fill-rule="evenodd">
    <g id="Ctw-UX-2020-STACK-Copy" transform="translate(-467.000000, -1491.000000)" fill-rule="nonzero">
      <g id="Group-4" transform="translate(469.000000, 1493.000000)">
        <circle id="Oval" stroke="url(#linearGradient-1)" stroke-width="4" cx="55" cy="55" r="55"></circle>
        <text id="CTW" fill="url(#linearGradient-2)" transform="translate(55.500000, 55.000000) rotate(-5.000000) translate(-55.500000, -55.000000) " font-family="TsukuARdGothic-Bold, Tsukushi A Round Gothic" font-size="34.5600005" font-weight="bold">
          <tspan x="14" y="68">CTW</tspan>
        </text>
      </g>
      <g id="CreatingaTechnologicalWorld">
        <use fill-opacity="0.87" fill="#000000" xlink:href="#path-4"></use>
        <use fill="url(#linearGradient-3)" xlink:href="#path-4"></use>
      </g>
    </g>
  </g>
</svg>
